<?xml version="1.0" encoding="utf-8"?>
<!-- Generator: Adobe Illustrator 23.0.3, SVG Export Plug-In . SVG Version: 6.00 Build 0)  -->
<svg version="1.1" id="d2ec24bc-8034-4145-bbaa-ac0081ffc938"
	 xmlns="http://www.w3.org/2000/svg" xmlns:xlink="http://www.w3.org/1999/xlink" x="0px" y="0px" viewBox="0 0 814.3 615.4"
	 style="enable-background:new 0 0 814.3 615.4;" xml:space="preserve">
<style type="text/css">
	.st0{fill:#E0E0E0;}
	.st1{fill:url(#SVGID_1_);}
	.st2{fill:#F5F5F5;}
	.st3{opacity:0.9;fill:url(#SVGID_2_);enable-background:new    ;}
	.st4{fill:#FFFFFF;}
	.st5{fill:#3F3D56;}
	.st6{opacity:0.9;fill:url(#SVGID_3_);enable-background:new    ;}
	.st7{fill:url(#SVGID_4_);}
	.st8{fill:#DBDBDB;}
	.st9{opacity:0.9;fill:url(#SVGID_5_);enable-background:new    ;}
	.st10{fill:#FFD449;}
	.st11{fill:#FF6584;}
	.st12{fill:#6C63FF;}
	.st13{opacity:0.7;fill:#3F3D56;}
	.st14{opacity:0.75;fill:#FF6584;}
</style>
<title>Devices</title>
<path class="st0" d="M565.6,396.1c0,0,14.6,110.1,100.3,146.7l-173.3,0.3l-173.3,0.3c85.5-36.8,99.9-147,99.9-147L565.6,396.1z"/>
<linearGradient id="SVGID_1_" gradientUnits="userSpaceOnUse" x1="685.1065" y1="582.5128" x2="685.1065" y2="568.8894" gradientTransform="matrix(1 -1.396263e-03 1.396263e-03 1 -193.4603 -25.0821)">
	<stop  offset="0" style="stop-color:#808080;stop-opacity:0.25"/>
	<stop  offset="0.54" style="stop-color:#808080;stop-opacity:0.12"/>
	<stop  offset="1" style="stop-color:#808080;stop-opacity:0.1"/>
</linearGradient>
<polygon class="st1" points="317.5,543.1 667.4,542.8 667.4,556.2 317.5,556.5 "/>
<polygon class="st2" points="319.2,543.1 667.4,542.8 667.4,553.4 319.2,553.7 "/>
<linearGradient id="SVGID_2_" gradientUnits="userSpaceOnUse" x1="686.14" y1="460.6503" x2="686.14" y2="55.2259" gradientTransform="matrix(1 0 0 1.04 -193.49 -46.15)">
	<stop  offset="0" style="stop-color:#808080;stop-opacity:0.25"/>
	<stop  offset="0.54" style="stop-color:#808080;stop-opacity:0.12"/>
	<stop  offset="1" style="stop-color:#808080;stop-opacity:0.1"/>
</linearGradient>
<path class="st3" d="M796.8,9.4L188,10.2c-9.9,0-12.2,3.7-12.2,10.6l0.5,349.6V382c0,26.6,21,48.1,46.8,48l539.8-0.7
	c32.2,0.7,45.5-7.5,46.4-34.2l0.2-25.5L809.1,20C809.1,13,804.8,9.4,796.8,9.4z"/>
<path class="st4" d="M188.2,11.8H795c7.6,0,10.9,4.2,10.8,11.1l0,0v357.7l0,0H177.4l0,0V22.9C177.4,15.8,178.9,11.8,188.2,11.8
	L188.2,11.8L188.2,11.8z"/>
<path class="st2" d="M764.7,424.4L219.3,425c-22.7,0-41.2-13.6-41.2-30.5l0,0v-13.1l627.6-0.6v7.5
	C805.6,399,807.3,424.9,764.7,424.4z"/>
<rect x="194.5" y="26.6" transform="matrix(1 -1.567685e-03 1.567685e-03 1 -0.3069 0.7735)" class="st5" width="597.5" height="339.1"/>
<linearGradient id="SVGID_3_" gradientUnits="userSpaceOnUse" x1="439.5107" y1="624.1873" x2="439.5107" y2="188.0831" gradientTransform="matrix(1 -1.396263e-03 1.424188e-03 1.02 -193.4858 -36.5118)">
	<stop  offset="0" style="stop-color:#808080;stop-opacity:0.25"/>
	<stop  offset="0.54" style="stop-color:#808080;stop-opacity:0.12"/>
	<stop  offset="1" style="stop-color:#808080;stop-opacity:0.1"/>
</linearGradient>
<path class="st6" d="M121.4,153.6l249.8-0.4c9.1,0,16.4,7.4,16.4,16.5l0.6,409.7c0,9.2-6.1,15.9-16.4,16.6L122,596.4
	c-9.1,0-16.4-7.4-16.4-16.5L105,170.2C105,161,112.3,153.6,121.4,153.6z"/>
<linearGradient id="SVGID_4_" gradientUnits="userSpaceOnUse" x1="439.7091" y1="596.7849" x2="439.7091" y2="217.7549" gradientTransform="matrix(1 -1.396263e-03 1.424188e-03 1.02 -193.4858 -36.5118)">
	<stop  offset="0" style="stop-color:#000000;stop-opacity:9.000000e-02"/>
	<stop  offset="0.55" style="stop-color:#000000;stop-opacity:7.000000e-02"/>
	<stop  offset="1" style="stop-color:#000000;stop-opacity:2.000000e-02"/>
</linearGradient>
<polygon class="st7" points="118.7,183.7 374.3,183.3 374.9,568.1 119.3,568.5 "/>
<path class="st4" d="M123.1,154.5l244.7-0.3c8.9,0,16.1,7.2,16.2,16.1l0.6,405.4c0,10.7-5.9,15.7-16.1,16.2l-245.7,0.3
	c-8.9,0-16.1-7.2-16.2-16.1L106,171.7C106,161.2,112.3,154.2,123.1,154.5z"/>
<rect x="117.5" y="183.3" class="st5" width="257.1" height="373.2"/>
<ellipse class="st8" cx="246.7" cy="574.8" rx="9.9" ry="10.1"/>
<ellipse transform="matrix(1 -1.396261e-03 1.396261e-03 1 -0.2414 0.2864)" class="st8" cx="205" cy="173" rx="3.3" ry="3.4"/>
<path class="st8" d="M222.9,170.9l40-0.1c0.8,0,1.4,0.6,1.4,1.4v0.5c0,0.8-0.6,1.4-1.4,1.4l-40,0.1c-0.8,0-1.4-0.6-1.4-1.4v-0.5
	C221.4,171.6,222.1,170.9,222.9,170.9z"/>
<linearGradient id="SVGID_5_" gradientUnits="userSpaceOnUse" x1="291.524" y1="638.332" x2="291.524" y2="296.3604" gradientTransform="matrix(1 -1.396263e-03 1.424188e-03 1.02 -193.4871 -37.6719)">
	<stop  offset="0" style="stop-color:#808080;stop-opacity:0.25"/>
	<stop  offset="0.54" style="stop-color:#808080;stop-opacity:0.12"/>
	<stop  offset="1" style="stop-color:#808080;stop-opacity:0.1"/>
</linearGradient>
<path class="st9" d="M12.8,263.1l171.3-0.2c5.4,0,9.7,4.3,9.7,9.7l0.5,328.2c0,5.4-4.3,9.7-9.7,9.8l-171.3,0.2
	c-5.4,0-9.7-4.3-9.7-9.7L3.1,272.8C3.1,267.4,7.4,263.1,12.8,263.1z"/>
<path class="st4" d="M13.8,264.4l168.3-0.2c5.2,0,9.3,4.2,9.3,9.3l0.5,324.1c0,5.2-4.2,9.3-9.3,9.3l-168.3,0.2
	c-5.2,0-9.3-4.2-9.3-9.3l-0.5-324C4.5,268.6,8.7,264.4,13.8,264.4z"/>
<rect x="15.8" y="283.1" transform="matrix(1 -1.249910e-03 1.249910e-03 1 -0.5315 0.1231)" class="st5" width="164.9" height="284.4"/>
<ellipse class="st8" cx="97.4" cy="588" rx="11.5" ry="11.8"/>
<ellipse transform="matrix(1 -1.396261e-03 1.396261e-03 1 -0.3847 0.1065)" class="st8" cx="76.1" cy="275.6" rx="2.3" ry="2.4"/>
<path class="st8" d="M88,273.8h32.8c0.8,0,1.5,0.7,1.5,1.5v0.5c0,0.8-0.7,1.5-1.5,1.5H88c-0.8,0-1.5-0.7-1.5-1.5v-0.5
	C86.5,274.4,87.1,273.8,88,273.8z"/>
<rect x="-92.3" y="185.1" class="st10" width="52.9" height="61.2"/>
<rect x="-92.3" y="247.1" class="st11" width="52.9" height="61.2"/>
<rect x="-92.3" y="307.7" class="st12" width="52.9" height="61.2"/>
<rect x="-92.3" y="369.1" class="st13" width="52.9" height="61.2"/>
<g>
	<path class="st10" d="M553.3,196.1L553.3,196.1c0-2.4,1.9-4.3,4.3-4.3h9.6c2.4,0,4.3,1.9,4.3,4.3v0c0,2.4-1.9,4.3-4.3,4.3h-9.6
		C555.2,200.3,553.3,198.4,553.3,196.1z"/>
	<path class="st10" d="M491.6,134.8L491.6,134.8c-2.4,0-4.3-1.9-4.3-4.3V121c0-2.4,1.9-4.3,4.3-4.3h0c2.4,0,4.3,1.9,4.3,4.3v9.6
		C495.9,132.9,494,134.8,491.6,134.8z"/>
	<path class="st10" d="M491.6,275.5L491.6,275.5c-2.4,0-4.3-1.9-4.3-4.3v-9.6c0-2.4,1.9-4.3,4.3-4.3h0c2.4,0,4.3,1.9,4.3,4.3v9.6
		C495.9,273.6,494,275.5,491.6,275.5z"/>
	<path class="st10" d="M411.8,196.1L411.8,196.1c0-2.4,1.9-4.3,4.3-4.3h9.6c2.4,0,4.3,1.9,4.3,4.3v0c0,2.4-1.9,4.3-4.3,4.3h-9.6
		C413.8,200.3,411.8,198.4,411.8,196.1z"/>
	<path class="st12" d="M491.6,112.2c-46.4,0-84,37.6-84,84s37.6,84,84,84s84-37.6,84-84S538,112.2,491.6,112.2z M491.6,266.9
		c-39,0-70.7-31.7-70.7-70.7s31.7-70.7,70.7-70.7s70.7,31.7,70.7,70.7S530.6,266.9,491.6,266.9z"/>
	<g>
		<path class="st11" d="M520,143.4l-40.8,45.4l24.9,14.7l20-57.7C524.9,143.3,521.7,141.5,520,143.4z"/>
		<path class="st14" d="M463.3,249l40.8-45.4l-24.9-14.7l-20,57.7C458.3,249.1,461.5,250.9,463.3,249z"/>
	</g>
</g>
</svg>
