<?xml version="1.0" encoding="utf-8"?>
<!-- Generator: Adobe Illustrator 23.0.3, SVG Export Plug-In . SVG Version: 6.00 Build 0)  -->
<svg version="1.1" id="a5ea60a6-7e3a-43b2-b481-a6d571d01698"
	 xmlns="http://www.w3.org/2000/svg" xmlns:xlink="http://www.w3.org/1999/xlink" x="0px" y="0px" viewBox="0 0 1020 734.2"
	 style="enable-background:new 0 0 1020 734.2;" xml:space="preserve">
<style type="text/css">
	.st0{fill:#3F3D56;}
	.st1{fill:#EAEAF4;}
	.st2{opacity:0.4;fill:#6C63FF;enable-background:new    ;}
	.st3{fill:#2F2E41;}
	.st4{fill:#FF6584;}
	.st5{fill:#FFB8B8;}
	.st6{opacity:0.1;enable-background:new    ;}
	.st7{fill:#D0CDE1;}
	.st8{fill:#FFD449;}
	.st9{fill:#6C63FF;}
</style>
<title>reading</title>
<ellipse class="st0" cx="502" cy="701.7" rx="259" ry="32.5"/>
<path class="st1" d="M940.1,423.8L840,471.2l88.6-66.3c-14.4-22.5-30.6-43.8-48.4-63.7L446,449.2l392.2-149.6
	c-17.9-15.8-37-30.3-57-43.4L119.6,362.7C49.4,450.6,11.1,559.7,11,672.2h996C1007,585,983.9,499.3,940.1,423.8z"/>
<path class="st1" d="M727.1,225.4c-67.9-33.1-142.5-50.3-218.1-50.2c-153.8,0-291.4,69.8-382.7,179.3
	C282.7,320.3,555.1,260.9,727.1,225.4z"/>
<circle class="st2" cx="825.1" cy="258.4" r="14.9"/>
<circle class="st2" cx="797.5" cy="265.5" r="10.5"/>
<circle class="st2" cx="118.8" cy="297.9" r="31.2"/>
<circle class="st2" cx="60.9" cy="312.8" r="21.9"/>
<rect y="671.2" class="st3" width="1020" height="2"/>
<path class="st0" d="M904.4,671.2l-79.4-118c0,0,120.3,42,106.7,118H904.4z"/>
<path class="st4" d="M907.6,671.2l79.4-118c0,0-120.3,42-106.7,118H907.6z"/>
<path class="st1" d="M208,132.8c0-6.5-9.3-11.8-20.7-11.8c-0.2,0-0.4,0-0.7,0c-3.4-10.6-19.7-18.6-39.3-18.6c-16.7,0-30.9,5.8-37,14
	c-4.4-1.2-9-1.8-13.6-1.7c-17.5,0-31.7,8.1-31.7,18c0,9,11.7,16.5,27,17.8c11.1,2,28.5,3.3,47.9,3.3c33.1,0,57.3-6.3,57.9-11.1
	C203.9,140.8,208,137.1,208,132.8z"/>
<path class="st1" d="M708,137.8c0-6.5-9.3-11.8-20.7-11.8c-0.2,0-0.4,0-0.7,0c-3.4-10.6-19.7-18.6-39.3-18.6c-16.7,0-30.9,5.8-37,14
	c-4.4-1.2-9-1.8-13.6-1.7c-17.5,0-31.7,8.1-31.7,18c0,9,11.7,16.5,27,17.8c11.1,2,28.5,3.3,47.9,3.3c33.1,0,57.3-6.3,57.9-11.1
	C703.9,145.8,708,142.1,708,137.8z"/>
<path class="st1" d="M987,53.2c0-11.4-16.3-20.6-36.3-20.6c-0.4,0-0.8,0-1.2,0C943.4,14,914.8,0,880.5,0
	c-29.2,0-54.3,10.2-64.9,24.6c-7.8-2.1-15.8-3.1-23.9-3.1c-30.8,0-55.7,14.2-55.7,31.7c0,15.9,20.6,29,47.4,31.3
	c19.5,3.6,49.9,5.9,84.2,5.9c58.1,0,100.6-11.1,101.7-19.4C979.9,67.4,987,60.8,987,53.2z"/>
<path class="st3" d="M570.2,289.9c-20.7-35-61.6-36.6-61.6-36.6s-39.9-5.1-65.5,48.1c-23.8,49.6-56.8,97.5-5.3,109.1l9.3-28.9
	l5.8,31.1c7.3,0.5,14.7,0.7,22,0.4c55.1-1.8,107.6,0.5,105.9-19.3C578.5,367.6,590.1,323.5,570.2,289.9z"/>
<path class="st3" d="M434.9,596c-0.6,3.8-1.5,7.6-2.6,11.4c-1.3,3.6-3.3,7-4.5,10.7c-3.8,11.7,1.5,24.8,9.8,33.8
	c7.2,7.8,16.6,13.4,26.9,16c7.5,1.9,15.4,2.2,23.1,2.4c21.5,0.7,43.6,1.4,63.9-5.5c6.4-2.2,12.7-5.1,18.6-8.4
	c1.9-0.9,3.5-2.2,4.8-3.8c1.6-2.2,1.8-5.1,1.7-7.8c0-9.1-1.9-18.2-1.5-27.3c0.2-5,1.2-10.1,0.7-15.1c-1.3-11.7-9.8-21.3-21.3-24
	c-5.8-1.2-11.8-0.6-17.7,0c-15.3,1.5-30.6,2.2-46,2.1c-15.7-0.1-31.3-2.5-46.9-2.7c-4.6-0.1-4.5,1.3-6,5.8
	C436.8,587.6,435.7,591.7,434.9,596z"/>
<path class="st5" d="M479.4,370.9c-0.8,3.9-1.6,8-3.9,11.3c-2.7,3.7-7.2,5.9-10.1,9.4c-4.4,5.4-4.7,12.9-4.7,19.9
	c0,6.4,0.1,13.2,3.7,18.6c2.3,3.5,5.8,5.9,9.3,8.2c13.4,9,27.9,18.2,44,18.5c6.7,0.1,13.9-1.6,18.3-6.6c1.9-2.4,3.4-5,4.4-7.9
	c4.1-10.2,6.6-21,7.4-31.9c0.4-5.2,0.3-10.5-1.4-15.3c-2-5.5-5.9-10-8.6-15.2c-3.1-6.2-4.2-13.1-3.2-20c0.1-0.5,0.1-1-0.1-1.4
	c-0.4-0.5-1.1-0.8-1.7-0.7l-32-2.3c-3-0.1-6-0.5-8.9-1c-1.7-0.4-6.3-2.8-7.9-2.2C480.8,353.4,480,367.6,479.4,370.9z"/>
<path class="st6" d="M479.4,370.9c-0.8,3.9-1.6,8-3.9,11.3c-2.7,3.7-7.2,5.9-10.1,9.4c-4.4,5.4-4.7,12.9-4.7,19.9
	c0,6.4,0.1,13.2,3.7,18.6c2.3,3.5,5.8,5.9,9.3,8.2c13.4,9,27.9,18.2,44,18.5c6.7,0.1,13.9-1.6,18.3-6.6c1.9-2.4,3.4-5,4.4-7.9
	c4.1-10.2,6.6-21,7.4-31.9c0.4-5.2,0.3-10.5-1.4-15.3c-2-5.5-5.9-10-8.6-15.2c-3.1-6.2-4.2-13.1-3.2-20c0.1-0.5,0.1-1-0.1-1.4
	c-0.4-0.5-1.1-0.8-1.7-0.7l-32-2.3c-3-0.1-6-0.5-8.9-1c-1.7-0.4-6.3-2.8-7.9-2.2C480.8,353.4,480,367.6,479.4,370.9z"/>
<circle class="st5" cx="510" cy="328.2" r="47"/>
<path class="st7" d="M486,433.5c2.4,2.6,5,5.1,8.3,6.6c3.3,1.4,6.8,2,10.3,2c8.5,0.2,17.7-1.3,23.6-7.4c7.6-7.9,7.3-20.5,13.3-29.7
	c0.5-0.8,1.1-1.5,1.9-2.1c1-0.5,2.1-0.8,3.3-0.8c7.5-0.1,14.1,4.8,20,9.5c2.6,2.1,5.4,4.2,7,7.2c1.2,2.3,2,4.7,2.4,7.3
	c2.9,14.3,3.9,29,4.8,43.6c0.5,8.1,1,16.1,1,24.2c-0.1,26.6-6.3,52.8-12.5,78.7c-0.8,3.3-1.9,7.1-4.9,8.7c-1.4,0.6-2.8,1-4.3,1
	c-17.6,2.1-35.3,4.1-53,4.4c-6.9,0.1-13.8-0.1-20.8-0.5c-1.2,0-2.4-0.2-3.5-0.6c-1.5-0.7-2.8-1.8-3.8-3.2
	c-9.6-12.1-10.2-28.8-10.1-44.2c0.1-37.7,1.5-75.4,4-113.1c0.2-3.1,0.3-6.9-2-9.3C475.1,422,480.7,428,486,433.5z"/>
<path class="st8" d="M476,379.2c-1.6,2.9-13.3,10-15.6,12.4c-12.6,13.3-35.7,12.8-47.2,27.1c-4.1,5-6.2,11.3-7.7,17.6
	c-2.2,8.9-3.4,18.5,0.3,26.9c3.5,8,11,13.6,16,20.8c5.6,7.9,8,17.5,10.4,26.8c1.8,6.9,3.5,14,2.9,21.1c-0.8,8.1-4.7,15.4-7,23.2
	s-2.7,17,2.6,23.1c3.9,4.5,10,6.3,15.9,7.3c7.5,1.1,15.1,1.8,22.7,2c6.7,0.3,14.1,0.4,19.2-3.9c4.1-3.4,5.8-8.9,6.1-14.2
	s-0.9-10.5-1.6-15.8c-0.7-5.4-1-10.9-1.2-16.4c-1-24.6-1.2-49.2-0.4-73.8c0.2-5.1,0.3-10.3-0.7-15.3c-1.4-6.6-5-12.5-8-18.5
	c-5.9-12-8.7-23.7-7.8-37C475.9,379,481.6,369,476,379.2z"/>
<path class="st8" d="M542,380.2c2.4,2.5,10.6,3.3,13.7,4.9c2.9,1.3,5.9,2.4,9,3.1c11.2,3.2,21.9,8.1,31.7,14.5
	c2,1.2,3.8,2.7,5.3,4.6c1.7,2.4,2.3,5.4,2.9,8.3c1.5,7.5,3,15,2.7,22.6c-0.4,8.1-2.8,15.9-5.2,23.6l-9,28.8
	c-6.7,21.5-13.5,43.2-15.4,65.7c-1,12.4-0.6,25,1.4,37.3c0.2,1.2,0.4,2.7-0.5,3.6c-0.6,0.6-1.4,0.9-2.2,1c-4.3,0.7-8.6-1.5-12.5-3.5
	c-12-6-24.9-10.2-38.2-12.5c5.2-7.5,9.2-15.7,11.9-24.4c1.5-5.5,2.7-11.1,3.6-16.8l4.2-24.2c1.7-8.9,2.9-17.8,3.6-26.8
	c0.3-3.4,0.1-6.8-0.6-10.1c-1-3.2-2.2-6.2-3.8-9.1c-6.9-14.4-10.2-30.8-7.4-46.5c1.2-6.9,3.5-13.8,2.5-20.7
	c-0.9-6.6,0-11.8-1.7-18.4C531,358.2,537.5,375.5,542,380.2z"/>
<path class="st8" d="M413.1,441.4c-3.1,6.5-8.4,12.1-10.2,19.1c-0.7,3.3-1,6.6-0.9,10c0,5.1-0.1,10.2,1.5,15c1,3.1,2.6,6,3.8,9
	c1.6,4.2,2.4,8.8,2.1,13.3c-0.3,6.3-2.5,12.4-2.6,18.7c-0.3,9.9,4.3,19.2,8.8,28.1c4.3-10.6,16.3-15.7,26.9-11.4
	c1.1,0.4,2.1,1,3.1,1.6c1.2-1.1,1.3-2.9,1.4-4.5c0.3-11.5,0.6-23,1-34.5c0.5-17.8,0.9-35.8-3.1-53.1c-1.8-7.8-4.7-15.6-10-21.7
	c-2.8-3.2-12.2-11.6-16.7-8c-2,1.6-1.6,6-1.9,8.2C415.7,434.8,414.6,438.2,413.1,441.4z"/>
<path class="st8" d="M608.2,422.5c1.5,4.6,1.6,9.6,1.6,14.5c0.1,9.9-0.1,19.9-0.4,29.8c-0.2,5.1-0.4,10.2-1.9,15.1
	c-1,3.2-2.6,6.2-3.6,9.4c-3.1,9.6-1.4,19.9-1.2,30c0.2,3.3-0.1,6.5-0.8,9.7c-1.7,6.2-6.1,11.3-9.2,16.9c-3,5.4-4.7,11.4-8.3,16.4
	s-9.7,9-15.6,7.4c-4.5-1.2-7.7-5.1-9.9-9.2c-4.8-9-6.5-19.3-4.7-29.3c2.2-12.2,9.4-23,12-35.2c3.6-16.7-1.8-33.8-1.7-50.9
	c-0.1-2.7,0.3-5.3,1.1-7.9c1.4-3.9,4.3-7,7-10.1c3.4-3.9,6.5-8,9.4-12.3c1.9-2.9,4.5-10.3,8-10.9
	C597.4,404.5,606.3,416.6,608.2,422.5z"/>
<path class="st3" d="M373.6,588.6c-4.2-1.1-8.6-1.5-12.9-1.4c-17.8,1-31.4,16.2-30.4,33.9c0.1,1.4,0.2,2.7,0.5,4
	c1.1,4.9,2.8,9.6,5.1,14c3.4,6.9,7.5,13.9,13.9,18.3c3.7,2.6,8,4.2,12.2,5.8l33.4,12.6c4.9,1.8,9.8,3.7,14.8,5.4
	c24.9,8.6,50.9,13.8,77.2,15.3c8,0.5,16.1,0.6,24-1.2c1.9-0.4,3.8-1.1,4.9-2.7c0.6-1.1,1-2.3,1.1-3.6l2.1-14.4
	c0.3-2,0.6-4.2-0.2-6.1c-0.9-2.4-3.3-3.9-5.5-5.2c-21.9-12.6-47.6-19.6-66-36.8c-4.3-4.1-8-10.5-13.3-13.3c-6-3.1-13-4.9-19.2-7.8
	C401.5,599.2,388.2,591.9,373.6,588.6z"/>
<path class="st6" d="M406.9,608c11.8,3.7,61.6,29.3,70.1,38.2c-1.1,0.4-40-21.3-41.1-21.7c-10.6-3.2-21.2-6.4-31.3-11
	c-2-0.9-13.1-5.3-12.6-7.9C392.5,602.7,404.8,607.3,406.9,608z"/>
<path class="st5" d="M554,704.1c0.7,0,1.3-0.1,1.9-0.6c0.5-0.6,0.7-1.4,0.6-2.2c0-6.5,0-13.1-0.1-19.6c-5.6-2.7-11.9-3.5-18.1-4.4
	l-28.8-3.9c0.7,0.1-4.5,12.4-3.7,14.1c1.4,2.9,12.1,5.5,15.1,6.8C531.3,699.3,542.2,704.5,554,704.1z"/>
<path class="st5" d="M463.5,681.7c-5.4,0.9-11.5,1.6-15.1,5.9c-4.5,5.4-2.6,13.4-0.4,20.1c0.3,1.3,1,2.6,1.9,3.6
	c1.5,1.4,3.7,1.6,5.7,1.8c5,0.3,10.3,0.6,14.6-1.9c2-1.3,3.9-2.7,5.7-4.2c3.2-2.1,6.7-3.7,10.4-4.8c6.8-2.1,13.8-3.6,20.9-4.3
	c2.8-0.1,5.6-0.6,8.2-1.5c2.6-1,5-2.9,5.8-5.6c1-3.6-1.1-7.2-3-10.3c-2.5-3.9-5.1-8-8.8-10.8c-5.4-4.2-8-1-13.4,1.7
	C485.7,676.4,474.8,679.9,463.5,681.7z"/>
<path class="st3" d="M449.3,686.6l-34.6-10.2c-4.2-1.2-8.5-2.5-12.9-2.5s-9,1.4-11.8,4.8c-2.7,3.1-3.4,7.4-4.1,11.5l-1.4,8.7
	c-0.7,4.4-1.5,9-0.8,13.4s2.9,8.9,6.9,11c4.8,2.6,10.7,1.3,16,0.2c10.8-2.2,21.8-3.4,32.8-3.5c4.1,0,8.5,0,12.1-1.9
	c4.3-2.3,6.9-7.2,7.4-12.1C459.5,698.7,457,688.9,449.3,686.6z"/>
<path class="st3" d="M567.6,677.7c4.5-0.8,8.4-3.3,12.7-4.8c6-2.1,12.6-2.1,19-2.1c2.4,0,4.9,0.1,6.8,1.4c2.8,1.9,3.5,5.6,4,9
	l2.9,20.2c0.5,3.8,1.1,7.7,0.2,11.5s-3.4,7.4-7.1,8.3c-4.5,1.2-9-1.7-13.2-3.6c-10.7-4.7-23.1-3.5-34.2-7.1
	c-2.1-0.7-4.3-1.7-5.1-3.7c-0.4-1.1-0.5-2.3-0.4-3.5c0.2-6.5-1.2-15.4,0.8-21.6C555.8,676.2,562.6,677.7,567.6,677.7z"/>
<path class="st3" d="M640.8,580.4c6.9-1.7,14.1-2.2,21.2-1.4c5.7,0.6,11.5,2.2,15.6,6.1c5,4.8,6.6,12.1,6.8,19.1
	c0.2,13.8-4.4,27.2-12.9,38c-2.1,2.7-4.6,5.1-7.4,7.1c-3,1.9-6.3,3.5-9.6,4.6l-74.7,29.5c-19.7,7.8-39.4,15.5-59.9,20.6
	c-2.3,1.1-5.1,0.1-6.2-2.2v-0.1c-6.5-9.4-12-19.4-16.4-30c-0.7-0.9-0.6-2.1,0.3-2.8c0.2-0.1,0.4-0.3,0.6-0.3l52.9-30.4
	c3.8-2.2,7.6-4.4,10.8-7.4c2.3-2.2,4.2-4.8,5.5-7.7c1.1-2.3,1.2-7.7,2.6-9.4c1.4-1.7,6.1-1.8,8.2-2.4c3.1-0.9,6-2.1,9-3.4
	c11.8-5.3,22.4-13,33.7-19.2C626.9,585.2,633.7,582.3,640.8,580.4z"/>
<path class="st6" d="M610.8,603.1c-9.1,6.8-20.8,13.1-29.8,20.1c-3.1,2.4-54.3,31.2-55,35c8.4,1.4,61.9-36,69.5-39.7
	s14.4-9,21.2-14.2c1.7-1.3,9-5.3,4.1-6.8C618,596.6,612.9,601.7,610.8,603.1z"/>
<polygon class="st3" points="561,286.5 520.6,265.4 464.8,274 453.2,325 482,323.9 490,305.2 490,323.6 503.3,323.1 511,293.3 
	515.8,325 563,324.1 "/>
<rect x="465" y="391.2" class="st0" width="87" height="105"/>
<path class="st5" d="M423.7,573.8c2,3,4.3,5.9,7.5,7.5c4.1,1.9,8.9,1.8,13-0.3c4-2.1,7.2-5.4,9.4-9.4c4.4-7.8,5.3-17,4.8-25.9
	s-2.4-17.7-3.3-26.5c-0.6-6.5-0.7-12.9-0.7-19.4c-0.2-1.4,0.1-2.7,0.8-3.9c1-1.3,2.8-1.7,4.3-2.2c8.9-2.6,14.8-10.9,19-19.2
	c2.8-5.5,5.3-11.5,4.7-17.7s-5-12.4-11.1-13c-5.1-0.5-9.7,2.7-13.4,6.2c-9.2,9-15.1,20.8-16.8,33.6c-0.8,6.3-0.6,12.7-2.3,18.8
	c-3.6,13-15,20.9-20.7,32.6C412.7,547.8,416.1,562.4,423.7,573.8z"/>
<path class="st5" d="M591,524.3c-2.6,6.1-7.6,10.8-13.7,13.2c-3.8,1.5-8,1.8-11.9,0.7c-4-1.1-7.2-4-8.8-7.8c-0.6-1.9-0.9-3.9-1-5.9
	c-0.6-8.7-0.3-17.8,2.8-25.9c1.2-3.2,2.9-6.1,3.8-9.4c1-3.7,1.4-7.6,1.4-11.4l1-23.9c0.2-1.7,0.1-3.5-0.4-5.2
	c-1-3.5-4.3-5.7-7.2-7.8c-7.2-5-14.2-10.8-17.7-18.8c-1.2-2.4-1.6-5.1-1.2-7.8c1-4.7,5.8-7.8,10.5-8.8c12.7-2.8,25.2,5.2,27.9,17.9
	c0.1,0.3,0.1,0.7,0.2,1c0.5,2.7,0.5,5.4,0.7,8.2c0.6,5.8,2.4,11.3,3.6,17c2.8,14,1.4,28.5,4.2,42.5
	C587.6,503.8,596.4,511.5,591,524.3z"/>
<path class="st3" d="M52.6,670.2h-2c0.8-22.2,3.1-44.4,7.1-66.3c8.6-46.9,23-77.7,42.7-91.5l1.1,1.6C55.6,546.3,52.7,669,52.6,670.2
	z"/>
<path class="st3" d="M77.6,669.7h-2c0-2.2,1.3-54.4,21.8-68.8l1.1,1.6C78.9,616.3,77.6,669.2,77.6,669.7z"/>
<circle class="st4" cx="113" cy="504.2" r="10"/>
<circle class="st4" cx="108" cy="590.2" r="10"/>
<path class="st3" d="M73,520.2c1.9,12-3,22.7-3,22.7s-7.9-8.7-9.8-20.7s3-22.7,3-22.7S71.1,508.2,73,520.2z"/>
<path class="st3" d="M105.7,549.3c-11.5,3.9-22.9,1-22.9,1S90,541,101.5,537s22.9-1,22.9-1S117.1,545.4,105.7,549.3z"/>
<path class="st3" d="M106,625.5c-5.2,1.6-10.7,1.9-16.1,0.7c6.9-8.8,18.3-12.7,29.2-10C115.7,620.4,111.1,623.6,106,625.5z"/>
<rect x="-105.2" y="263.4" class="st8" width="52.9" height="61.2"/>
<rect x="-105.2" y="325.4" class="st4" width="52.9" height="61.2"/>
<rect x="-105.2" y="385.9" class="st9" width="52.9" height="61.2"/>
<rect x="-105.2" y="447.3" class="st0" width="52.9" height="61.2"/>
</svg>
