<svg xmlns="http://www.w3.org/2000/svg" viewBox="0 0 403.12 290.17"><defs><style>.cls-1{fill:#3f3d56;}.cls-2{fill:#eaeaf4;}.cls-3{fill:#ededed;}.cls-4{fill:#edf2f4;}.cls-5{fill:#2f2e41;}.cls-6{fill:#ff6584;}.cls-7{fill:#ff6565;}.cls-8{fill:#ffb8b8;}.cls-9{opacity:0.1;isolation:isolate;}.cls-10{fill:#d0cde1;}.cls-11{fill:#ffd961;}.cls-12{fill:#312f42;}.cls-13{fill:#eb5d5d;}.cls-14{fill:#db5772;}.cls-15{fill:#e8945c;}.cls-16{fill:#ffa365;}.cls-17{fill:#e05959;}.cls-18{fill:#d6556f;}.cls-19{fill:#e35a5a;}</style></defs><g id="Layer_2" data-name="Layer 2"><g id="Layer_1-2" data-name="Layer 1"><ellipse class="cls-1" cx="198.4" cy="277.33" rx="102.36" ry="12.84"/><path class="cls-2" d="M23.79,206.39a17.48,17.48,0,0,1,1.18-9,17.59,17.59,0,0,1,3.88,8.19,17.41,17.41,0,0,1-1.19,9A17.62,17.62,0,0,1,23.79,206.39Z"/><path class="cls-2" d="M38.49,237.49l.43.63c-7.74,5.46-8.26,26.36-8.26,26.56h-.79C29.87,263.81,30.39,243.18,38.49,237.49Z"/><path class="cls-2" d="M20.78,264.88H20a183,183,0,0,1,2.81-26.2c3.4-18.54,9.09-30.71,16.88-36.17l.43.64C22,215.91,20.82,264.4,20.78,264.88Z"/><path class="cls-2" d="M35.53,247.49a11.19,11.19,0,0,1,11.54-4,12.16,12.16,0,0,1-5.18,3.67A12.47,12.47,0,0,1,35.53,247.49Z"/><path class="cls-2" d="M38.73,233.26a4,4,0,1,1,4,4A4,4,0,0,1,38.73,233.26Z"/><path class="cls-2" d="M41.77,217.1a17.74,17.74,0,0,1-9.05.39,17.78,17.78,0,0,1,7.39-5.25,17.18,17.18,0,0,1,9-.4A17.62,17.62,0,0,1,41.77,217.1Z"/><path class="cls-2" d="M40.7,199.27a4,4,0,1,1,4,3.95A4,4,0,0,1,40.7,199.27Z"/><path class="cls-2" d="M311,104.93a4.07,4.07,0,0,1,.44-1.85q3.39,2.3,6.68,4.74a4.08,4.08,0,0,1-3,1.26A4.15,4.15,0,0,1,311,104.93Z"/><path class="cls-2" d="M398,265.27v.4H4.34v-.4h147.1l-8.38-3.16a21.52,21.52,0,0,1-4.82-2.29c-2.53-1.74-4.15-4.51-5.49-7.23a22.82,22.82,0,0,1-2-5.54,11.2,11.2,0,0,1-.19-1.58,12.72,12.72,0,0,1,12-13.39,18.31,18.31,0,0,1,5.1.55c5.77,1.3,11,4.19,16.48,6.64,1.94.9,4.08,1.54,6.06,2.37.24-.52.47-1,.66-1.58a38.09,38.09,0,0,0,1-4.51c.31-1.7.75-3.32,1.18-4.9,0-.05,0-.1.05-.15l-.52-.23a5.72,5.72,0,0,1-2.18-.53,8.16,8.16,0,0,1-3-3,18.6,18.6,0,0,1-3-7.92c-.06.11-.1.22-.15.33-1.78-3.52-3.6-7.19-3.48-11.1,0-2.49.91-4.9,1-7.39a12.59,12.59,0,0,0-.83-5.26c-.48-1.19-1.11-2.33-1.5-3.56a18.37,18.37,0,0,1-.6-5.93,16.38,16.38,0,0,1,.36-3.95,7.94,7.94,0,0,1,.44-1.27,19.63,19.63,0,0,1,.59-8.29,17,17,0,0,1,3-7,15.71,15.71,0,0,1,6.18-4.31c-14-5.54-4.75-21.22,3.69-38.09l7.43-1.19,4.46-.72,16.21-2.61,1-.17,12.21-2,7.29-1.18,3.58-.58c7.79,13.27,3.23,30.64,4.14,41,0,.05,0,.09,0,.14.56.25,1.11.51,1.66.8l-1.88.72-8.07,3.07-.32.12-2.78,1.07-1.61.61-.05,0-3.35,1.28-.46.18h0l-.34.13-20.15,7.68-.47.18-4.38,1.67h0l-.75.29-2.81,1.08-7.51,2.86,7.51-1.87,2.74-.68,2.44-.61,3.69-.91,1.35-.34L210.57,169l1.59-.4,1.69-.42,1.86-.46,2.45-.61,8.28-2.06h0l.51-.13,3.42-.85,7-1.73,1-.26a14.42,14.42,0,0,1,.57,2.17s0,.05,0,.07a10.66,10.66,0,0,1,1.41,2.65,18.62,18.62,0,0,1,.63,5.73c0,3.92,0,7.87-.16,11.78a23.48,23.48,0,0,1-.75,6c-.39,1.26-1,2.45-1.42,3.71-1.23,3.8-.55,7.87-.48,11.86a14,14,0,0,1-.31,3.83c-.67,2.45-2.41,4.47-3.64,6.68s-1.86,4.51-3.28,6.49a8,8,0,0,1-2.85,2.49,60,60,0,0,0,.76,9.08,1.62,1.62,0,0,1-.2,1.43,1.51,1.51,0,0,1-.87.39,4.93,4.93,0,0,1-.54.05,10.64,10.64,0,0,1,.3,1.61,20,20,0,0,1-.09,3.71,8.24,8.24,0,0,0,1-.19,31.25,31.25,0,0,0,3.56-1.34c4.66-2.1,8.85-5.14,13.32-7.59a32.5,32.5,0,0,1,7.86-3.28,24.1,24.1,0,0,1,8.38-.56,10.37,10.37,0,0,1,6.17,2.42c2,1.89,2.6,4.78,2.68,7.54a23.77,23.77,0,0,1-5.09,15,14,14,0,0,1-2.93,2.81,18.08,18.08,0,0,1-3.79,1.82l-17.3,6.83H347.91a25.88,25.88,0,0,1,.89-12.82l-22.75-33.81s19.41,6.78,32,19.5c12.6-12.72,32-19.5,32-19.5l-22.75,33.81a25.88,25.88,0,0,1,.89,12.82Z"/><path class="cls-3" d="M170.41,229.74a8.16,8.16,0,0,1-3-3,18.6,18.6,0,0,1-3-7.92c-.06.11-.1.22-.15.33-1.78-3.52-3.6-7.19-3.48-11.1,0-2.49.91-4.9,1-7.39a12.59,12.59,0,0,0-.83-5.26c-.48-1.19-1.11-2.33-1.5-3.56a18.37,18.37,0,0,1-.6-5.93,16.38,16.38,0,0,1,.36-3.95,7.94,7.94,0,0,1,.44-1.27,19.63,19.63,0,0,1,.59-8.29,17,17,0,0,1,3-7,15.71,15.71,0,0,1,6.18-4.31c-14-5.54-4.75-21.22,3.69-38.09L47.26,143.35A196.3,196.3,0,0,0,4.34,265.27h147.1l-8.38-3.16a21.52,21.52,0,0,1-4.82-2.29c-2.53-1.74-4.15-4.51-5.49-7.23a22.82,22.82,0,0,1-2-5.54,11.2,11.2,0,0,1-.19-1.58,12.72,12.72,0,0,1,12-13.39,18.31,18.31,0,0,1,5.1.55c5.77,1.3,11,4.19,16.48,6.64,1.94.9,4.08,1.54,6.06,2.37.24-.52.47-1,.66-1.58a38.09,38.09,0,0,0,1-4.51c.31-1.7.75-3.32,1.18-4.9,0-.05,0-.1.05-.15l-.52-.23A5.72,5.72,0,0,1,170.41,229.74ZM44.66,195.32a4,4,0,1,1-4,4A4,4,0,0,1,44.66,195.32ZM25,197.41a17.59,17.59,0,0,1,3.88,8.19,17.41,17.41,0,0,1-1.19,9A16,16,0,0,1,25,197.41Zm-5,67.47a183,183,0,0,1,2.81-26.2c3.4-18.54,9.09-30.71,16.88-36.17l.43.64C22,215.91,20.82,264.4,20.78,264.88Zm9.88-.2c0-.87.52-21.5,8.62-27.19l.43.63c-7.74,5.46-8.26,26.36-8.26,26.56Zm8.86-31.42a4,4,0,1,1,4,4A4,4,0,0,1,38.73,233.26Zm3.16,14a12.47,12.47,0,0,1-6.36.28,11.19,11.19,0,0,1,11.54-4A12.16,12.16,0,0,1,41.89,247.21Zm-.12-30.11a17.74,17.74,0,0,1-9.05.39,17.78,17.78,0,0,1,7.39-5.25,17.18,17.18,0,0,1,9-.4A17.62,17.62,0,0,1,41.77,217.1Z"/><path class="cls-3" d="M331.27,118.41l-100,38.17s0,0,0,0c-.55-.29-1.1-.55-1.66-.8,0-.05,0-.09,0-.14-.91-10.33,3.65-27.7-4.14-41l83.34-13.41c.92.6,1.83,1.21,2.73,1.82a4.07,4.07,0,0,0-.44,1.85,4.15,4.15,0,0,0,4.15,4.15,4.08,4.08,0,0,0,3-1.26Q324.93,112.83,331.27,118.41Z"/><path class="cls-3" d="M368.22,265.27a25.88,25.88,0,0,0-.89-12.82l22.75-33.81s-19.41,6.78-32,19.5c-12.61-12.72-32-19.5-32-19.5l22.75,33.81a25.88,25.88,0,0,0-.89,12.82H241.37l17.3-6.83a18.08,18.08,0,0,0,3.79-1.82,14,14,0,0,0,2.93-2.81,23.77,23.77,0,0,0,5.09-15c-.08-2.76-.71-5.65-2.68-7.54a10.37,10.37,0,0,0-6.17-2.42,24.1,24.1,0,0,0-8.38.56,32.5,32.5,0,0,0-7.86,3.28c-4.47,2.45-8.66,5.49-13.32,7.59a31.25,31.25,0,0,1-3.56,1.34,8.24,8.24,0,0,1-1,.19,20,20,0,0,0,.09-3.71,10.64,10.64,0,0,0-.3-1.61,4.93,4.93,0,0,0,.54-.05,1.51,1.51,0,0,0,.87-.39,1.62,1.62,0,0,0,.2-1.43,60,60,0,0,1-.76-9.08A8,8,0,0,0,231,223c1.42-2,2.1-4.35,3.28-6.49s3-4.23,3.64-6.68a14,14,0,0,0,.31-3.83c-.07-4-.75-8.06.48-11.86.39-1.26,1-2.45,1.42-3.71a23.48,23.48,0,0,0,.75-6c.12-3.91.2-7.86.16-11.78a18.62,18.62,0,0,0-.63-5.73,10.66,10.66,0,0,0-1.41-2.65s0-.05,0-.07a14.42,14.42,0,0,0-.57-2.17l109.49-27.24A198.47,198.47,0,0,1,367,160l-35,26.2,39.56-18.73A195.7,195.7,0,0,1,398,265.27Z"/><path class="cls-3" d="M287.36,89.09c-21.18,4.37-46.2,9.65-72.5,15.28A33.86,33.86,0,0,0,201,100.11S189.1,98.59,179.34,112c-47.52,10.24-95.42,20.69-129.43,28.13a197,197,0,0,1,237.45-51Z"/><path class="cls-2" d="M214.86,104.37l-7.18,1.53L183,111.19l-3.69.79C189.1,98.59,201,100.11,201,100.11A33.86,33.86,0,0,1,214.86,104.37Z"/><circle class="cls-4" cx="326.09" cy="102.13" r="5.89"/><path class="cls-4" d="M319.33,104.93a4.16,4.16,0,0,1-4.15,4.15,4.15,4.15,0,0,1-4.15-4.15,4.07,4.07,0,0,1,.44-1.85,4.15,4.15,0,0,1,7.86,1.85Z"/><circle class="cls-4" cx="46.95" cy="117.74" r="12.33" transform="translate(-76.79 145.22) rotate(-80.78)"/><path class="cls-4" d="M32.72,123.63A8.66,8.66,0,1,1,24.06,115,8.66,8.66,0,0,1,32.72,123.63Z"/><rect class="cls-5" y="265.27" width="403.12" height="0.79"/><path class="cls-1" d="M368.22,265.27H357.43l-8.63-12.82-22.75-33.81s19.41,6.78,32,19.5a37.16,37.16,0,0,1,9.26,14.31A25.88,25.88,0,0,1,368.22,265.27Z"/><path class="cls-6" d="M390.07,218.65l-35.89,46.62h-6.27a25.88,25.88,0,0,1,.89-12.82,37.07,37.07,0,0,1,9.27-14.31C370.47,225.62,389.48,218.85,390.07,218.65Z"/><path class="cls-1" d="M321.51,265.27h-5.16l-4.14-6.62-10.89-17.44s9.3,3.5,15.33,10.06a19.49,19.49,0,0,1,4.44,7.38A14.3,14.3,0,0,1,321.51,265.27Z"/><path class="cls-7" d="M332,243.3l-16.66,22h-3.53a12.07,12.07,0,0,1,.42-6,17.62,17.62,0,0,1,4.44-6.74C322.69,246.5,332,243.3,332,243.3Z"/><path class="cls-3" d="M82.2,52.49c0,1.7-1.62,3.16-4,3.91-.24,1.9-9.8,4.39-22.88,4.39a116.49,116.49,0,0,1-18.93-1.31c-6.05-.51-10.68-3.47-10.68-7,0-3.91,5.62-7.12,12.53-7.12a18.74,18.74,0,0,1,5.38.68c2.41-3.24,8-5.54,14.62-5.54,7.75,0,14.19,3.17,15.53,7.35H74C78.53,47.82,82.2,49.92,82.2,52.49Z"/><path class="cls-3" d="M279.81,54.46c0,1.7-1.62,3.17-4,3.92-.24,1.89-9.8,4.38-22.88,4.38A116.68,116.68,0,0,1,234,61.46c-6.05-.51-10.68-3.48-10.68-7,0-3.91,5.62-7.11,12.53-7.11a19.09,19.09,0,0,1,5.38.67c2.41-3.24,8-5.53,14.62-5.53,7.75,0,14.19,3.16,15.53,7.35h.28C276.14,49.8,279.81,51.9,279.81,54.46Z"/><path class="cls-3" d="M390.08,21c0,3-2.81,5.61-7,7-.43,3.28-17.23,7.67-40.19,7.67-13.56,0-25.57-.91-33.28-2.33C299,32.49,290.88,27.31,290.88,21c0-6.92,9.84-12.53,22-12.53a36.31,36.31,0,0,1,9.45,1.23C326.53,4,336.45,0,348,0c13.55,0,24.86,5.54,27.27,12.89h.47C383.63,12.89,390.08,16.52,390.08,21Z"/><path class="cls-5" d="M229.54,155.64c0,.05,0,.09,0,.14a3.77,3.77,0,0,1-.22,1.52c-.7,1.8-2.9,3-6.19,3.82l-.93.22h0c-1.22.26-2.58.47-4,.65-.52.07-1.06.13-1.61.18h-.05q-1.53.15-3.21.27h-.06l-.42,0c-7.05.47-15.65.49-24.46.77l-.66,0c-1.3,0-2.61.07-3.92,0-.56,0-1.13,0-1.69,0-1,0-2.06-.09-3.09-.16l-1-5.45-1.27-6.84-2.77,8.6-.91,2.82a23.26,23.26,0,0,1-3.54-1.07c-14-5.54-4.75-21.22,3.69-38.09.66-1.31,1.31-2.64,2-4a46.1,46.1,0,0,1,4.22-7.14C189.1,98.59,201,100.11,201,100.11a33.86,33.86,0,0,1,13.86,4.26,28,28,0,0,1,10.49,10.21.41.41,0,0,1,.05.09C233.19,127.94,228.63,145.31,229.54,155.64Z"/><path class="cls-5" d="M227.21,257.92a5.35,5.35,0,0,1-1.9,1.5,44.12,44.12,0,0,1-7.35,3.32,41.34,41.34,0,0,1-8.16,1.82h0c-1.45.19-2.9.32-4.37.39q-1.81.1-3.63.12c-1.72,0-3.44,0-5.16,0h-.27c-1.22,0-2.44-.06-3.66-.1-1.93-.05-3.9-.12-5.84-.36h0a25.75,25.75,0,0,1-3.27-.59,21.82,21.82,0,0,1-10.63-6.32c-2.94-3.19-4.93-7.69-4.21-11.92a9.12,9.12,0,0,1,.34-1.44,2.47,2.47,0,0,1,.1-.29,24.69,24.69,0,0,1,1-2.36c.24-.52.47-1,.66-1.58a38.09,38.09,0,0,0,1-4.51c.31-1.7.75-3.32,1.18-4.9,0-.05,0-.1.05-.15s0-.16.07-.23c.48-1.48.58-2,2.25-1.91.62,0,1.24,0,1.86,0,3.78.14,7.56.55,11.36.8,1.77.12,3.54.21,5.32.22h.18c4.82,0,9.61-.15,14.4-.52,1.2-.09,2.4-.19,3.6-.31a22.76,22.76,0,0,1,7,0,10.77,10.77,0,0,1,3.31,1.37,10.93,10.93,0,0,1,4.81,6.5,10.64,10.64,0,0,1,.3,1.61,20,20,0,0,1-.09,3.71h0c-.08.76-.15,1.51-.18,2.25a31.43,31.43,0,0,0,.09,3.63c0,.56.09,1.12.14,1.68.17,1.83.36,3.65.36,5.48A4.88,4.88,0,0,1,227.21,257.92Z"/><path class="cls-8" d="M189.46,146.59a11.72,11.72,0,0,1-1.54,4.47c-1.06,1.46-2.84,2.33-4,3.71-1.74,2.13-1.86,5.1-1.86,7.87,0,2.52,0,5.21,1.47,7.35a12,12,0,0,0,3.67,3.24c5.3,3.55,11,7.19,17.39,7.31,2.65,0,5.49-.63,7.23-2.61a10.53,10.53,0,0,0,1.74-3.12,42.26,42.26,0,0,0,2.93-12.61,14.8,14.8,0,0,0-.56-6c-.79-2.17-2.33-4-3.4-6a13.32,13.32,0,0,1-1.26-7.91.85.85,0,0,0,0-.55.74.74,0,0,0-.67-.28l-12.65-.91a25.79,25.79,0,0,1-3.52-.39c-.67-.16-2.49-1.11-3.12-.87C190,139.67,189.7,145.29,189.46,146.59Z"/><path class="cls-9" d="M189.46,146.59a11.72,11.72,0,0,1-1.54,4.47c-1.06,1.46-2.84,2.33-4,3.71-1.74,2.13-1.86,5.1-1.86,7.87,0,2.52,0,5.21,1.47,7.35a12,12,0,0,0,3.67,3.24c5.3,3.55,11,7.19,17.39,7.31,2.65,0,5.49-.63,7.23-2.61a10.53,10.53,0,0,0,1.74-3.12,42.26,42.26,0,0,0,2.93-12.61,14.8,14.8,0,0,0-.56-6c-.79-2.17-2.33-4-3.4-6a13.32,13.32,0,0,1-1.26-7.91.85.85,0,0,0,0-.55.74.74,0,0,0-.67-.28l-12.65-.91a25.79,25.79,0,0,1-3.52-.39c-.67-.16-2.49-1.11-3.12-.87C190,139.67,189.7,145.29,189.46,146.59Z"/><path class="cls-8" d="M201.56,111.14a18.56,18.56,0,0,1,18.57,18.57c0,10.26-10,19.51-18.57,19.58-8.93.08-18.58-9.32-18.58-19.58A18.57,18.57,0,0,1,201.56,111.14Z"/><path class="cls-10" d="M192.07,171.33a8.76,8.76,0,0,0,7.35,3.4c3.36.08,7-.51,9.33-2.93,3-3.12,2.89-8.1,5.26-11.73a2.69,2.69,0,0,1,.75-.83,2.84,2.84,0,0,1,1.3-.32c3,0,5.57,1.9,7.91,3.76a10.08,10.08,0,0,1,2.76,2.84,9.1,9.1,0,0,1,1,2.89,125.6,125.6,0,0,1,1.9,17.23c.2,3.2.39,6.36.39,9.56,0,10.51-2.49,20.87-4.94,31.11-.31,1.3-.75,2.8-1.93,3.43a4.27,4.27,0,0,1-1.7.4,207.36,207.36,0,0,1-21,1.74c-2.73,0-5.45,0-8.22-.2a4,4,0,0,1-1.38-.24,3.73,3.73,0,0,1-1.5-1.26c-3.8-4.78-4-11.38-4-17.47,0-14.9.6-29.8,1.58-44.7.08-1.22.12-2.73-.79-3.67A52,52,0,0,0,192.07,171.33Z"/><path class="cls-11" d="M241,172.71c0,3.92,0,7.87-.16,11.78a23.48,23.48,0,0,1-.75,6c-.39,1.26-1,2.45-1.42,3.71-1.23,3.8-.55,7.87-.48,11.86a14,14,0,0,1-.31,3.83c-.67,2.45-2.41,4.47-3.64,6.68s-1.86,4.51-3.28,6.49a8,8,0,0,1-2.85,2.49,60,60,0,0,0,.76,9.08,1.62,1.62,0,0,1-.2,1.43,1.51,1.51,0,0,1-.87.39,4.93,4.93,0,0,1-.54.05,9.46,9.46,0,0,1-4.4-1.43,53.5,53.5,0,0,0-10.41-3.91c-1.54-.42-3.11-.76-4.69-1,.27-.39.54-.79.79-1.19a35.28,35.28,0,0,0,3.92-8.45,64.2,64.2,0,0,0,1.42-6.64l1.66-9.57c.52-2.71.91-5.41,1.19-8.14.09-.81.17-1.63.23-2.45a13.33,13.33,0,0,0-.24-4,19,19,0,0,0-1.5-3.6,33.79,33.79,0,0,1-2.88-8.86,27.87,27.87,0,0,1-.19-8.6l.15-.92c.12-.69.27-1.38.41-2.08s.31-1.43.43-2.14c0-.34.1-.68.14-1a.28.28,0,0,0,0-.09,9.64,9.64,0,0,0,.08-1.19,9.19,9.19,0,0,0-.08-1.66c-.24-1.78-.16-3.29-.29-4.9a13.14,13.14,0,0,0-.39-2.37c-.7-2.72-1.05-4.29-1.16-5.11a.77.77,0,0,1,0-.15.11.11,0,0,1,0,0c-.21-2,1.49,2,2.77,3.34,1,1,4.19,1.3,5.42,1.93a18.74,18.74,0,0,0,3.56,1.23,44.26,44.26,0,0,1,6.37,2.35c.56.25,1.11.51,1.66.8h0a45.21,45.21,0,0,1,4.48,2.58,7.42,7.42,0,0,1,2.1,1.82,4.88,4.88,0,0,1,.58,1.11,14.42,14.42,0,0,1,.57,2.17s0,.05,0,.07a10.66,10.66,0,0,1,1.41,2.65A18.62,18.62,0,0,1,241,172.71Z"/><path class="cls-11" d="M195.47,225a8.79,8.79,0,0,1-1.32,4.39,5.48,5.48,0,0,1-1.09,1.22,5.84,5.84,0,0,1-1.61.95h0a14.53,14.53,0,0,1-6,.59,72.71,72.71,0,0,1-9-.79,16.62,16.62,0,0,1-3.39-.9l-.52-.23a7.17,7.17,0,0,1-2.37-1.75c-2.1-2.41-1.94-6.05-1-9.13.53-1.78,1.26-3.5,1.86-5.26a8.12,8.12,0,0,0-6.65,4.73c-.06.11-.1.22-.15.33-1.78-3.52-3.6-7.19-3.48-11.1,0-2.49.91-4.9,1-7.39a12.59,12.59,0,0,0-.83-5.26c-.48-1.19-1.11-2.33-1.5-3.56a18.37,18.37,0,0,1-.6-5.93,16.38,16.38,0,0,1,.36-3.95,7.94,7.94,0,0,1,.44-1.27,19.63,19.63,0,0,1,.59-8.29,17,17,0,0,1,3-7,15.71,15.71,0,0,1,6.18-4.31c1.44-.63,3-1.17,4.45-1.75a37.6,37.6,0,0,0,4-1.76,14.56,14.56,0,0,0,4-2.89c.91-1,5.54-3.75,6.17-4.9,1.18-2.15,1.09-2,.69-.64,0,0,0,0,0,.06a30,30,0,0,0-1,5.32c0,.19,0,.37-.05.56a26.62,26.62,0,0,0,.66,8.08,31.45,31.45,0,0,0,2.42,6.54l.19.38.76,1.47c.32.6.63,1.21.92,1.83a16.36,16.36,0,0,1,1.29,3.63c0,.1,0,.2,0,.3a26.31,26.31,0,0,1,.23,5.75q-.21,6.48-.2,13,0,8.1.35,16.2c.08,2.18.2,4.35.48,6.49A33,33,0,0,1,195.47,225Z"/><path class="cls-5" d="M205.44,265.27c0,.13,0,.26,0,.4s0,.26,0,.39,0,.38-.08.56v.05l-.36,2.51-.46,3.13a3.62,3.62,0,0,1-.43,1.42l0,0a3,3,0,0,1-1.91,1c-.22.05-.44.1-.66.13a34.29,34.29,0,0,1-8.82.34,110.77,110.77,0,0,1-12.2-1.37c-1.34-.22-2.68-.47-4-.75a113,113,0,0,1-14.31-3.92c-2-.68-3.91-1.43-5.84-2.14l-.39-.15-2.34-.88-.64-.24-.4-.15-1.06-.4-8.38-3.16a21.52,21.52,0,0,1-4.82-2.29c-2.53-1.74-4.15-4.51-5.49-7.23a22.82,22.82,0,0,1-2-5.54,11.2,11.2,0,0,1-.19-1.58,12.72,12.72,0,0,1,12-13.39,18.31,18.31,0,0,1,5.1.55c5.77,1.3,11,4.19,16.48,6.64,1.94.9,4.08,1.54,6.06,2.37.53.22,1,.46,1.53.71,2.09,1.11,3.56,3.64,5.25,5.26.45.42.9.82,1.37,1.2a48.43,48.43,0,0,0,9.45,5.92h0c4.6,2.29,9.45,4.24,14,6.7l1.28.71a4.58,4.58,0,0,1,2.17,2.06c0,.1.08.2.11.3s.06.29.08.44S205.44,265.16,205.44,265.27Z"/><path class="cls-9" d="M160.81,240.3c4.66,1.46,24.35,11.58,27.71,15.09-.44.16-15.81-8.41-16.25-8.57a98,98,0,0,1-12.37-4.35c-.79-.36-5.18-2.09-5-3.12S160,240,160.81,240.3Z"/><path class="cls-8" d="M219,278.28a1.07,1.07,0,0,0,.75-.24,1.16,1.16,0,0,0,.24-.87c0-2.57,0-5.18,0-7.75a24.78,24.78,0,0,0-7.16-1.74l-11.38-1.54c.28,0-1.78,4.9-1.46,5.58.55,1.14,4.78,2.17,6,2.68C210,276.38,214.28,278.43,219,278.28Z"/><path class="cls-8" d="M183.18,269.42c-2.13.36-4.55.64-6,2.34-1.78,2.13-1,5.29-.16,7.94a3.36,3.36,0,0,0,.75,1.42,3.73,3.73,0,0,0,2.26.71c2,.12,4.07.24,5.77-.75a21.75,21.75,0,0,0,2.25-1.66,15.49,15.49,0,0,1,4.11-1.89,41.5,41.5,0,0,1,8.26-1.7,11.05,11.05,0,0,0,3.24-.6A3.6,3.6,0,0,0,206,273c.4-1.42-.43-2.85-1.18-4.07a16,16,0,0,0-3.48-4.27c-2.13-1.66-3.16-.39-5.3.67A45.67,45.67,0,0,1,183.18,269.42Z"/><path class="cls-5" d="M177.57,271.36l-13.68-4a18.59,18.59,0,0,0-5.1-1,6,6,0,0,0-4.66,1.9,9,9,0,0,0-1.62,4.54l-.55,3.44a16.92,16.92,0,0,0-.32,5.3,5.81,5.81,0,0,0,2.73,4.34c1.9,1,4.23.52,6.32.08a68.15,68.15,0,0,1,13-1.38,10.29,10.29,0,0,0,4.79-.75,6.11,6.11,0,0,0,2.92-4.78C181.6,276.14,180.61,272.27,177.57,271.36Z"/><path class="cls-5" d="M224.32,267.84c1.78-.31,3.32-1.3,5-1.89a22.74,22.74,0,0,1,7.51-.83,4.75,4.75,0,0,1,2.69.55c1.1.75,1.38,2.21,1.58,3.56l1.14,8a12.38,12.38,0,0,1,.08,4.54,4.21,4.21,0,0,1-2.8,3.29c-1.78.47-3.56-.68-5.22-1.43-4.23-1.86-9.13-1.38-13.52-2.8a3,3,0,0,1-2-1.47,3.2,3.2,0,0,1-.16-1.38c.08-2.57-.47-6.09.32-8.54C219.66,267.25,222.35,267.84,224.32,267.84Z"/><path class="cls-5" d="M270.48,238.79a23.77,23.77,0,0,1-5.09,15,14,14,0,0,1-2.93,2.81,18.08,18.08,0,0,1-3.79,1.82l-17.3,6.83-.88.35-.13.05-.55.22-.44.17-10.23,4c-3.06,1.21-6.13,2.42-9.21,3.56l-1.39.5c-2.5.91-5,1.77-7.55,2.54-1.82.56-3.66,1.08-5.52,1.54a1.85,1.85,0,0,1-2.45-.87v0c-.38-.54-.74-1.09-1.1-1.65-.16-.25-.32-.5-.47-.75a62.42,62.42,0,0,1-4.66-8.87c-.06-.13-.11-.26-.16-.39l-.09-.2a.82.82,0,0,1-.12-.2.45.45,0,0,1,0-.11.58.58,0,0,1,0-.14.7.7,0,0,1,.17-.53.8.8,0,0,1,.13-.13c.08,0,.15-.11.23-.11l4.89-2.81,16-9.21a23.2,23.2,0,0,0,4.27-2.92,9.66,9.66,0,0,0,2.17-3.05c.44-.91.48-3,1-3.71a3.9,3.9,0,0,1,2.2-.75h0a8.24,8.24,0,0,0,1-.19,31.25,31.25,0,0,0,3.56-1.34c4.66-2.1,8.85-5.14,13.32-7.59a32.5,32.5,0,0,1,7.86-3.28,24.1,24.1,0,0,1,8.38-.56,10.37,10.37,0,0,1,6.17,2.42C269.77,233.14,270.4,236,270.48,238.79Z"/><path class="cls-9" d="M241.4,238.36c-3.6,2.69-8.23,5.18-11.78,7.94-1.23.95-21.46,12.33-21.74,13.84,3.32.55,24.46-14.23,27.47-15.69a51.33,51.33,0,0,0,8.38-5.62c.67-.51,3.55-2.09,1.62-2.68C244.24,235.79,242.23,237.81,241.4,238.36Z"/><polygon class="cls-5" points="221.71 113.23 205.75 104.89 183.69 108.29 179.11 128.45 190.49 128.01 193.65 120.62 193.65 127.9 198.91 127.7 201.95 115.92 203.85 128.45 222.5 128.09 221.71 113.23"/><path class="cls-12" d="M218.16,156.21v38.3a1.6,1.6,0,0,1-1.6,1.6H185.37a1.59,1.59,0,0,1-1.4-.83,1.54,1.54,0,0,0,.61.12h31.19a1.6,1.6,0,0,0,1.6-1.59V155.5a1.46,1.46,0,0,0-.21-.77A1.59,1.59,0,0,1,218.16,156.21Z"/><path class="cls-1" d="M217.37,155.5v38.31a1.6,1.6,0,0,1-1.6,1.59H184.58a.67.67,0,0,1-.81-.89v-38.3a1.6,1.6,0,0,1,1.6-1.6h31.19a1.5,1.5,0,0,1,.6.12A1.46,1.46,0,0,1,217.37,155.5Z"/><path class="cls-8" d="M189.11,187.53a20.08,20.08,0,0,1-3.39,5,10.26,10.26,0,0,1-1.95,1.6,8.4,8.4,0,0,1-2.17,1,3.38,3.38,0,0,0-1.7.87,2.32,2.32,0,0,0-.32,1.54c0,2.57,0,5.1.28,7.67.36,3.48,1.11,7,1.3,10.47a18.56,18.56,0,0,1-1.89,10.24,9.31,9.31,0,0,1-2,2.5,8.13,8.13,0,0,1-1.74,1.22,5.86,5.86,0,0,1-2.37.64h-.59a5.72,5.72,0,0,1-2.18-.53,8.16,8.16,0,0,1-3-3,18.6,18.6,0,0,1-3-7.92,13,13,0,0,1,1.15-7.41c1.44-2.95,3.79-5.29,5.67-7.92a15.83,15.83,0,0,0,2.51-5c.68-2.41.6-4.94.91-7.43a22.83,22.83,0,0,1,2.08-6.92h0a22.58,22.58,0,0,1,4.56-6.35,11.23,11.23,0,0,1,2.49-1.84,4.92,4.92,0,0,1,2.71-.61h.1c2.41.24,4.15,2.69,4.39,5.14S190.21,185.36,189.11,187.53Z"/><path class="cls-8" d="M233.57,207.22a9.74,9.74,0,0,1-5.41,5.21,7.4,7.4,0,0,1-4.71.28,5.32,5.32,0,0,1-3.48-3.08,9.63,9.63,0,0,1-.39-2.33,24.05,24.05,0,0,1,1.11-10.24c.47-1.27,1.14-2.41,1.5-3.72a17.55,17.55,0,0,0,.55-4.5l.4-9.45a5.1,5.1,0,0,0-.16-2c-.4-1.39-1.7-2.25-2.85-3.08-2.84-2-5.61-4.27-7-7.44a5.09,5.09,0,0,1-.48-3.08c.4-1.86,2.3-3.08,4.15-3.48a9.23,9.23,0,0,1,11,7.08c0,.12,0,.28.08.39a28.89,28.89,0,0,1,.28,3.24,61.73,61.73,0,0,0,1.42,6.72c1.1,5.54.55,11.27,1.66,16.8C232.23,199.11,235.7,202.16,233.57,207.22Z"/><path class="cls-5" d="M40.11,203.15C22,215.91,20.82,264.4,20.78,264.88H20a183,183,0,0,1,2.81-26.2c3.4-18.54,9.09-30.71,16.88-36.17Z"/><path class="cls-5" d="M38.92,238.12c-7.74,5.46-8.26,26.36-8.26,26.56h-.79c0-.87.52-21.5,8.62-27.19Z"/><path class="cls-13" d="M48.61,199.27a4,4,0,0,1-7.72,1.21A4,4,0,0,0,48,198.12a4,4,0,0,0-.19-1.21A3.91,3.91,0,0,1,48.61,199.27Z"/><path class="cls-7" d="M48,198.12a4,4,0,0,1-7.13,2.36,4,4,0,0,1-.19-1.21,4,4,0,0,1,7.13-2.36A4,4,0,0,1,48,198.12Z"/><path class="cls-14" d="M46.63,233.26a4,4,0,0,1-7.26,2.16,3.89,3.89,0,0,0,2.63,1,4,4,0,0,0,3.31-6.11A3.92,3.92,0,0,1,46.63,233.26Z"/><path class="cls-6" d="M46,232.48a4,4,0,0,1-4,4,3.89,3.89,0,0,1-2.63-1,4,4,0,0,1,3.31-6.11,3.89,3.89,0,0,1,2.63,1A4,4,0,0,1,46,232.48Z"/><path class="cls-5" d="M27.66,214.57A16,16,0,0,1,25,197.41a17.59,17.59,0,0,1,3.88,8.19A17.41,17.41,0,0,1,27.66,214.57Z"/><path class="cls-5" d="M49.16,211.84a17.62,17.62,0,0,1-7.39,5.26,17.74,17.74,0,0,1-9.05.39,17.78,17.78,0,0,1,7.39-5.25A17.18,17.18,0,0,1,49.16,211.84Z"/><path class="cls-5" d="M47.07,243.54a12.16,12.16,0,0,1-5.18,3.67,12.47,12.47,0,0,1-6.36.28A11.19,11.19,0,0,1,47.07,243.54Z"/><path class="cls-5" d="M107.56,246.37a6.24,6.24,0,0,1-.74,3.16,6.32,6.32,0,0,1-2.33,2.26A5.71,5.71,0,0,1,107.56,246.37Z"/><path class="cls-5" d="M70.39,222.3c-12.51,8.8-13.3,42.25-13.33,42.58h-.55a125.89,125.89,0,0,1,1.94-18.07C60.8,234,64.72,225.63,70.1,221.86Z"/><path class="cls-5" d="M99,246.42c5.34,3.77,5.7,18.18,5.7,18.32h.54c0-.6-.36-14.83-5.94-18.75Z"/><path class="cls-15" d="M76.25,219.63a2.73,2.73,0,0,1-5.28,1A2.73,2.73,0,0,0,75.68,218,2.79,2.79,0,0,1,76.25,219.63Z"/><path class="cls-16" d="M75.85,218.9A2.74,2.74,0,0,1,71,220.59a2.77,2.77,0,0,1-.17-1A2.73,2.73,0,0,1,75.68,218,2.75,2.75,0,0,1,75.85,218.9Z"/><path class="cls-17" d="M99.08,243.07a2.72,2.72,0,0,1-4.91,1.62,2.77,2.77,0,0,0,1.6.51,2.72,2.72,0,0,0,2.72-2.72,2.69,2.69,0,0,0-.53-1.6A2.69,2.69,0,0,1,99.08,243.07Z"/><path class="cls-7" d="M98.49,242.48a2.72,2.72,0,0,1-2.72,2.72,2.77,2.77,0,0,1-1.6-.51,2.67,2.67,0,0,1-.54-1.62,2.72,2.72,0,0,1,2.73-2.72,1.88,1.88,0,0,1,2.13,2.13Z"/><path class="cls-5" d="M61.8,230.18A11.09,11.09,0,0,1,60,218.34,12.19,12.19,0,0,1,62.63,224,12.06,12.06,0,0,1,61.8,230.18Z"/><path class="cls-5" d="M76.63,228.3a11,11,0,0,1-11.34,3.89,12.3,12.3,0,0,1,5.1-3.62A11.77,11.77,0,0,1,76.63,228.3Z"/><path class="cls-5" d="M75.16,242.2a11,11,0,0,1-10.4-6,12.3,12.3,0,0,1,6.08,1.46A12,12,0,0,1,75.16,242.2Z"/><path class="cls-5" d="M93.33,250.16a8.39,8.39,0,0,0,3.57,2.53,8.6,8.6,0,0,0,4.39.2A7.71,7.71,0,0,0,93.33,250.16Z"/><polygon class="cls-18" points="390.07 218.65 358.7 265.27 354.18 265.27 390.07 218.65"/><polygon class="cls-19" points="331.98 243.3 316.95 265.27 315.32 265.27 331.98 243.3"/></g></g></svg>