<svg xmlns="http://www.w3.org/2000/svg" viewBox="0 0 376.07 288.31"><defs><style>.cls-1{fill:#f2e6e8;}.cls-2{fill:#dfdee3;}.cls-3{fill:none;stroke:#3f3d56;stroke-miterlimit:10;stroke-width:4px;}.cls-4{fill:#71b79d;}.cls-5{opacity:0.1;}.cls-5,.cls-7,.cls-9{isolation:isolate;}.cls-6{fill:#656380;}.cls-7{opacity:0.2;}.cls-8{fill:#ffcb7d;}.cls-9{opacity:0.05;}.cls-10{fill:#3f3d56;}.cls-11{fill:#ffd4d9;}.cls-12{fill:#5e5b80;}.cls-13{fill:#605d82;}.cls-14{fill:#535070;}.cls-15{fill:#ffd6da;}.cls-16{fill:#ffc4ca;}.cls-17{fill:#39384f;}</style></defs><g id="Layer_2" data-name="Layer 2"><g id="Layer_1-2" data-name="Layer 1"><path class="cls-1" d="M270.67,165.39l3-1.83c.28-.17.56-.37.85-.54A28.27,28.27,0,0,1,271.62,108l-.15,11.64,6.4-12.67a.11.11,0,0,1,.08,0,28.26,28.26,0,0,1,29.55,26.91h0c0,.54,0,1.07,0,1.59a34.08,34.08,0,0,0,5.58-8.25c2.71-6,2.77-12.88,2.55-21.19-.43-16.48-1.14-33.08-2.06-49.64a28.24,28.24,0,0,1-25.1-26.73c0-.87,0-1.72,0-2.57a4.43,4.43,0,0,1,0-.63c.06-.82.13-1.63.26-2.43a2.57,2.57,0,0,1,.07-.4q.18-1,.42-2c.06-.25.12-.5.19-.74a20.21,20.21,0,0,1,.67-2.13c.08-.24.18-.46.27-.69.2-.52.42-1,.65-1.53.12-.26.24-.53.37-.79l.09-.2h0A28.23,28.23,0,0,1,324.67,1.16l-.19,15.15,6.34-12.52a28.09,28.09,0,0,1,13.47,30.45h0c0,.21-.11.4-.16.6-.08.37-.18.74-.28,1.11s-.29.93-.44,1.4-.23.69-.36,1c-.19.5-.4,1-.63,1.48-.13.28-.24.57-.4.85-.36.73-.75,1.44-1.18,2.14-.15.24-.32.47-.47.71-.3.47-.61.93-.94,1.39-.2.27-.42.54-.63.81s-.63.79-1,1.16l-.71.79c-.35.36-.7.71-1.07,1.06s-.49.47-.74.69c-.42.37-.85.72-1.29,1.07l-.67.52c-.67.5-1.36,1-2.07,1.4l-.4.22c-.59.36-1.19.69-1.82,1-.27.13-.55.24-.82.36-.51.23-1,.45-1.55.66l-.93.33c-.52.17-1.05.34-1.59.48-.31.09-.63.18-.95.25-.58.14-1.17.26-1.76.36a.25.25,0,0,0-.12,0q.6,10.47,1.05,21a28.24,28.24,0,0,1,37.76-13c.49.24,1,.5,1.45.77l-5,13.68,10.27-9.86a28.26,28.26,0,1,1-43.56,35c0,.71.05,1.42.07,2.13.18,7.34.42,16.46-3.24,24.61-2.47,5.53-6.46,10-10.4,14q-3.85,3.93-8,7.6a28.32,28.32,0,0,1-10.2,8.49q-6.72,5.16-13.91,9.68l-2.91,1.88c-2.69,1.67-5.45,3.38-8.15,5.15.47-.05.95-.1,1.43-.12a28.27,28.27,0,0,1,27.82,18.39l-17.66,14.38,19.41-4.5a28.28,28.28,0,0,1-40.51,25.45l1.31,1.63c.87,1.08,1.73,2.15,2.57,3.22,11.49,14.55,14.69,28.36,9,38.9l-6.92-3.74c5.55-10.25-2.77-23.37-8.25-30.29-.83-1-1.67-2.1-2.53-3.17-7.34-9.11-15.66-19.46-15.45-32.14C237.19,186.14,255.76,174.63,270.67,165.39Z"/><ellipse class="cls-2" cx="180.43" cy="275.22" rx="180.43" ry="13.09"/><path class="cls-3" d="M326.2,267.35c1.19-2.19-.16-4.86-1.7-6.81s-3.41-4-3.37-6.45c.06-3.57,3.84-5.67,6.87-7.56a33.74,33.74,0,0,0,6.16-5,9.05,9.05,0,0,0,1.89-2.53,10.39,10.39,0,0,0,.57-4.51c-.13-5.08-.38-10.17-.75-15.24"/><path class="cls-4" d="M341.61,219a5.57,5.57,0,0,0-2.77-4.56l-1.24,2.47,0-3a5.55,5.55,0,0,0-6.9,3.72,5.65,5.65,0,0,0-.23,1.87,5.55,5.55,0,1,0,11.09-.52h0Z"/><path class="cls-4" d="M331.7,256.65a5.56,5.56,0,1,1,.26-4.48L328.49,255l3.82-.89A5.59,5.59,0,0,1,331.7,256.65Z"/><path class="cls-4" d="M329,245.84a5.54,5.54,0,0,1-5.8-5.27v0a5.39,5.39,0,0,1,.48-2.53,5.58,5.58,0,0,1,3.56-3.08l0,2.29,1.26-2.49h0a5.56,5.56,0,1,1,.52,11.11Z"/><path class="cls-4" d="M342.45,236.84a5.55,5.55,0,1,1,2.46-10.38l-1,2.69,2-1.94a5.53,5.53,0,0,1,1.8,3.84,5.26,5.26,0,0,1-.14,1.53A5.54,5.54,0,0,1,342.45,236.84Z"/><path class="cls-5" d="M340.87,220.49c-1.29.14-2.54.54-3.82.62a4.16,4.16,0,0,1-3.52-1.23,16.91,16.91,0,0,1-1-1.81,3.94,3.94,0,0,0-1.4-1.32,5.55,5.55,0,1,0,10,4.79,6.83,6.83,0,0,0,.39-1.1Z"/><path class="cls-5" d="M342.45,236.84a5.55,5.55,0,0,1-5.29-7.92,4.26,4.26,0,0,1,1.12,1.12,16.26,16.26,0,0,0,1.1,1.84,4.53,4.53,0,0,0,3.69,1.29c1.34-.06,2.63-.44,4-.56.18,0,.37,0,.56,0A5.55,5.55,0,0,1,342.45,236.84Z"/><path class="cls-5" d="M329,245.84a5.54,5.54,0,0,1-5.8-5.27v0a5.39,5.39,0,0,1,.48-2.53,4.53,4.53,0,0,1,1.18,1.13c.44.61.71,1.31,1.19,1.88a5.14,5.14,0,0,0,3.94,1.37c1.42,0,2.7-.36,4.07-.47A5.56,5.56,0,0,1,329,245.84Z"/><path class="cls-5" d="M331.7,256.65a5.56,5.56,0,0,1-10.14-4.55,5.73,5.73,0,0,1,1.22,1.08,23.42,23.42,0,0,0,1.49,2,6.92,6.92,0,0,0,4.6,1.61A24.27,24.27,0,0,0,331.7,256.65Z"/><path class="cls-6" d="M317.82,264.83s4.38-.13,5.7-1.08,6.74-2.06,7.08-.55,6.6,7.52,1.64,7.55-11.51-.79-12.83-1.59S317.82,264.83,317.82,264.83Z"/><path class="cls-7" d="M332.33,270.22c-4.95,0-11.51-.79-12.83-1.58-1-.61-1.41-2.81-1.54-3.83h-.14s.27,3.54,1.58,4.36,7.87,1.62,12.83,1.59c1.43,0,1.93-.53,1.9-1.28C333.94,269.93,333.39,270.21,332.33,270.22Z"/><path class="cls-3" d="M77,255.13c-2.88-5.33.39-11.85,4.13-16.59s8.32-9.68,8.22-15.73C89.22,214.12,80,209,72.63,204.38a81.28,81.28,0,0,1-15-12.08A21.88,21.88,0,0,1,53,186.12c-1.52-3.4-1.48-7.26-1.38-11q.47-18.62,1.83-37.16"/><path class="cls-4" d="M39.43,137.29A13.56,13.56,0,0,1,46.2,126.2l3,6-.09-7.26a13.54,13.54,0,1,1-9.71,12.36Z"/><path class="cls-4" d="M63.6,229a13.53,13.53,0,1,0-.65-10.9L71.42,225l-9.31-2.16A13.41,13.41,0,0,0,63.6,229Z"/><path class="cls-4" d="M70.29,202.71a13.56,13.56,0,0,0,4.3-26.59l.07,5.58-3-6.07h0a13.55,13.55,0,0,0-1.27,27.08h0Z"/><path class="cls-4" d="M37.39,180.81a13.55,13.55,0,1,0-6-25.35L33.78,162l-4.91-4.75a13.48,13.48,0,0,0-4.39,9.36,13,13,0,0,0,.34,3.73A13.54,13.54,0,0,0,37.39,180.81Z"/><path class="cls-5" d="M41.26,140.91c3.12.34,6.17,1.31,9.3,1.5s6.59-.55,8.58-3c1.07-1.32,1.6-3,2.5-4.41a9.68,9.68,0,0,1,3.42-3.22,13.56,13.56,0,1,1-25.35,9C40.23,140.81,40.75,140.85,41.26,140.91Z"/><path class="cls-5" d="M37.39,180.81a13.56,13.56,0,0,0,12.9-19.33,10.13,10.13,0,0,0-2.73,2.73c-1,1.46-1.55,3.14-2.68,4.48-2.12,2.48-5.72,3.29-9,3.14s-6.43-1.08-9.69-1.37c-.45,0-.91-.08-1.36-.09A13.53,13.53,0,0,0,37.39,180.81Z"/><path class="cls-5" d="M70.29,202.71a13.55,13.55,0,0,0,13-19.08,11,11,0,0,0-2.87,2.77c-1.05,1.48-1.71,3.2-2.94,4.57-2.29,2.54-6.13,3.44-9.6,3.36s-6.58-.9-9.92-1.15A13.57,13.57,0,0,0,70.29,202.71Z"/><path class="cls-5" d="M63.6,229A13.55,13.55,0,0,0,88.31,218a13.66,13.66,0,0,0-3,2.65c-1.29,1.59-2.14,3.35-3.63,4.82-2.78,2.72-7.25,3.84-11.23,4A58.64,58.64,0,0,1,63.6,229Z"/><polygon class="cls-8" points="170.81 263.04 118.53 273.74 117.34 273.62 71.39 268.98 71.39 210.75 127.64 201.25 168.44 206 168.45 206.26 168.45 206.38 170.81 263.04"/><polygon class="cls-5" points="170.81 263.04 118.53 273.74 117.34 273.62 117.34 213.92 168.45 206.26 170.81 263.04"/><polygon class="cls-9" points="168.45 206.38 168.44 206.4 117.34 213.92 71.39 210.75 127.64 201.25 168.44 206 168.45 206.26 168.45 206.38"/><polygon class="cls-10" points="228.25 265.42 175.96 276.11 174.77 275.99 128.82 271.36 128.82 213.13 185.07 203.62 225.87 208.38 225.88 208.63 225.89 208.76 228.25 265.42"/><polygon class="cls-5" points="228.25 265.42 175.96 276.11 174.77 275.99 174.77 216.3 225.88 208.63 228.25 265.42"/><polygon class="cls-9" points="225.89 208.76 225.87 208.77 174.77 216.3 128.82 213.13 185.07 203.62 225.87 208.38 225.88 208.63 225.89 208.76"/><polygon class="cls-10" points="192.2 208.38 139.92 219.07 138.73 218.95 92.78 214.32 92.78 156.09 149.03 146.58 189.83 151.34 189.84 151.59 189.84 151.72 192.2 208.38"/><polygon class="cls-5" points="192.2 208.38 139.92 219.07 138.73 218.95 138.73 159.26 189.84 151.59 192.2 208.38"/><polygon class="cls-9" points="189.84 151.72 189.83 151.73 138.73 159.26 92.78 156.09 149.03 146.58 189.83 151.34 189.84 151.59 189.84 151.72"/><polygon class="cls-10" points="221.91 210.82 194.62 216.4 194 216.34 170.02 213.92 170.02 183.53 199.38 178.56 220.67 181.05 220.68 181.18 220.68 181.25 221.91 210.82"/><polygon class="cls-5" points="221.91 210.82 194.62 216.4 194 216.34 194 185.18 220.68 181.18 221.91 210.82"/><polygon class="cls-9" points="220.68 181.25 220.67 181.25 194 185.18 170.02 183.53 199.38 178.56 220.67 181.05 220.68 181.18 220.68 181.25"/><polygon class="cls-10" points="148.63 151.79 121.34 157.38 120.72 157.32 96.74 154.9 96.74 124.51 126.09 119.54 147.39 122.03 147.4 122.16 147.4 122.22 148.63 151.79"/><polygon class="cls-5" points="148.63 151.79 121.34 157.38 120.72 157.32 120.72 126.16 147.4 122.16 148.63 151.79"/><polygon class="cls-9" points="147.4 122.22 147.39 122.23 120.72 126.16 96.74 124.51 126.09 119.54 147.39 122.03 147.4 122.16 147.4 122.22"/><polygon class="cls-8" points="196.56 150.61 169.27 156.19 168.65 156.13 144.67 153.71 144.67 123.32 174.03 118.36 195.32 120.84 195.33 120.97 195.33 121.04 196.56 150.61"/><polygon class="cls-5" points="196.56 150.61 169.27 156.19 168.65 156.13 168.65 124.97 195.33 120.97 196.56 150.61"/><polygon class="cls-9" points="195.33 121.04 195.32 121.04 168.65 124.97 144.67 123.32 174.03 118.36 195.32 120.84 195.33 120.97 195.33 121.04"/><polygon class="cls-10" points="210.82 120.11 183.53 125.69 182.91 125.63 158.93 123.21 158.93 92.82 188.29 87.85 209.58 90.34 209.59 90.47 209.59 90.53 210.82 120.11"/><polygon class="cls-5" points="210.82 120.11 183.53 125.69 182.91 125.63 182.91 94.47 209.59 90.47 210.82 120.11"/><polygon class="cls-9" points="209.59 90.53 209.58 90.54 182.91 94.47 158.93 92.82 188.29 87.85 209.58 90.34 209.59 90.47 209.59 90.53"/><path class="cls-11" d="M229.41,58c-.29,2.57-2.26,4.65-3,7.13-1.09,3.74.8,7.76,3.39,10.69a23.67,23.67,0,0,0,16.49,7.82,7.2,7.2,0,0,0,2.73-.29,6,6,0,0,0,2.07-1.42,13.21,13.21,0,0,0,3.41-7.41,39.6,39.6,0,0,0,.1-8.29,4.8,4.8,0,0,0-.31-1.67,4.3,4.3,0,0,0-1.08-1.32,24.91,24.91,0,0,0-4.61-3.35,5.15,5.15,0,0,1-1.93-1.48,4.71,4.71,0,0,1-.6-1.77l-.51-2.6a5.14,5.14,0,0,0-.75-2.11c-.9-1.21-2.62-1.37-4.13-1.43l-5.55-.22c-1.72-.07-4-.56-5.67-.22s-1.05,1.76-.76,3.07A23,23,0,0,1,229.41,58Z"/><path class="cls-5" d="M229.41,59.18c-.29,2.58-2.26,4.65-3,7.13-1.09,3.75.8,7.77,3.39,10.7a23.71,23.71,0,0,0,16.49,7.82,7,7,0,0,0,2.73-.3,5.89,5.89,0,0,0,2.07-1.42,13.18,13.18,0,0,0,3.41-7.41,39.49,39.49,0,0,0,.1-8.28,4.75,4.75,0,0,0-.31-1.67,4.18,4.18,0,0,0-1.08-1.32,25,25,0,0,0-4.61-3.36,5.13,5.13,0,0,1-1.93-1.47,4.71,4.71,0,0,1-.6-1.77l-.51-2.6a5.14,5.14,0,0,0-.75-2.11c-.9-1.21-2.62-1.38-4.13-1.44l-5.55-.22c-1.72-.06-4-.56-5.67-.22s-1.05,1.77-.76,3.08A22.8,22.8,0,0,1,229.41,59.18Z"/><path class="cls-12" d="M264.62,174l-2.35,25.79c-.61,6.77-1.24,13.56-2.44,20.24-.4,2.3-.91,4.59-1.48,6.86-1.61,6.3-3.94,12.46-4.7,18.92,0,.19,0,.4-.06.57a17.42,17.42,0,0,1-.79,4.2c-.4,1-1,1.88-1.37,2.86a18.8,18.8,0,0,0-1,6.21,27.06,27.06,0,0,0-9.23-3.17c-1.58-.23-3.31-.39-4.36-1.58s-1.05-3.27-.85-5q.95-8.08,1.86-16.16a43.18,43.18,0,0,1,1.19-6.86c.22-.75.47-1.48.73-2.22.37-1,.73-2,1-3.07a37.79,37.79,0,0,0,.79-5.08c.64-5.42,1.4-10.83,2.08-16.24l0-.29a166.31,166.31,0,0,0,1.56-24.72c0-1.22-.08-2.45-.16-3.68-.11-1.78-.28-2.72,1.19-3.83a27.22,27.22,0,0,1,5.63-2.89c1-.44,12-4.36,12.28-3.5A21.51,21.51,0,0,1,265,167,63.08,63.08,0,0,1,264.62,174Z"/><path class="cls-5" d="M259.83,220c-.4,2.3-.91,4.59-1.48,6.86-1.61,6.3-3.94,12.46-4.7,18.92,0,.19,0,.4-.06.57-4.92-7-9.06-14.59-13.86-21.69.36-1,.72-2,1-3.07a36.76,36.76,0,0,0,.83-5.11c.64-5.42,1.4-10.83,2.08-16.24l0-.29a16.93,16.93,0,0,0,1.19,3.33c3.23,6.55,10.89,9.87,14.63,16.14C259.61,219.59,259.72,219.79,259.83,220Z"/><path class="cls-13" d="M219.91,162.37A121.37,121.37,0,0,0,221.75,178l1.73,10.69c1,5.86,1.94,11.84,4.71,17.09,2.08,3.93,5.06,7.28,7.77,10.8,6.64,8.66,11.64,18.47,17.94,27.38,1.84,2.6,4.45,5.4,7.58,4.86,2-.36,3.54-2.07,5.15-3.38,1.9-1.55,4.19-2.69,5.69-4.64s1.79-5.18-.24-6.57a11,11,0,0,0-2.32-.95c-3.14-1.19-5.18-4.26-6.47-7.37s-2.08-6.43-3.8-9.32c-3.75-6.27-11.41-9.58-14.64-16.14-1.81-3.67-2-7.92-2.11-12l-.36-10.42a7.65,7.65,0,0,1,.4-3.37c1.23-2.77,4.95-3,8-3.38a27.22,27.22,0,0,0,9.78-3.09,10.16,10.16,0,0,0,4.35-3.87,12.46,12.46,0,0,0,1.06-5.25L267,140.22a11.87,11.87,0,0,0-.4-4.83c-1.43-3.83-6.27-5.08-10.35-4.9-7.6.34-14.61,3.61-21.79,5.82a54.88,54.88,0,0,1-5.4,1.41c-1.58.32-3.56.19-5.08.7-2.73.92-2.66,6.89-3,9.36A77.51,77.51,0,0,0,219.91,162.37Z"/><path class="cls-14" d="M260.45,249.65a4.76,4.76,0,0,1,1.06,2.6A89.26,89.26,0,0,1,263,268a2.54,2.54,0,0,0,.28,1.43,1.79,1.79,0,0,0,.74.59c1.94.92,4.18-.36,5.8-1.78,3-2.62,5.52-6.13,5.69-10.11a22.31,22.31,0,0,1,.11-3.06,12.69,12.69,0,0,1,1.9-4.11,34.67,34.67,0,0,0,3.17-7.06c.29-.93.49-2.09-.24-2.74a2.62,2.62,0,0,0-.86-.45l-8.75-3.24c-.76-.28-2.65,4.56-2.94,5.09a4,4,0,0,1-2.93,2.33c-1.47.3-3.29-.13-4.69.61C257.92,246.75,259.11,248.3,260.45,249.65Z"/><path class="cls-14" d="M247,252.64a2.63,2.63,0,0,0-.67-.85,3,3,0,0,0-1.34-.45c-1.66-.29-3.63-.47-4.79.77s-.89,3-1.79,4.35c-.28.4-.67.76-.92,1.19a4.47,4.47,0,0,0-.39,2.13c-.05,2-.1,4,0,6.06a8.5,8.5,0,0,0,1.46,4.78c1.69,2.12,4.75,2.43,7.46,2.56l2.2.12a4.39,4.39,0,0,0,1.8-.17,2.94,2.94,0,0,0,1.55-1.71c1.15-2.84-.66-5.9-1.78-8.76C248.49,259.38,248.72,255.74,247,252.64Z"/><path class="cls-10" d="M238.3,71.89a6,6,0,0,0-5.86-4,1.78,1.78,0,0,1-1.09-.14,1.64,1.64,0,0,1-.45-.56,22,22,0,0,1-1.81-4.3c-.2-.66-.48-1.44-1.15-1.61a1.55,1.55,0,0,0-1.45.63,12.89,12.89,0,0,1-1,1.31c-1.59,1.4-4.36.12-6,1.41-.27.21-.5.48-.79.67a3.57,3.57,0,0,1-.92.4,89.05,89.05,0,0,0-9.46,3.69c1.11,6.67,2.25,13.47,4.84,19.71,1.24,3,2.64,5.88,3.63,8.94,2.19,6.79,2.29,14.05,2.32,21.18,0,4.88,0,9.87-1.59,14.49a13.75,13.75,0,0,0-.89,3.17,3.3,3.3,0,0,0,1.12,3,3.63,3.63,0,0,0,1.72.6c2.74.4,5.49-.32,8.19-.95a219.62,219.62,0,0,1,21.93-3.56l12.32-1.59a7,7,0,0,0,2.55-.66c2.26-1.23,2.47-4.62,1.07-6.77-.67-1-1.62-1.89-2.18-3a2.76,2.76,0,0,1,.36-3.39c2-1.54,1.38-4.41,1.48-6.91q.39-10.5-.11-21a42.29,42.29,0,0,1-.07-4.36A38.49,38.49,0,0,1,266.32,81l3.74-14.74a7.66,7.66,0,0,0-4.62-3c-1.77-.44-3.62-.57-5.37-1.12-3.56-1.11-6.76-3.92-10.5-3.66a2.06,2.06,0,0,0-.81.2c-.84.48-.71,1.69-.76,2.66-.12,2.14-1.7,3.93-3.43,5.19s-3.73,2.16-5.32,3.59A2.36,2.36,0,0,0,238.3,71.89Z"/><path class="cls-15" d="M188.86,87.07a14.11,14.11,0,0,1-2.62,1.35,8.86,8.86,0,0,0-2.51,1.22,4,4,0,0,0-.88,1.08,4.8,4.8,0,0,0,4.43,7.16,9.63,9.63,0,0,0,3.28-1l8.8-3.83c1.49-.64,3.09-1.4,3.8-2.86a.55.55,0,0,0-.28-.85,19.65,19.65,0,0,1-5.12-4.84c-.36-.49-.79-1.64-1.31-1.94C194.58,81.55,190.36,86.1,188.86,87.07Z"/><path class="cls-15" d="M283,84l3.24,3.71c.7.79,1.4,1.58,2,2.44a28.51,28.51,0,0,1,3.72,7,12.24,12.24,0,0,1,1,5.79,13.8,13.8,0,0,1-.81,2.94,35.63,35.63,0,0,1-2.21,5.31,31.37,31.37,0,0,1-2.46,3.71,88.71,88.71,0,0,1-8.23,9.41c-1.11,1.09-1.59,2.87-2.06,4.35-.89,2.74-3,4.88-5,6.9a14.44,14.44,0,0,1-2.18,1.87,7,7,0,0,1-4,1.12,4.37,4.37,0,0,1-1.78-.37,4.6,4.6,0,0,1-2.26-3.83,8.13,8.13,0,0,1,.68-4.1c1.86-4.13,6.64-5.91,10-8.92a33.1,33.1,0,0,0,5-6.17,21.55,21.55,0,0,0,2.52-4.43c.75-2,.46-4.4,1.12-6.44.28-.87.79-1.65,1.07-2.51a2.93,2.93,0,0,0-.15-2.62A3.85,3.85,0,0,0,280.77,98c-2.15-1.09-4.57-2.5-5-4.89a5.22,5.22,0,0,1,1-3.73,15.42,15.42,0,0,1,2.73-2.86C280.41,85.72,282,84.78,283,84Z"/><path class="cls-15" d="M186.78,92.24a6.08,6.08,0,0,0-2.44-2.91,4.52,4.52,0,0,0-3.57,0,13.6,13.6,0,0,0-3.12,1.89l-2.8,2.06a7.14,7.14,0,0,0-1.66,1.54,6.44,6.44,0,0,0-.86,2.37,17.12,17.12,0,0,0-.44,5.87c.44,3.17,2.35,5.91,4.44,8.32,1.3,1.49,2.92,3,4.91,3.07a2.25,2.25,0,0,0,2.17-1.09,2.7,2.7,0,0,0,.19-1c.22-3.52-1-7-2.51-10.16a6.36,6.36,0,0,1-.79-2.73.6.6,0,0,1,.59-.69c2-.4,5.47,1.16,6.88-1.07C188.68,96.27,187.43,93.56,186.78,92.24Z"/><path class="cls-10" d="M201.61,73.73a5.16,5.16,0,0,0-1.3,1.21c-.46.7-.55,1.59-.95,2.3-.83,1.56-2.8,2.12-4,3.4a1.27,1.27,0,0,0-.39.67,1.45,1.45,0,0,0,.33,1l5.91,9.31c2,.17,3.86-1.07,5.83-.9a6.07,6.07,0,0,0,2.2.1,6.66,6.66,0,0,0,1.4-.86c1.19-.75,2.75-.84,3.73-1.81a5,5,0,0,0,1.06-3.76,14.78,14.78,0,0,0-.35-3.44c-.87-3.57-3.6-6.32-5.31-9.48-.84-1.54-1.29-2.44-3.05-1.38S203.28,72.51,201.61,73.73Z"/><path class="cls-10" d="M273.47,69a13.72,13.72,0,0,1,3,2.6c.9,1.16,1.41,2.59,2.28,3.78a41.16,41.16,0,0,0,2.93,3.1A23.37,23.37,0,0,1,285,84a81.46,81.46,0,0,1-7.65,8.64,2.46,2.46,0,0,1-1.16.76,1.87,1.87,0,0,1-1.64-.67c-.43-.44-.73-1-1.14-1.46a5.86,5.86,0,0,0-3.62-1.75,25.5,25.5,0,0,0-4.1-.06,1.53,1.53,0,0,1-.87-.14,1.5,1.5,0,0,1-.48-.55c-1.58-2.73-1.09-6.15-.52-9.26l1.3-7.13a15.5,15.5,0,0,1,1.08-4c.49-1,1.58-2.84,2.94-2.52S272.33,68.2,273.47,69Z"/><polygon class="cls-8" points="160.51 121.29 133.23 126.88 132.6 126.82 108.62 124.39 108.62 94 137.98 89.04 159.27 91.53 159.28 91.66 159.28 91.72 160.51 121.29"/><polygon class="cls-5" points="160.51 121.29 133.23 126.88 132.6 126.82 132.6 95.66 159.28 91.66 160.51 121.29"/><polygon class="cls-9" points="159.28 91.72 159.27 91.73 132.6 95.66 108.62 94 137.98 89.04 159.27 91.53 159.28 91.66 159.28 91.72"/><polygon class="cls-10" points="174.77 91.19 147.49 96.77 146.86 96.71 122.88 94.29 122.88 63.9 152.24 58.94 173.53 61.42 173.54 61.56 173.54 61.62 174.77 91.19"/><polygon class="cls-5" points="174.77 91.19 147.49 96.77 146.86 96.71 146.86 65.56 173.54 61.56 174.77 91.19"/><polygon class="cls-9" points="173.54 61.62 173.53 61.63 146.86 65.56 122.88 63.9 152.24 58.94 173.53 61.42 173.54 61.56 173.54 61.62"/><path class="cls-16" d="M223.17,45.92c.26-6.51-1.92-14.07,12.22-13.84,11.9.19,11.56,7.4,11.89,13.69"/><path class="cls-15" d="M234.11,32.13c6.77-.52,12.16,6.34,13,12.58,1,7-4.68,15.8-10.2,16.29s-13.43-6.68-13.8-14C222.84,40.48,227.23,32.65,234.11,32.13Z"/><path class="cls-17" d="M228.77,43.46a1.77,1.77,0,0,1,.13-.85c.32-.56,1.16-.39,1.79-.25,2.55.64,5.23.06,7.86.21s5.58,1.46,6.11,4a19.26,19.26,0,0,0,4.84-5A6,6,0,0,0,250.76,38c-.14-1.89-1.72-3.3-3.16-4.5l-4.36-3.56a6.51,6.51,0,0,0-2-1.24,9.59,9.59,0,0,0-3.17-.18c-3.17,0-6.56-1.45-9.39,0a10,10,0,0,0-2.93,2.66l-3.89,4.61a2.54,2.54,0,0,0-.63,1.06,4.51,4.51,0,0,0,.29,1.68c.18,1-.27,2.13.07,3.12.57,1.64,2.57,1.88,3.79,2.82.45.35,1.16,1.54,1.7,1.52C228.08,46,228.74,44.22,228.77,43.46Z"/><path class="cls-10" d="M228.12,39.54a1.76,1.76,0,0,1,.12-.85c.32-.57,1.16-.4,1.8-.26,2.54.65,5.23.06,7.86.21s5.57,1.47,6.1,4a19.26,19.26,0,0,0,4.85-5,6,6,0,0,0,1.26-3.65c-.14-1.89-1.73-3.3-3.17-4.49L242.59,26a6.93,6.93,0,0,0-2-1.24,9.88,9.88,0,0,0-3.17-.18c-3.17,0-6.56-1.44-9.39,0a10.17,10.17,0,0,0-2.93,2.66l-3.89,4.61a2.5,2.5,0,0,0-.63,1.06,4.56,4.56,0,0,0,.29,1.69c.18,1-.27,2.13.07,3.11.57,1.65,2.57,1.88,3.79,2.82.45.35,1.16,1.54,1.71,1.53C227.41,42,228.08,40.3,228.12,39.54Z"/></g></g></svg>