<svg id="affc39e2-7da3-4bf1-9ead-1f378b7c269e" xmlns="http://www.w3.org/2000/svg" viewBox="0 0 1088 687.96"><defs><style>.cls-1{fill:#3f3d56;}.cls-2{fill:#f2f2f2;}.cls-3{fill:#ddd;}.cls-4{fill:#c9c9c9;}.cls-5{opacity:0.1;}.cls-10,.cls-5{isolation:isolate;}.cls-6{fill:#ff6584;}.cls-7{fill:#2f2e41;}.cls-8{fill:#6c63ff;}.cls-9{fill:#a8a8a8;}.cls-10{opacity:0.2;}.cls-11{fill:#ffbfc5;}.cls-12{fill:#f1f1f1;}.cls-13{fill:#575a89;}</style></defs><title>wtw-modified</title><path class="cls-1" d="M961.81,454.44c-5.27,45.15-16.22,81.4-31.25,110.31-20,38.52-54.21,54-84.77,70.28A192,192,0,0,1,818.33,647c-55.61,19.3-117.85,14.18-166.74,4A658.15,658.15,0,0,0,547.5,637.8q-15-.67-30-.67c-15.42,0-293.07,5.29-360.67-131.57-16.69-33.76-28.13-75-32.24-125.27C113,238.17,176.91,144.83,259.36,83.82c156-115.41,369.76-110.57,523.43,7.88C885.15,170.6,981,290,961.81,454.44Z" transform="translate(0 0)"/><path class="cls-2" d="M326,178,156.86,505.56c67.6,136.86,221.25,150.65,321.42,143.29,10.9-.79,6.81-.8,17.72-1.05L402,373.09Z" transform="translate(0 0)"/><path class="cls-3" d="M612,412.39,825.33,657c-55.61,19.3-117.85,14.18-166.74,4A658.15,658.15,0,0,0,554.5,647.8q-15-.67-30-.67c-4.51,0-24,.57-28.53.67L402,373.09,493,276Z" transform="translate(0 0)"/><path class="cls-4" d="M929,563.47l1.57,1.28c-20,38.52-47.21,64-77.77,80.28A192,192,0,0,1,825.33,657L612,412.39,660,344,914.78,551.88Z" transform="translate(0 0)"/><polygon class="cls-5" points="302 282.96 328 225.96 364 308.96 333 248.96 302 282.96"/><path class="cls-5" d="M554.5,647.8q-15-.67-30-.67L409,391.17Z" transform="translate(0 0)"/><polygon class="cls-5" points="464.41 315.19 493 292.96 623 442.96 491 314.96 464.41 315.19"/><path class="cls-5" d="M852.79,645A192,192,0,0,1,825.33,657L623.2,425.23Z" transform="translate(0 0)"/><circle class="cls-2" cx="482" cy="101.96" r="3"/><circle class="cls-2" cx="399" cy="204.96" r="3"/><circle class="cls-2" cx="602" cy="222.96" r="2"/><circle class="cls-2" cx="182" cy="267.96" r="2"/><circle class="cls-2" cx="614" cy="98.96" r="2"/><circle class="cls-2" cx="738" cy="194.96" r="2"/><circle class="cls-2" cx="860" cy="346.96" r="2"/><polygon class="cls-2" points="306 121.22 303.24 121.22 303.24 118.46 301.76 118.46 301.76 121.22 299 121.22 299 122.7 301.76 122.7 301.76 125.46 303.24 125.46 303.24 122.7 306 122.7 306 121.22"/><polygon class="cls-2" points="848 424.22 845.24 424.22 845.24 421.46 843.76 421.46 843.76 424.22 841 424.22 841 425.7 843.76 425.7 843.76 428.46 845.24 428.46 845.24 425.7 848 425.7 848 424.22"/><path class="cls-1" d="M1088,614c0,16.57-243.56,74-544,74S0,630.53,0,614s243.56,14,544,14S1088,597.39,1088,614Z" transform="translate(0 0)"/><path class="cls-5" d="M1088,614c0,16.57-243.56,74-544,74S0,630.53,0,614s243.56,14,544,14S1088,597.39,1088,614Z" transform="translate(0 0)"/><ellipse class="cls-1" cx="544" cy="613.96" rx="544" ry="30"/><path class="cls-6" d="M568,572c0,33.14-14.77,24-33,24s-33,9.14-33-24,33-96,33-96S568,538.83,568,572Z" transform="translate(0 0)"/><path class="cls-5" d="M550,584.64c0,15.06-6.72,10.91-15,10.91s-15,4.15-15-10.91S535,541,535,541,550,569.58,550,584.64Z" transform="translate(0 0)"/><path class="cls-7" d="M498,605h74a9,9,0,0,1,9,9h0a9,9,0,0,1-9,9H498a9,9,0,0,1-9-9h0A9,9,0,0,1,498,605Z" transform="translate(0 0)"/><path class="cls-7" d="M498,587h74a9,9,0,0,1,9,9h0a9,9,0,0,1-9,9H498a9,9,0,0,1-9-9h0A9,9,0,0,1,498,587Z" transform="translate(0 0)"/><path class="cls-1" d="M137,490.53c0,55.34,34.72,100.12,77.63,100.12" transform="translate(0 0)"/><path class="cls-8" d="M214.63,590.65c0-56,38.74-101.25,86.62-101.25" transform="translate(0 0)"/><path class="cls-8" d="M165.13,495.54c0,52.58,22.14,95.11,49.5,95.11" transform="translate(0 0)"/><path class="cls-1" d="M214.63,590.65c0-71.51,44.78-129.37,100.12-129.37" transform="translate(0 0)"/><path class="cls-9" d="M198.3,591.36s11-.34,14.32-2.7,16.94-5.18,17.76-1.4,16.54,18.85,4.11,19-28.87-1.94-32.19-4S198.3,591.36,198.3,591.36Z" transform="translate(0 0)"/><path class="cls-10" d="M234.72,604.89c-12.43.1-28.88-1.94-32.19-3.95-2.53-1.54-3.53-7.05-3.87-9.59h-.36s.69,8.88,4,10.9,19.77,4,32.19,4c3.59,0,4.83-1.31,4.76-3.2C238.75,604.16,237.39,604.87,234.72,604.89Z" transform="translate(0 0)"/><path class="cls-1" d="M721.43,527.06c0,38,23.86,68.8,53.34,68.8" transform="translate(0 0)"/><path class="cls-8" d="M774.77,595.86c0-38.45,26.62-69.57,59.52-69.57" transform="translate(0 0)"/><path class="cls-8" d="M740.76,530.51c0,36.12,15.21,65.35,34,65.35" transform="translate(0 0)"/><path class="cls-1" d="M774.77,595.86c0-49.14,30.77-88.9,68.8-88.9" transform="translate(0 0)"/><path class="cls-9" d="M763.55,596.35s7.56-.23,9.84-1.86,11.64-3.56,12.2-1,11.37,13,2.83,13-19.84-1.33-22.12-2.71S763.55,596.35,763.55,596.35Z" transform="translate(0 0)"/><path class="cls-10" d="M788.57,605.65c-8.54.06-19.84-1.33-22.12-2.72-1.73-1.06-2.42-4.84-2.65-6.59h-.25s.48,6.1,2.75,7.49,13.58,2.78,22.12,2.71c2.47,0,3.32-.9,3.27-2.19C791.35,605.14,790.41,605.63,788.57,605.65Z" transform="translate(0 0)"/><path class="cls-9" d="M893.81,618.7s11.36-1.73,14.5-4.59,16.89-7.49,18.22-3.67,19.49,17.45,6.63,19.11-30.15,1.61-33.83-.07S893.81,618.7,893.81,618.7Z" transform="translate(0 0)"/><path class="cls-10" d="M933.23,628.15c-12.86,1.66-30.15,1.61-33.84-.06-2.8-1.28-4.53-6.86-5.2-9.45l-.38.06s1.84,9.11,5.52,10.78,21,1.73,33.83.07c3.72-.48,4.84-2,4.53-3.91C937.32,626.89,936,627.8,933.23,628.15Z" transform="translate(0 0)"/><path class="cls-9" d="M614.26,617.88s9.59-1.46,12.24-3.88,14.25-6.32,15.37-3.09,16.45,14.72,5.6,16.12-25.45,1.36-28.56,0S614.26,617.88,614.26,617.88Z" transform="translate(0 0)"/><path class="cls-10" d="M647.52,625.86c-10.85,1.4-25.44,1.35-28.55-.06-2.37-1.07-3.83-5.79-4.39-8l-.32,0s1.55,7.68,4.65,9.1,17.71,1.45,28.56,0c3.13-.4,4.08-1.65,3.82-3.29C651,624.79,649.86,625.56,647.52,625.86Z" transform="translate(0 0)"/><path class="cls-9" d="M122.39,613.09s7.46-1.14,9.53-3,11.09-4.92,12-2.41,12.81,11.47,4.36,12.56-19.81,1.06-22.23-.05S122.39,613.09,122.39,613.09Z" transform="translate(0 0)"/><path class="cls-10" d="M148.29,619.3c-8.45,1.09-19.82,1.06-22.23,0-1.85-.84-3-4.51-3.42-6.21l-.25,0s1.2,6,3.62,7.08,13.78,1.14,22.23.05c2.44-.32,3.18-1.29,3-2.57C151,618.47,150.1,619.07,148.29,619.3Z" transform="translate(0 0)"/><path class="cls-5" d="M383.7,601.32c0,30.22-42.13,20.87-93.7,20.87s-93.08,9.35-93.08-20.87,42.12-36.79,93.7-36.79S383.7,571.1,383.7,601.32Z" transform="translate(0 0)"/><path class="cls-1" d="M383.7,593.88c0,30.22-42.13,20.87-93.7,20.87s-93.08,9.35-93.08-20.87,42.12-36.8,93.7-36.8S383.7,563.66,383.7,593.88Z" transform="translate(0 0)"/><path class="cls-11" d="M391.73,455.42a45.46,45.46,0,0,0-7.06,4.47,15.17,15.17,0,0,0-4.91,6.65,62,62,0,0,1-3-9,147.63,147.63,0,0,0-6.2-16.17,21.46,21.46,0,0,0,9.75-7.48c4.8,4.78,9.74,9.76,12.13,16.1.41,1.09,1.6,2.25,1.88,3.23C394.68,454.62,392.77,454.84,391.73,455.42Z" transform="translate(0 0)"/><path class="cls-12" d="M436.89,571.91a44.36,44.36,0,0,1,14.42,7.71,1.47,1.47,0,0,1,.65.89c.11.83-1,1.17-1.8,1.4-2.37.68-3.88,2.91-5.62,4.65s-4.54,3.1-6.58,1.71a6.55,6.55,0,0,1-1.38-1.45L428,575.6a52.46,52.46,0,0,1,9.15-4" transform="translate(0 0)"/><path class="cls-13" d="M452.33,574.24c1.14,1.16,1.63,2.83,2.75,4a9.87,9.87,0,0,0,2.54,1.76l6.57,3.62a18.83,18.83,0,0,0,3.18,1.5,28.7,28.7,0,0,0,3.77.79,27.52,27.52,0,0,1,5.32,1.57c1.29.53,2.72,1.44,2.72,2.83a3.07,3.07,0,0,1-.79,1.83c-2.59,3.26-7.18,4-11.32,4.42-9,.95-18.16,1.66-26.93-.45a11.58,11.58,0,0,1-4.73-2c-2.64-2.19-3.17-6.19-2.18-9.48a5.13,5.13,0,0,1,2.09-3.11c1.39-.79,3.12-.42,4.71-.55a14.89,14.89,0,0,0,4.87-1.54c1-.46,2.15-1,2.37-2.23s-1.1-2.22-.83-3.21C447.05,571.76,451.29,573.17,452.33,574.24Z" transform="translate(0 0)"/><path class="cls-5" d="M452.33,574.24c1.14,1.16,1.63,2.83,2.75,4a9.87,9.87,0,0,0,2.54,1.76l6.57,3.62a18.83,18.83,0,0,0,3.18,1.5,28.7,28.7,0,0,0,3.77.79,27.52,27.52,0,0,1,5.32,1.57c1.29.53,2.72,1.44,2.72,2.83a3.07,3.07,0,0,1-.79,1.83c-2.59,3.26-7.18,4-11.32,4.42-9,.95-18.16,1.66-26.93-.45a11.58,11.58,0,0,1-4.73-2c-2.64-2.19-3.17-6.19-2.18-9.48a5.13,5.13,0,0,1,2.09-3.11c1.39-.79,3.12-.42,4.71-.55a14.89,14.89,0,0,0,4.87-1.54c1-.46,2.15-1,2.37-2.23s-1.1-2.22-.83-3.21C447.05,571.76,451.29,573.17,452.33,574.24Z" transform="translate(0 0)"/><path class="cls-12" d="M467.58,610.14l2.76,1.82a4.91,4.91,0,0,1,2,2c.6,1.41-.21,3-1.11,4.23a24.41,24.41,0,0,1-10.64,8.25,16.13,16.13,0,0,1-4.63,1.15,2,2,0,0,1-1.07-.13c-.84-.45-.72-1.65-.73-2.6,0-2.76-2.12-5-4-7s-3.78-4.53-3.36-7.26a9.1,9.1,0,0,1,2.38-4.24,17.79,17.79,0,0,1,3.62-3.42c1.95-1.27,2.64-.58,4.47.58Q462.47,606.77,467.58,610.14Z" transform="translate(0 0)"/><path class="cls-13" d="M458.61,623.59a4.92,4.92,0,0,0,4.35-1,11.23,11.23,0,0,0,2.82-3.63,30.3,30.3,0,0,0,1.75-3.85c.58-1.55,1.11-3.26,2.47-4.2,1.65-1.14,4-.69,5.65.41a29.75,29.75,0,0,1,4.33,4.14,29.28,29.28,0,0,0,12.29,6.85,135.1,135.1,0,0,0,13.89,3,7.89,7.89,0,0,1,2.68.87c1.88,1.14,2.51,3.7,2,5.84a13,13,0,0,1-3.46,5.55,13.81,13.81,0,0,1-4.6,3.56,14.52,14.52,0,0,1-4.66.88,78.89,78.89,0,0,1-23-1.8,63.67,63.67,0,0,0-8.42-1.68c-1.74-.15-3.48-.1-5.22-.22a27.49,27.49,0,0,1-9.94-2.62,3.55,3.55,0,0,1-1.82-1.51,3.74,3.74,0,0,1-.13-2l1.15-10.08c.1-.88.39-2,1.27-2.11s1.43.72,1.95,1.38a7.12,7.12,0,0,0,8.53,1.87" transform="translate(0 0)"/><path class="cls-13" d="M391.87,496.49c5.05-.57,10.92-.67,14.34,3.1,2.1,2.31,2.73,5.55,3.46,8.59a55.66,55.66,0,0,0,5.48,14.59c1.61,2.84,3.56,5.51,4.79,8.53s1.73,6.45,2.47,9.71A58.72,58.72,0,0,0,443,573.68c-1.83,5-7.1,7.79-12.24,9.06a5.27,5.27,0,0,1-6.28-1.71,83.87,83.87,0,0,1-6.7-8.21c-7.4-9.88-14.91-20-18.94-31.63-1.41-4.1-2.83-8.88-6.81-10.59-2.27-1-4.86-.67-7.3-.26a99.27,99.27,0,0,0-16,4.12c-5.56,1.93-11.93,4.31-17,1.35-3.05-1.77-4.86-5.17-5.53-8.63a37.15,37.15,0,0,1,0-10.53,10.74,10.74,0,0,1,1.11-4.55,9.73,9.73,0,0,1,2.66-2.69,54.93,54.93,0,0,1,15-8.07c5.14-1.81,10.66-2.43,16-3.32Q386.36,497.11,391.87,496.49Z" transform="translate(0 0)"/><path class="cls-5" d="M391.87,496.49c5.05-.57,10.92-.67,14.34,3.1,2.1,2.31,2.73,5.55,3.46,8.59a55.66,55.66,0,0,0,5.48,14.59c1.61,2.84,3.56,5.51,4.79,8.53s1.73,6.45,2.47,9.71A58.72,58.72,0,0,0,443,573.68c-1.83,5-7.1,7.79-12.24,9.06a5.27,5.27,0,0,1-6.28-1.71,83.87,83.87,0,0,1-6.7-8.21c-7.4-9.88-14.91-20-18.94-31.63-1.41-4.1-2.83-8.88-6.81-10.59-2.27-1-4.86-.67-7.3-.26a99.27,99.27,0,0,0-16,4.12c-5.56,1.93-11.93,4.31-17,1.35-3.05-1.77-4.86-5.17-5.53-8.63a37.15,37.15,0,0,1,0-10.53,10.74,10.74,0,0,1,1.11-4.55,9.73,9.73,0,0,1,2.66-2.69,54.93,54.93,0,0,1,15-8.07c5.14-1.81,10.66-2.43,16-3.32Q386.36,497.11,391.87,496.49Z" transform="translate(0 0)"/><path class="cls-11" d="M420.82,533a25.87,25.87,0,0,1,6.39,4.54,23.18,23.18,0,0,1,4.36,7.82,9.32,9.32,0,0,1,.76,3,3.44,3.44,0,0,1-1.12,2.8,5,5,0,0,1-3.16.77c-1.46,0-2.93,0-4.39-.11a7.51,7.51,0,0,1-2.61-.5,7.05,7.05,0,0,1-2-1.53,28.56,28.56,0,0,1-6.22-8.41c-1.07-2.34-2.81-7.74-1.14-10.17S419,531.93,420.82,533Z" transform="translate(0 0)"/><path class="cls-13" d="M349.91,532.12c7.48,2.4,15.44,2.67,23.26,3.4A194,194,0,0,1,412,543.19a20.68,20.68,0,0,1,7.32,3.4,22,22,0,0,1,4.24,5.4,93.8,93.8,0,0,1,5.57,9.74c1.42,3,2.5,6.22,3.82,9.3a65.4,65.4,0,0,0,20.4,26.12c1.63,1.24,3.44,2.59,3.86,4.6a6.37,6.37,0,0,1-.6,3.77c-1.93,4.5-5.93,7.76-10.13,10.26-1.81,1.08-3.8,2.17-4.68,4.08-6.39-2.64-11.13-8.26-15.08-13.92s-7.46-11.76-12.52-16.46c-2.23-2.07-4.77-3.87-6.52-6.35-2.68-3.8-3.4-9-7-11.92s-8.84-2.55-13.5-2.09a331.35,331.35,0,0,1-71.65-.78c-5-.59-10-1.34-14.31-3.89s-7.62-7.3-7-12.25c.57-4.62,4.42-8.29,8.72-10.1s9-2.14,13.67-2.66A144.36,144.36,0,0,0,349.91,532.12Z" transform="translate(0 0)"/><path class="cls-8" d="M281.51,541.73c.59-3.92,2.11-7.64,3.07-11.49a68.6,68.6,0,0,1,1.82-7.18l.07-.19a1.7,1.7,0,0,0,1.23-.7,2.1,2.1,0,0,0,.1-1.08,6.29,6.29,0,0,1,0-1.15,79.38,79.38,0,0,1,5.12-7.59c3.23-4.59,6-9.47,8.84-14.34,2.3-4,4.6-8,6.5-12.19,1.42-3.14,2.62-6.39,4.2-9.46,5.6-10.94,15.68-19,26.53-24.78,10.4-5.56,21.64-9.3,32.57-13.72a6.54,6.54,0,0,1,.77.9c5.91,8.08,6.54,18.69,9,28.4,1,3.92,2.3,7.82,2.3,11.86,0,6-2.86,11.51-5.69,16.76A90.57,90.57,0,0,1,369,510c-1.67,2.07-3.52,4-5.2,6.07-6.89,8.45-10.87,18.84-14.74,29-2.24,5.9-5.9,11.14-8.37,17-.94,2.24-1.49,4.65-2.68,6.76s-3.25,4-5.68,4a8.29,8.29,0,0,1-2.1-.33c-8.78-2.26-16.14-8.07-23.44-13.45-1.3-1-2.61-1.92-4-2.78s-2.81-1.66-4.25-2.45L295.33,552c-3.56-1.95-7.13-3.9-10.84-5.55a20.55,20.55,0,0,1-3.2-1.64A20.37,20.37,0,0,1,281.51,541.73Z" transform="translate(0 0)"/><circle class="cls-11" cx="396.36" cy="434.51" r="20.24"/><path class="cls-7" d="M410,425a4.8,4.8,0,0,0,5,2.34,7,7,0,0,0,4.65-3.31,13.27,13.27,0,0,0,1.72-5.59,5.82,5.82,0,0,0-.84-4.41,9.57,9.57,0,0,0-2.57-1.79,9.88,9.88,0,0,1-3.19-3.24c-.57-.94-1-2-1.49-2.93-1.84-3.49-5.42-6.34-9.37-6.21-1.9.06-3.7.78-5.57,1.11-6.28,1.1-13.1-2.22-18.92.37a18.11,18.11,0,0,0-4,2.64c-1.64,1.35-3.21,2.78-4.72,4.27a9.73,9.73,0,0,0-2.88,4.19c-.79,3,1.09,6.29-.11,9.12a13.67,13.67,0,0,1-1.46,2.29c-1.32,1.94.12,9.5,0,11.84A4.35,4.35,0,0,0,367,439c1,1.07,2.56,1.16,4,1.18l2.63,0a3.26,3.26,0,0,0,1.16-.12,3.48,3.48,0,0,0,1.32-1c2.19-2.3,2.66-9.83,5.84-9.8a2.29,2.29,0,0,1,1.37.35c.57.42.74,1.2,1.15,1.78a3.36,3.36,0,0,0,3.9.91,8.75,8.75,0,0,0,3.32-2.68,13.25,13.25,0,0,1,3.1-3c1.69-1,3.61-1.41,5.25-2.53,1.38-.93,2.16-2.28,3.4-3.31a3,3,0,0,1,3.59-.2C409,421.61,409.09,423.27,410,425Z" transform="translate(0 0)"/><path class="cls-5" d="M363.21,460.7a32.35,32.35,0,0,1,14.1,1.13,7.44,7.44,0,0,1,3.93,2.34,7.08,7.08,0,0,1,1.12,2.94,23.8,23.8,0,0,1-1.7,14.34,1.88,1.88,0,0,0-.24,1.53,2.67,2.67,0,0,0,.79.78,2.79,2.79,0,0,1,.08,3.94l-.25.23c-.38.27-.87.51-1,1s.4.9.76,1.25a4.49,4.49,0,0,1,1.26,4.13,9,9,0,0,0-.41,1.83,6,6,0,0,0,.66,2.18,9.41,9.41,0,0,1,.61,4.81,3.49,3.49,0,0,0,.84,3.76c1.46,2,1.77,5.25-.34,6.48a4.86,4.86,0,0,1,2.6,5c1.26-.68,2.79.18,3.84,1.15s2.12,2.16,3.55,2.23c1,0,2-.47,3-.06,1.38.62,1.33,2.86,2.69,3.53,1.19.59,2.85-.37,3.87.49.35.3.53.76.87,1.07.77.71,2,.41,3,.36a7.13,7.13,0,0,1,6,3.68,18,18,0,0,1,2.06,7,9.43,9.43,0,0,1-.08,4.06A3.47,3.47,0,0,1,412,544.5c-12.42.8-24.68-2.17-36.77-5.12-3.55-.86-7.17-1.88-10.13-4-2.69-2-4.67-4.7-6.6-7.4-3.56-5-7.14-10-9.69-15.58-3.28-7.17-4.74-15-6.17-22.76a20.88,20.88,0,0,1-.52-6.35,17.91,17.91,0,0,1,2.79-7,74.26,74.26,0,0,1,5.66-8A20.73,20.73,0,0,1,363.21,460.7Z" transform="translate(0 0)"/><path class="cls-8" d="M364,459.88a32.35,32.35,0,0,1,14.1,1.13,7.48,7.48,0,0,1,3.93,2.34,7.08,7.08,0,0,1,1.12,2.94,23.8,23.8,0,0,1-1.7,14.34,1.88,1.88,0,0,0-.24,1.53,2.67,2.67,0,0,0,.79.78,2.79,2.79,0,0,1,.08,3.94,2.73,2.73,0,0,1-.25.23c-.38.27-.87.51-.95,1s.39.9.76,1.25a4.5,4.5,0,0,1,1.26,4.13,9,9,0,0,0-.41,1.83,6,6,0,0,0,.66,2.18,9.41,9.41,0,0,1,.61,4.81,5.33,5.33,0,0,0-.05,2.35,5.18,5.18,0,0,0,.89,1.41c1.45,2,1.77,5.25-.34,6.48a4.87,4.87,0,0,1,2.6,5c1.26-.68,2.79.19,3.84,1.15s2.12,2.16,3.55,2.23c1,.05,2-.47,3-.06,1.38.63,1.33,2.86,2.69,3.53,1.19.59,2.85-.37,3.86.49.36.3.54.76.88,1.07.77.71,2,.41,3,.37a7.12,7.12,0,0,1,6,3.67,18.22,18.22,0,0,1,2.06,7,9.42,9.42,0,0,1-.08,4.06,3.48,3.48,0,0,1-2.85,2.57c-12.42.8-24.68-2.17-36.77-5.12-3.56-.86-7.17-1.88-10.13-4-2.69-1.94-4.67-4.7-6.6-7.4-3.56-5-7.14-10-9.69-15.58-3.28-7.17-4.74-15-6.17-22.76a20.88,20.88,0,0,1-.52-6.35,17.75,17.75,0,0,1,2.79-7,74.26,74.26,0,0,1,5.66-8A20.73,20.73,0,0,1,364,459.88Z" transform="translate(0 0)"/></svg>