<?xml version="1.0" encoding="utf-8"?>
<!-- Generator: Adobe Illustrator 23.0.3, SVG Export Plug-In . SVG Version: 6.00 Build 0)  -->
<svg version="1.1" id="affc39e2-7da3-4bf1-9ead-1f378b7c269e"
	 xmlns="http://www.w3.org/2000/svg" xmlns:xlink="http://www.w3.org/1999/xlink" x="0px" y="0px" viewBox="0 0 1088 688"
	 style="enable-background:new 0 0 1088 688;" xml:space="preserve">
<style type="text/css">
	.st0{fill:#3F3D56;}
	.st1{fill:#F2F2F2;}
	.st2{fill:#DDDDDD;}
	.st3{fill:#C9C9C9;}
	.st4{opacity:0.1;enable-background:new    ;}
	.st5{fill:#FF6584;}
	.st6{opacity:0.1;fill:#FFD449;enable-background:new    ;}
	.st7{fill:#2F2E41;}
	.st8{fill:#6C63FF;}
	.st9{fill:#A8A8A8;}
	.st10{opacity:0.2;enable-background:new    ;}
	.st11{fill:#FFBFC5;}
	.st12{fill:#F1F1F1;}
	.st13{fill:#575A89;}
	.st14{fill:#FFD449;}
</style>
<title>into the night</title>
<path class="st0" d="M961.8,454.4c-5.3,45.2-16.2,81.4-31.2,110.3c-20,38.5-54.2,54-84.8,70.3c-8.8,4.7-18,8.7-27.5,11.9
	c-55.6,19.3-117.8,14.2-166.7,4c-34.3-7.2-69.1-11.6-104.1-13.2c-10-0.4-20-0.7-30-0.7c-15.4,0-293.1,5.3-360.7-131.6
	c-16.7-33.8-28.1-75-32.2-125.3C113,238.2,176.9,144.8,259.4,83.8c156-115.4,369.8-110.6,523.4,7.9C885.2,170.6,981,290,961.8,454.4
	z"/>
<g>
	<g>
		<path class="st1" d="M326,178L156.9,505.6c67.6,136.9,221.2,150.6,321.4,143.3c10.9-0.8,6.8-0.8,17.7-1l-94-274.7L326,178z"/>
		<g id="XMLID_2_">
			<g>
				<path class="st2" d="M612,412.4L825.3,657c-55.6,19.3-117.9,14.2-166.7,4c-34.3-7.2-69.1-11.6-104.1-13.2c-10-0.5-20-0.7-30-0.7
					c-4.5,0-24,0.6-28.5,0.7l-94-274.7l91-97.1L612,412.4z"/>
			</g>
			<g>
			</g>
		</g>
	</g>
	<g id="XMLID_1_">
		<g>
			<path class="st3" d="M929,563.5l1.6,1.3c-20,38.5-47.2,64-77.8,80.3c-8.8,4.7-18,8.7-27.5,11.9L612,412.4l48-68.4l254.8,207.9
				L929,563.5z"/>
		</g>
		<g>
		</g>
	</g>
</g>
<polygon class="st4" points="302,283 328,226 364,309 333,249 "/>
<path class="st4" d="M554.5,647.8c-10-0.4-20-0.7-30-0.7L409,391.2L554.5,647.8z"/>
<polygon class="st4" points="464.4,315.2 493,293 623,443 491,315 "/>
<path class="st4" d="M852.8,645c-8.8,4.7-18,8.7-27.5,11.9L623.2,425.2L852.8,645z"/>
<circle class="st1" cx="482" cy="102" r="3"/>
<circle class="st1" cx="399" cy="205" r="3"/>
<circle class="st1" cx="602" cy="223" r="2"/>
<circle class="st1" cx="182" cy="268" r="2"/>
<circle class="st1" cx="614" cy="99" r="2"/>
<circle class="st1" cx="738" cy="195" r="2"/>
<circle class="st1" cx="860" cy="347" r="2"/>
<polygon class="st1" points="306,121.2 303.2,121.2 303.2,118.5 301.8,118.5 301.8,121.2 299,121.2 299,122.7 301.8,122.7 
	301.8,125.5 303.2,125.5 303.2,122.7 306,122.7 "/>
<polygon class="st1" points="848,424.2 845.2,424.2 845.2,421.5 843.8,421.5 843.8,424.2 841,424.2 841,425.7 843.8,425.7 
	843.8,428.5 845.2,428.5 845.2,425.7 848,425.7 "/>
<path class="st0" d="M1088,614c0,16.6-243.6,74-544,74S0,630.5,0,614s243.6,14,544,14S1088,597.4,1088,614z"/>
<path class="st4" d="M1088,614c0,16.6-243.6,74-544,74S0,630.5,0,614s243.6,14,544,14S1088,597.4,1088,614z"/>
<ellipse class="st0" cx="544" cy="614" rx="544" ry="30"/>
<path class="st5" d="M568,572c0,33.1-14.8,24-33,24s-33,9.1-33-24s33-96,33-96S568,538.8,568,572z"/>
<path class="st6" d="M550,584.6c0,15.1-6.7,10.9-15,10.9s-15,4.2-15-10.9s15-43.6,15-43.6S550,569.6,550,584.6z"/>
<path class="st7" d="M498,605h74c5,0,9,4,9,9l0,0c0,5-4,9-9,9h-74c-5,0-9-4-9-9l0,0C489,609,493,605,498,605z"/>
<path class="st7" d="M498,587h74c5,0,9,4,9,9l0,0c0,5-4,9-9,9h-74c-5,0-9-4-9-9l0,0C489,591,493,587,498,587z"/>
<path class="st0" d="M137,490.5c0,55.3,34.7,100.1,77.6,100.1"/>
<path class="st8" d="M214.6,590.7c0-56,38.7-101.3,86.6-101.3"/>
<path class="st8" d="M165.1,495.5c0,52.6,22.1,95.1,49.5,95.1"/>
<path class="st0" d="M214.6,590.7c0-71.5,44.8-129.4,100.1-129.4"/>
<path class="st9" d="M198.3,591.4c0,0,11-0.3,14.3-2.7s16.9-5.2,17.8-1.4s16.5,18.8,4.1,18.9s-28.9-1.9-32.2-4
	S198.3,591.4,198.3,591.4z"/>
<path class="st10" d="M234.7,604.9c-12.4,0.1-28.9-1.9-32.2-4c-2.5-1.5-3.5-7-3.9-9.6c-0.2,0-0.4,0-0.4,0s0.7,8.9,4,10.9
	c3.3,2,19.8,4.1,32.2,4c3.6,0,4.8-1.3,4.8-3.2C238.8,604.2,237.4,604.9,234.7,604.9z"/>
<path class="st0" d="M721.4,527.1c0,38,23.9,68.8,53.3,68.8"/>
<path class="st8" d="M774.8,595.9c0-38.5,26.6-69.6,59.5-69.6"/>
<path class="st8" d="M740.8,530.5c0,36.1,15.2,65.4,34,65.4"/>
<path class="st0" d="M774.8,595.9c0-49.1,30.8-88.9,68.8-88.9"/>
<path class="st9" d="M763.5,596.3c0,0,7.6-0.2,9.8-1.9s11.6-3.6,12.2-1s11.4,12.9,2.8,13s-19.8-1.3-22.1-2.7
	S763.5,596.3,763.5,596.3z"/>
<path class="st10" d="M788.6,605.6c-8.5,0.1-19.8-1.3-22.1-2.7c-1.7-1.1-2.4-4.8-2.7-6.6c-0.2,0-0.3,0-0.3,0s0.5,6.1,2.8,7.5
	s13.6,2.8,22.1,2.7c2.5,0,3.3-0.9,3.3-2.2C791.3,605.1,790.4,605.6,788.6,605.6z"/>
<path class="st9" d="M893.8,618.7c0,0,11.4-1.7,14.5-4.6s16.9-7.5,18.2-3.7s19.5,17.4,6.6,19.1s-30.2,1.6-33.8-0.1
	S893.8,618.7,893.8,618.7z"/>
<path class="st10" d="M933.2,628.2c-12.9,1.7-30.2,1.6-33.8-0.1c-2.8-1.3-4.5-6.9-5.2-9.5c-0.2,0-0.4,0.1-0.4,0.1s1.8,9.1,5.5,10.8
	s21,1.7,33.8,0.1c3.7-0.5,4.8-2,4.5-3.9C937.3,626.9,936,627.8,933.2,628.2z"/>
<path class="st9" d="M614.3,617.9c0,0,9.6-1.5,12.2-3.9s14.3-6.3,15.4-3.1s16.5,14.7,5.6,16.1s-25.4,1.4-28.6-0.1
	S614.3,617.9,614.3,617.9z"/>
<path class="st10" d="M647.5,625.9c-10.9,1.4-25.4,1.4-28.6-0.1c-2.4-1.1-3.8-5.8-4.4-8c-0.2,0-0.3,0.1-0.3,0.1s1.5,7.7,4.7,9.1
	s17.7,1.5,28.6,0.1c3.1-0.4,4.1-1.7,3.8-3.3C651,624.8,649.9,625.6,647.5,625.9z"/>
<path class="st9" d="M122.4,613.1c0,0,7.5-1.1,9.5-3s11.1-4.9,12-2.4s12.8,11.5,4.4,12.6s-19.8,1.1-22.2,0S122.4,613.1,122.4,613.1z
	"/>
<path class="st10" d="M148.3,619.3c-8.4,1.1-19.8,1.1-22.2,0c-1.8-0.8-3-4.5-3.4-6.2c-0.2,0-0.2,0-0.2,0s1.2,6,3.6,7.1
	s13.8,1.1,22.2,0c2.4-0.3,3.2-1.3,3-2.6C151,618.5,150.1,619.1,148.3,619.3z"/>
<path class="st4" d="M383.7,601.3c0,30.2-42.1,20.9-93.7,20.9s-93.1,9.3-93.1-20.9s42.1-36.8,93.7-36.8S383.7,571.1,383.7,601.3z"/>
<path class="st0" d="M383.7,593.9c0,30.2-42.1,20.9-93.7,20.9s-93.1,9.3-93.1-20.9s42.1-36.8,93.7-36.8S383.7,563.7,383.7,593.9z"/>
<path class="st11" d="M391.7,455.4c-2.5,1.3-4.8,2.8-7.1,4.5c-2.2,1.7-3.9,4-4.9,6.6c-1.2-2.9-2.3-5.9-3-9
	c-1.8-5.5-3.8-10.9-6.2-16.2c3.9-1.5,7.3-4.1,9.8-7.5c4.8,4.8,9.7,9.8,12.1,16.1c0.4,1.1,1.6,2.3,1.9,3.2
	C394.7,454.6,392.8,454.8,391.7,455.4z"/>
<path class="st12" d="M436.9,571.9c5.2,1.7,10.1,4.3,14.4,7.7c0.3,0.2,0.6,0.5,0.7,0.9c0.1,0.8-1,1.2-1.8,1.4
	c-2.4,0.7-3.9,2.9-5.6,4.6s-4.5,3.1-6.6,1.7c-0.5-0.4-1-0.9-1.4-1.5l-8.6-11.2c2.9-1.6,6-3,9.1-4"/>
<path class="st13" d="M452.3,574.2c1.1,1.2,1.6,2.8,2.7,4c0.8,0.7,1.6,1.3,2.5,1.8l6.6,3.6c1,0.6,2.1,1.1,3.2,1.5
	c1.2,0.3,2.5,0.6,3.8,0.8c1.8,0.3,3.6,0.9,5.3,1.6c1.3,0.5,2.7,1.4,2.7,2.8c-0.1,0.7-0.3,1.3-0.8,1.8c-2.6,3.3-7.2,4-11.3,4.4
	c-9,0.9-18.2,1.7-26.9-0.5c-1.7-0.3-3.3-1-4.7-2c-2.6-2.2-3.2-6.2-2.2-9.5c0.3-1.3,1-2.4,2.1-3.1c1.4-0.8,3.1-0.4,4.7-0.5
	c1.7-0.2,3.3-0.8,4.9-1.5c1-0.5,2.2-1,2.4-2.2c0.2-1.1-1.1-2.2-0.8-3.2C447,571.8,451.3,573.2,452.3,574.2z"/>
<path class="st4" d="M452.3,574.2c1.1,1.2,1.6,2.8,2.7,4c0.8,0.7,1.6,1.3,2.5,1.8l6.6,3.6c1,0.6,2.1,1.1,3.2,1.5
	c1.2,0.3,2.5,0.6,3.8,0.8c1.8,0.3,3.6,0.9,5.3,1.6c1.3,0.5,2.7,1.4,2.7,2.8c-0.1,0.7-0.3,1.3-0.8,1.8c-2.6,3.3-7.2,4-11.3,4.4
	c-9,0.9-18.2,1.7-26.9-0.5c-1.7-0.3-3.3-1-4.7-2c-2.6-2.2-3.2-6.2-2.2-9.5c0.3-1.3,1-2.4,2.1-3.1c1.4-0.8,3.1-0.4,4.7-0.5
	c1.7-0.2,3.3-0.8,4.9-1.5c1-0.5,2.2-1,2.4-2.2c0.2-1.1-1.1-2.2-0.8-3.2C447,571.8,451.3,573.2,452.3,574.2z"/>
<path class="st12" d="M467.6,610.1c0.9,0.6,1.8,1.2,2.8,1.8c0.8,0.5,1.5,1.1,2,2c0.6,1.4-0.2,3-1.1,4.2c-2.7,3.7-6.4,6.6-10.6,8.2
	c-1.5,0.6-3,1-4.6,1.2c-0.4,0.1-0.7,0-1.1-0.1c-0.8-0.4-0.7-1.6-0.7-2.6c0-2.8-2.1-5-4-7s-3.8-4.5-3.4-7.3c0.4-1.6,1.2-3.1,2.4-4.2
	c1-1.3,2.3-2.5,3.6-3.4c1.9-1.3,2.6-0.6,4.5,0.6C460.7,605.7,464.2,607.9,467.6,610.1z"/>
<path class="st13" d="M458.6,623.6c1.5,0.4,3.1,0,4.3-1c1.2-1,2.1-2.2,2.8-3.6c0.7-1.2,1.3-2.5,1.7-3.8c0.6-1.5,1.1-3.3,2.5-4.2
	c1.6-1.1,4-0.7,5.6,0.4c1.6,1.2,3,2.6,4.3,4.1c3.5,3.2,7.7,5.6,12.3,6.8c4.6,1.2,9.2,2.2,13.9,3c0.9,0.1,1.8,0.4,2.7,0.9
	c1.9,1.1,2.5,3.7,2,5.8c-0.7,2.1-1.9,4-3.5,5.5c-1.3,1.5-2.8,2.7-4.6,3.6c-1.5,0.5-3.1,0.8-4.7,0.9c-7.7,0.5-15.4-0.1-23-1.8
	c-2.8-0.8-5.6-1.3-8.4-1.7c-1.7-0.2-3.5-0.1-5.2-0.2c-3.5-0.2-6.8-1.1-9.9-2.6c-0.8-0.3-1.4-0.8-1.8-1.5c-0.2-0.6-0.3-1.3-0.1-2
	l1.2-10.1c0.1-0.9,0.4-2,1.3-2.1c0.8-0.1,1.4,0.7,2,1.4c2.1,2.5,5.6,3.3,8.5,1.9"/>
<path class="st13" d="M391.9,496.5c5.1-0.6,10.9-0.7,14.3,3.1c2.1,2.3,2.7,5.5,3.5,8.6c1.1,5.1,3,10,5.5,14.6
	c1.6,2.8,3.6,5.5,4.8,8.5c1.3,3.1,1.7,6.4,2.5,9.7c3,12.9,10.2,24.4,20.5,32.7c-1.8,5-7.1,7.8-12.2,9.1c-2.2,1-4.8,0.2-6.3-1.7
	c-2.4-2.6-4.6-5.3-6.7-8.2c-7.4-9.9-14.9-20-18.9-31.6c-1.4-4.1-2.8-8.9-6.8-10.6c-2.3-1-4.9-0.7-7.3-0.3c-5.4,0.9-10.8,2.3-16,4.1
	c-5.6,1.9-11.9,4.3-17,1.4c-3-1.8-4.9-5.2-5.5-8.6c-0.5-3.5-0.5-7,0-10.5c0-1.6,0.4-3.1,1.1-4.6c0.7-1.1,1.6-2,2.7-2.7
	c4.5-3.5,9.6-6.2,15-8.1c5.1-1.8,10.7-2.4,16-3.3C384.5,497.4,388.2,496.9,391.9,496.5z"/>
<path class="st4" d="M391.9,496.5c5.1-0.6,10.9-0.7,14.3,3.1c2.1,2.3,2.7,5.5,3.5,8.6c1.1,5.1,3,10,5.5,14.6
	c1.6,2.8,3.6,5.5,4.8,8.5c1.3,3.1,1.7,6.4,2.5,9.7c3,12.9,10.2,24.4,20.5,32.7c-1.8,5-7.1,7.8-12.2,9.1c-2.2,1-4.8,0.2-6.3-1.7
	c-2.4-2.6-4.6-5.3-6.7-8.2c-7.4-9.9-14.9-20-18.9-31.6c-1.4-4.1-2.8-8.9-6.8-10.6c-2.3-1-4.9-0.7-7.3-0.3c-5.4,0.9-10.8,2.3-16,4.1
	c-5.6,1.9-11.9,4.3-17,1.4c-3-1.8-4.9-5.2-5.5-8.6c-0.5-3.5-0.5-7,0-10.5c0-1.6,0.4-3.1,1.1-4.6c0.7-1.1,1.6-2,2.7-2.7
	c4.5-3.5,9.6-6.2,15-8.1c5.1-1.8,10.7-2.4,16-3.3C384.5,497.4,388.2,496.9,391.9,496.5z"/>
<path class="st11" d="M420.8,533c2.3,1.2,4.5,2.7,6.4,4.5c2,2.3,3.4,5,4.4,7.8c0.4,1,0.7,2,0.8,3c0.1,1.1-0.3,2.1-1.1,2.8
	c-0.9,0.6-2,0.9-3.2,0.8c-1.5,0-2.9,0-4.4-0.1c-0.9,0-1.8-0.2-2.6-0.5c-0.8-0.4-1.4-0.9-2-1.5c-2.6-2.4-4.7-5.2-6.2-8.4
	c-1.1-2.3-2.8-7.7-1.1-10.2C413.4,528.7,419,531.9,420.8,533z"/>
<path class="st13" d="M349.9,532.1c7.5,2.4,15.4,2.7,23.3,3.4c13.2,1.2,26.1,3.8,38.8,7.7c2.6,0.6,5.1,1.8,7.3,3.4
	c1.7,1.6,3.1,3.4,4.2,5.4c2.1,3.1,3.9,6.4,5.6,9.7c1.4,3,2.5,6.2,3.8,9.3c4.4,10.3,11.5,19.3,20.4,26.1c1.6,1.2,3.4,2.6,3.9,4.6
	c0.2,1.3,0,2.6-0.6,3.8c-1.9,4.5-5.9,7.8-10.1,10.3c-1.8,1.1-3.8,2.2-4.7,4.1c-6.4-2.6-11.1-8.3-15.1-13.9s-7.5-11.8-12.5-16.5
	c-2.2-2.1-4.8-3.9-6.5-6.4c-2.7-3.8-3.4-9-7-11.9c-3.6-2.9-8.8-2.5-13.5-2.1c-23.8,2.3-47.9,2.1-71.7-0.8c-4.9-0.6-10-1.3-14.3-3.9
	s-7.6-7.3-7-12.3c0.6-4.6,4.4-8.3,8.7-10.1s9-2.1,13.7-2.7C327.9,538.3,339.1,535.9,349.9,532.1z"/>
<path class="st14" d="M281.5,541.7c0.6-3.9,2.1-7.6,3.1-11.5c0.5-2.4,1.1-4.8,1.8-7.2c0-0.1,0.1-0.1,0.1-0.2c0.5,0,0.9-0.3,1.2-0.7
	c0.1-0.3,0.2-0.7,0.1-1.1c0-0.4,0-0.8,0-1.2c1.6-2.6,3.3-5.2,5.1-7.6c3.2-4.6,6-9.5,8.8-14.3c2.3-4,4.6-8,6.5-12.2
	c1.4-3.1,2.6-6.4,4.2-9.5c5.6-10.9,15.7-19,26.5-24.8c10.4-5.6,21.6-9.3,32.6-13.7c0.3,0.3,0.5,0.6,0.8,0.9c5.9,8.1,6.5,18.7,9,28.4
	c1,3.9,2.3,7.8,2.3,11.9c0,6-2.9,11.5-5.7,16.8c-2.5,5-5.5,9.8-8.9,14.3c-1.7,2.1-3.5,4-5.2,6.1c-6.9,8.5-10.9,18.8-14.7,29
	c-2.2,5.9-5.9,11.1-8.4,17c-0.9,2.2-1.5,4.6-2.7,6.8s-3.3,4-5.7,4c-0.7,0-1.4-0.1-2.1-0.3c-8.8-2.3-16.1-8.1-23.4-13.5
	c-1.3-1-2.6-1.9-4-2.8c-1.4-0.9-2.8-1.7-4.2-2.4c-1.1-0.6-2.2-1.2-3.3-1.8c-3.6-2-7.1-3.9-10.8-5.6c-1.1-0.4-2.2-1-3.2-1.6
	C281.3,543.8,281.4,542.8,281.5,541.7z"/>
<circle class="st11" cx="396.4" cy="434.5" r="20.2"/>
<path class="st7" d="M410,425c1,1.8,3,2.7,5,2.3c2-0.4,3.6-1.6,4.7-3.3c1-1.7,1.6-3.6,1.7-5.6c0.3-1.5,0-3.1-0.8-4.4
	c-0.8-0.7-1.6-1.3-2.6-1.8c-1.3-0.8-2.4-1.9-3.2-3.2c-0.6-0.9-1-2-1.5-2.9c-1.8-3.5-5.4-6.3-9.4-6.2c-1.9,0.1-3.7,0.8-5.6,1.1
	c-6.3,1.1-13.1-2.2-18.9,0.4c-1.4,0.7-2.8,1.6-4,2.6c-1.6,1.4-3.2,2.8-4.7,4.3c-1.3,1.1-2.3,2.6-2.9,4.2c-0.8,3,1.1,6.3-0.1,9.1
	c-0.4,0.8-0.9,1.6-1.5,2.3c-1.3,1.9,0.1,9.5,0,11.8c-0.2,1.1,0.1,2.3,0.8,3.2c1,1.1,2.6,1.2,4,1.2l2.6,0c0.4,0,0.8,0,1.2-0.1
	c0.5-0.2,1-0.6,1.3-1c2.2-2.3,2.7-9.8,5.8-9.8c0.5,0,1,0.1,1.4,0.4c0.6,0.4,0.7,1.2,1.2,1.8c1,1.1,2.5,1.5,3.9,0.9
	c1.3-0.6,2.5-1.5,3.3-2.7c0.9-1.2,1.9-2.2,3.1-3c1.7-1,3.6-1.4,5.2-2.5c1.4-0.9,2.2-2.3,3.4-3.3c1-0.9,2.5-1,3.6-0.2
	C409,421.6,409.1,423.3,410,425z"/>
<path class="st4" d="M363.2,460.7c4.7-0.7,9.5-0.3,14.1,1.1c1.5,0.3,2.9,1.2,3.9,2.3c0.6,0.9,1,1.9,1.1,2.9
	c0.9,4.8,0.3,9.8-1.7,14.3c-0.3,0.5-0.4,1-0.2,1.5c0.2,0.3,0.5,0.6,0.8,0.8c1.1,1.1,1.1,2.8,0.1,3.9c-0.1,0.1-0.2,0.2-0.2,0.2
	c-0.4,0.3-0.9,0.5-0.9,1c-0.1,0.5,0.4,0.9,0.8,1.2c1.1,1.1,1.6,2.6,1.3,4.1c-0.2,0.6-0.3,1.2-0.4,1.8c0.1,0.8,0.3,1.5,0.7,2.2
	c0.6,1.5,0.8,3.2,0.6,4.8c-0.2,0.8-0.2,1.6-0.1,2.4c0.2,0.5,0.5,1,0.9,1.4c1.5,2,1.8,5.2-0.3,6.5c1.9,0.9,2.9,3,2.6,5
	c1.3-0.7,2.8,0.2,3.8,1.2s2.1,2.2,3.5,2.2c1,0,2-0.5,3-0.1c1.4,0.6,1.3,2.9,2.7,3.5c1.2,0.6,2.8-0.4,3.9,0.5
	c0.4,0.3,0.5,0.8,0.9,1.1c0.8,0.7,2,0.4,3,0.4c2.5,0.1,4.8,1.5,6,3.7c1.2,2.2,1.9,4.6,2.1,7.1c0.3,1.3,0.2,2.7-0.1,4.1
	c-0.3,1.4-1.5,2.4-2.9,2.6c-12.4,0.8-24.7-2.2-36.8-5.1c-3.6-0.9-7.2-1.9-10.1-4c-2.7-1.9-4.7-4.7-6.6-7.4c-3.6-5-7.1-10-9.7-15.6
	c-3.3-7.2-4.7-15-6.2-22.8c-0.5-2.1-0.7-4.2-0.5-6.3c0.4-2.5,1.4-4.9,2.8-7c1.7-2.8,3.6-5.4,5.7-8
	C353.7,464.3,358.2,461.6,363.2,460.7z"/>
<path class="st14" d="M364,459.9c4.7-0.7,9.5-0.3,14.1,1.1c1.5,0.3,2.9,1.2,3.9,2.3c0.6,0.9,1,1.9,1.1,2.9c0.9,4.8,0.3,9.8-1.7,14.3
	c-0.3,0.5-0.4,1-0.2,1.5c0.2,0.3,0.5,0.6,0.8,0.8c1.1,1.1,1.1,2.8,0.1,3.9c-0.1,0.1-0.2,0.2-0.2,0.2c-0.4,0.3-0.9,0.5-0.9,1
	c-0.1,0.5,0.4,0.9,0.8,1.2c1.1,1.1,1.6,2.6,1.3,4.1c-0.2,0.6-0.3,1.2-0.4,1.8c0.1,0.8,0.3,1.5,0.7,2.2c0.6,1.5,0.8,3.2,0.6,4.8
	c-0.2,0.8-0.2,1.6-0.1,2.4c0.2,0.5,0.5,1,0.9,1.4c1.5,2,1.8,5.2-0.3,6.5c1.9,0.9,2.9,3,2.6,5c1.3-0.7,2.8,0.2,3.8,1.2
	s2.1,2.2,3.5,2.2c1,0,2-0.5,3-0.1c1.4,0.6,1.3,2.9,2.7,3.5c1.2,0.6,2.8-0.4,3.9,0.5c0.4,0.3,0.5,0.8,0.9,1.1c0.8,0.7,2,0.4,3,0.4
	c2.5,0.1,4.8,1.5,6,3.7c1.2,2.2,1.9,4.6,2.1,7.1c0.3,1.3,0.2,2.7-0.1,4.1c-0.3,1.4-1.5,2.4-2.9,2.6c-12.4,0.8-24.7-2.2-36.8-5.1
	c-3.6-0.9-7.2-1.9-10.1-4c-2.7-1.9-4.7-4.7-6.6-7.4c-3.6-5-7.1-10-9.7-15.6c-3.3-7.2-4.7-15-6.2-22.8c-0.5-2.1-0.7-4.2-0.5-6.3
	c0.4-2.5,1.4-4.9,2.8-7c1.7-2.8,3.6-5.4,5.7-8C354.5,463.5,359,460.8,364,459.9z"/>
<rect x="-97.4" y="338" class="st14" width="52.9" height="61.2"/>
<rect x="-97.4" y="399.4" class="st5" width="52.9" height="61.2"/>
<rect x="-97.4" y="459.9" class="st8" width="52.9" height="61.2"/>
<rect x="-97.4" y="521.4" class="st0" width="52.9" height="61.2"/>
</svg>
