<svg xmlns="http://www.w3.org/2000/svg" xmlns:xlink="http://www.w3.org/1999/xlink" viewBox="0 0 434.51 337.65"><defs><style>.cls-1,.cls-19{fill:#62c7b9;}.cls-1,.cls-17,.cls-20,.cls-4{opacity:0.1;}.cls-1,.cls-15,.cls-20,.cls-23,.cls-4{isolation:isolate;}.cls-2{fill:#363340;}.cls-3{fill:#89555b;}.cls-5{fill:#ffc950;}.cls-6{fill:url(#linear-gradient);}.cls-7{fill:#565988;}.cls-8{fill:#f899a5;}.cls-9{fill:#bdd2e8;}.cls-10{fill:#503b4d;}.cls-11{fill:#ffccd0;}.cls-12{fill:#595c8a;}.cls-13{fill:#ff748e;}.cls-14{fill:#aac9f5;}.cls-15{opacity:0.05;}.cls-16{fill:#ffe0d1;}.cls-18{fill:#dce6f2;}.cls-20{fill:#00ab93;}.cls-21{fill:none;stroke:#535461;stroke-miterlimit:10;stroke-width:2px;}.cls-22{fill:#a8a8a8;}.cls-23{opacity:0.2;}.cls-24{fill:#ffd037;}</style><linearGradient id="linear-gradient" x1="285.6" y1="335.43" x2="285.6" y2="535.56" gradientTransform="matrix(1, 0, 0, -1, -154.41, 639.11)" gradientUnits="userSpaceOnUse"><stop offset="0" stop-color="gray" stop-opacity="0.25"/><stop offset="0.54" stop-color="gray" stop-opacity="0.12"/><stop offset="1" stop-color="gray" stop-opacity="0.1"/></linearGradient></defs><g id="Layer_2" data-name="Layer 2"><g id="Layer_1-2" data-name="Layer 1"><ellipse class="cls-1" cx="357.75" cy="269.87" rx="32.76" ry="5.54"/><ellipse class="cls-1" cx="141.3" cy="295.86" rx="82.56" ry="14.1"/><ellipse class="cls-1" cx="170.22" cy="247.85" rx="170.22" ry="18.05"/><path class="cls-2" d="M186.14,213.88s-2.43,7.23-5.44,9.36c-1.4,1-2.93.87-4.39-1.6a6.77,6.77,0,0,1-1.1-3.6c.14-4.84,7.84-6.25,7.84-6.25C185.39,211.12,186.14,213.88,186.14,213.88Z"/><path class="cls-2" d="M254.51,220.61a8.06,8.06,0,0,1-.87,1.17c-1.73,2-3.41,1.17-5-1.39-.18-.28-.36-.58-.54-.89-2.06-3.73,4-4.55,4-4.55S256.71,217,254.51,220.61Z"/><path class="cls-3" d="M244.73,224.15h-.1c-13.22,2.78-50.27,9.85-59.28,3.9-6.2-4.1-4.65-7.88-2.1-10.4a12,12,0,0,1,7.48-3.4c10.07-.8,43.42-3.4,54.3-2.47a8.5,8.5,0,0,1,3.2.66,4.86,4.86,0,0,1,2,3.13A7.25,7.25,0,0,1,244.73,224.15Z"/><path class="cls-4" d="M244.73,224.15a6.68,6.68,0,0,1-2.58-3.94,9.3,9.3,0,0,1,1.21-6.09,9.42,9.42,0,0,1,1.67-2.34,8.5,8.5,0,0,1,3.2.66,4.86,4.86,0,0,1,2,3.13A7.25,7.25,0,0,1,244.73,224.15Z"/><path class="cls-4" d="M184,222.57c.07-1.08,1.27-1.73,1.54-2.79.09-.34.09-.75.35-1a1.19,1.19,0,0,1,.68-.24,17.32,17.32,0,0,1,3.94-.21,15.8,15.8,0,0,1,2.56.57l4.22,1.16a.84.84,0,0,1,.33.16c.27.31-.19.75-.6.8a7.66,7.66,0,0,1-2.52-.52,24.33,24.33,0,0,0-3.42-.14c-.82-.06-1.63-.27-2.45-.33a3.34,3.34,0,0,0-2.34.59,1.71,1.71,0,0,0-.44,2.21c.49.67.52,1.4-.62,1.2A1.48,1.48,0,0,1,184,222.57Z"/><path class="cls-4" d="M188.75,223a5.69,5.69,0,0,0,1.6,0c1.4,0,2.55,1.15,3.9,1.48.9.22,1.87.08,2.79.24.67.11,1.3.38,2,.54a11.46,11.46,0,0,0,6.34-.74c-.15-.64-.93-.87-1.57-1l-10.5-1.73a13.71,13.71,0,0,0-3.94-.21c-.34,0-1.11,0-1.26.3S188.41,222.94,188.75,223Z"/><path class="cls-4" d="M235.2,215.83c-1.23-.11-2.41-.54-3.64-.76a4.69,4.69,0,0,0-3.57.54c1.94,1.35,4.44,1.5,6.78,1.84a1.89,1.89,0,0,1,.86.27.71.71,0,0,1,.3.79c-.16.39-.68.43-1.11.43a.8.8,0,0,0,.4,1.06l0,0a1.72,1.72,0,0,0,1.3-.13,8.85,8.85,0,0,1,1.21-.56,5.38,5.38,0,0,1,2.68.25,2.85,2.85,0,0,0,2.6-.39.91.91,0,0,0,.31-.61c.06-1.1-2.74-1.69-3.53-2.09C238.33,215.73,236.81,216,235.2,215.83Z"/><path class="cls-2" d="M185.56,232.12c-.19.33-.93.48-2,.51a27.77,27.77,0,0,1-6.35-.82,9,9,0,0,1-3.1-1.19.77.77,0,0,1-.28-.44c-.35-1.71,5.22-5.26,5.51-5.3a11.18,11.18,0,0,1,1.73-.07C186.94,225.07,186.21,231,185.56,232.12Z"/><path class="cls-4" d="M183.59,232.63a27.77,27.77,0,0,1-6.35-.82,6.41,6.41,0,0,1,1-.57C181,230.92,182.61,231.58,183.59,232.63Z"/><path class="cls-2" d="M178.22,231.66c-.31,0-7,4.31-5.23,5.74s10.7,2.78,11.42,1.51S185.92,230.77,178.22,231.66Z"/><path class="cls-4" d="M253.64,221.78c-1.73,2-3.41,1.17-5-1.39a9.62,9.62,0,0,1,2.47-.73,6.68,6.68,0,0,1,1.3.8A4.84,4.84,0,0,1,253.64,221.78Z"/><path class="cls-2" d="M253.54,225.84c-1.07,1.76-2.12,2.43-3.16,2.24s-2.2-1.42-3.26-3.35c-2.06-3.72,4-4.54,4-4.54a7.16,7.16,0,0,1,1.3.79C253.59,221.89,254.94,223.53,253.54,225.84Z"/><path class="cls-3" d="M250.41,235.91c-.73,2.23-4.33,2.85-6.93,3.28a16.94,16.94,0,0,0-2.21.44c-1.91.63-15.79.63-15.79.63H195.42s-7.36,2-11.82-.79a4.88,4.88,0,0,1-2.52-3.15,5,5,0,0,1,.33-2.66,13.06,13.06,0,0,1,1-2.07c.46-.82,1-1.69,1.59-2.6l0,0c2.77-4.22,8.33-1.46,10.93-1.7s7.16-.7,7.16-.7,36.79-2.45,44.13-3.72a6.59,6.59,0,0,1,1.09-.1C253.33,222.73,251.35,233.06,250.41,235.91Z"/><path class="cls-4" d="M196.4,233.37c-1.87,2-4.77,1.89-7.37,1.87l-4.73,0a5.06,5.06,0,0,0-1.64.16,1.73,1.73,0,0,0-1.15,1.1l-.41-.13a5.14,5.14,0,0,1,.32-2.66,13.89,13.89,0,0,0,2.13.16c1-.09,1.85-.66,2.82-.83,1.38-.23,2.76.38,4.15.46C192.49,233.58,194.56,232.63,196.4,233.37Z"/><path class="cls-4" d="M213.93,228.35a33.75,33.75,0,0,0-3.64,1.09c-3.36,1-6.95.29-10.43.62-3.77.37-7.58,1.9-11.23.87-.6-.17-1.3-.38-1.8,0a4.78,4.78,0,0,0-.44.46,2.79,2.79,0,0,1-2.28.4l-1.7-.19c.47-.83,1-1.69,1.6-2.6l0,0a4.64,4.64,0,0,1,2.45-.54,16.91,16.91,0,0,1,2.86,1,16.27,16.27,0,0,0,7.6-.12c2.65-.53,5.4-.17,8.07-.68.8-.15,1.6-.34,2.4-.47A16.84,16.84,0,0,1,213.93,228.35Z"/><path class="cls-4" d="M224.58,229.58a2.93,2.93,0,0,0,1-.33,4.28,4.28,0,0,0,.8-.79,4.27,4.27,0,0,1,1.92-1.16c-.22.73-.36,1.69.29,2.08a2.93,2.93,0,0,0,1.24.19c.43,0,.89.34.82.75s-.52.53-.9.6a15.14,15.14,0,0,1-4.24.39c-1.38-.13-2.78-.61-4.1-.21-.64.19-2.84.72-1.32-.39C221.24,229.88,223.24,229.85,224.58,229.58Z"/><path class="cls-4" d="M250.41,235.91c-.73,2.23-4.33,2.85-6.93,3.28a4.22,4.22,0,0,1-.43-1A6.49,6.49,0,0,1,243,236c.11-1.59.27-3.18.47-4.77a15.25,15.25,0,0,1,1.83-6.34,7.13,7.13,0,0,1,2.06-2.14C253.33,222.73,251.35,233.06,250.41,235.91Z"/><path class="cls-2" d="M245.35,246.45a25.43,25.43,0,0,1-4,1.2c-3.28.7-7.5.77-8.23-3.13-1.18-6.54,3.9-8,3.9-8L243,240Z"/><path class="cls-2" d="M233.63,248.83c-.65,1.2-5.33,1.69-8.29,1.87l-1.48.08-.93,0c-.32,0-10.94,0-10.23-7.3.35-3.62,2.76-4.89,5.09-5.26a13.28,13.28,0,0,1,4.66.19s7.53.55,9.71,2.06c1.11.76,1.73,2.48,1.92,4.2A7.79,7.79,0,0,1,233.63,248.83Z"/><path class="cls-4" d="M180.7,223.23c-1.4,1-2.93.86-4.39-1.6a6.77,6.77,0,0,1-1.1-3.6,16.67,16.67,0,0,1,3.43.84C179.23,219.16,180.13,221.11,180.7,223.23Z"/><path class="cls-4" d="M180.87,229.23c-1,1.19-4.58,1.33-7,1-.36-1.71,5.22-5.26,5.51-5.3a11.08,11.08,0,0,1,1.73-.07C181.46,226.67,181.52,228.46,180.87,229.23Z"/><path class="cls-2" d="M180.68,229c-1.5,1.83-9.13,1.2-9.37,0a2.85,2.85,0,0,0-.84-1.17,22.93,22.93,0,0,1-3.6-3.82,4.94,4.94,0,0,1-.47-1c-1-2.6,5.71-5.33,5.71-5.33s5.15.65,6.42,1.3S182.17,227.19,180.68,229Z"/><path class="cls-4" d="M170.48,227.84a23,23,0,0,1-3.61-3.82A4.38,4.38,0,0,1,170.48,227.84Z"/><path class="cls-2" d="M169.81,231.39c-.72,1.27-9.68-.08-11.42-1.51a.72.72,0,0,1-.29-.59c0-1.76,5.24-5.11,5.52-5.14,4.83-.56,6.31,1.93,6.57,4.18A5.92,5.92,0,0,1,169.81,231.39Z"/><path class="cls-2" d="M174.31,232.76c-.72,1.26-9.67-.08-11.42-1.51a.76.76,0,0,1-.29-.6c0-1.76,5.25-5.11,5.52-5.14,4.83-.56,6.31,1.93,6.57,4.18A6,6,0,0,1,174.31,232.76Z"/><path class="cls-4" d="M169.81,231.39c-.72,1.27-9.68-.08-11.42-1.51a.72.72,0,0,1-.29-.59,11.1,11.1,0,0,1,6.06-.37,18.81,18.81,0,0,1,6-.59A5.92,5.92,0,0,1,169.81,231.39Z"/><path class="cls-2" d="M178.77,239.19a8.42,8.42,0,0,1-.71.87,20,20,0,0,1-4.33,3.61c-1.32.82-4.27.74-7.54.25-5.5-.82-11.88-2.78-12.88-3.42-1.58-1-.95-4.69,2-8.67s8.87-2.5,8.87-2.5C179.38,225.64,178.77,239.19,178.77,239.19Z"/><path class="cls-4" d="M178.06,240.08a19.71,19.71,0,0,1-4.33,3.6c-1.32.83-4.27.75-7.54.26a10.6,10.6,0,0,1-.16-2.81c.31-6.66,5.38-5.41,5.38-5.41A25.41,25.41,0,0,1,178.06,240.08Z"/><path class="cls-2" d="M173.46,247.07a6.19,6.19,0,0,1-1.49.17c-2.62-.08-6.26.87-5.94-5.79s5.38-5.41,5.38-5.41a29.6,29.6,0,0,1,5.12,3,10.81,10.81,0,0,1,2.51,2.54C180.65,244.12,176.41,246.44,173.46,247.07Z"/><path class="cls-4" d="M253.54,225.84c-1.07,1.76-2.12,2.43-3.16,2.24a31.3,31.3,0,0,1,2-7.1C253.59,221.89,254.94,223.53,253.54,225.84Z"/><path class="cls-2" d="M272.65,223.81s-6.66,8.14-7,8.46a45.46,45.46,0,0,1-11.56,1.91,4,4,0,0,1-2.6-.64c-1.9-1.91.15-10.63,2.53-14.62s8.16-1.41,8.16-1.41c.52-.08,3.53,1.76,6.19,3.47C270.64,222.44,272.65,223.81,272.65,223.81Z"/><path class="cls-4" d="M272.65,223.81s-6.66,8.14-7,8.46a45.46,45.46,0,0,1-11.56,1.91c.07-2,2.05-4.07,2.05-4.07s5.47-1.15,7.93-5.41a11.81,11.81,0,0,1,.87-1.34,6.27,6.27,0,0,1,3.41-2.38C270.64,222.44,272.65,223.81,272.65,223.81Z"/><path class="cls-2" d="M279.47,239.19a5.78,5.78,0,0,1-2.45.61c-3.78.37-10.8-.17-16.78-1.06l-1.86-.29c-8.09-1.35-2.22-7.49-2.22-7.49s5.47-1.15,7.93-5.42a11.69,11.69,0,0,1,.87-1.33,6.37,6.37,0,0,1,8.91-1.39,7,7,0,0,1,.82.72c3,3.1,6.84,7,8.5,8.32C286.13,234.24,281.45,237.82,279.47,239.19Z"/><path class="cls-2" d="M287.18,250a5.78,5.78,0,0,1-2.45.61c-3.79.37-10.8-.17-16.79-1.06l-1.85-.29c-8.09-1.35-2.22-7.49-2.22-7.49s5.47-1.15,7.93-5.42a12.78,12.78,0,0,1,.87-1.34,6.4,6.4,0,0,1,8.93-1.37,6.86,6.86,0,0,1,.81.71c3,3.1,6.83,7,8.5,8.32C293.84,245.07,289.16,248.66,287.18,250Z"/><path class="cls-2" d="M261.7,242.9A25.86,25.86,0,0,1,258,244c-3.32.75-7.8,1-8.54-3.07-1.19-6.53,3.9-8,3.9-8l6,3.5.88,2.42Z"/><path class="cls-2" d="M256.93,240.64a25.86,25.86,0,0,1-3.66,1.14c-3.31.75-7.79,1-8.53-3.07-1.19-6.53,3.89-8,3.89-8l6,3.51.89,2.41Z"/><path class="cls-2" d="M251.71,243.69a26.27,26.27,0,0,1-3.66,1.14c-3.32.75-7.8,1-8.55-3.07-1.18-6.53,3.9-8,3.9-8l5.95,3.51.89,2.41Z"/><path class="cls-4" d="M261.7,242.9A25.86,25.86,0,0,1,258,244l-.76-1.19a2.08,2.08,0,0,1-.33-1,2.12,2.12,0,0,1,1.68-2.29,3.77,3.77,0,0,0,1.59-.72Z"/><path class="cls-4" d="M277,239.8c-3.78.37-10.8-.17-16.78-1.06a3.82,3.82,0,0,0,2.6-2.27c1.73-3.93,8.16-2.65,8.16-2.65C274,234.4,276,236.84,277,239.8Z"/><path class="cls-2" d="M276.54,250.5c-2.09,3.94-9,3.11-12,1.8-.86-.39-1.38-.81-1.36-1.16,0-1-2.53-5.15-4.56-8.3a2.13,2.13,0,0,1,.61-3,2.34,2.34,0,0,1,.73-.3,3.82,3.82,0,0,0,2.82-2.33c1.73-3.93,8.17-2.65,8.17-2.65C277.41,235.84,279.24,245.43,276.54,250.5Z"/><path class="cls-4" d="M245.35,246.45a25.43,25.43,0,0,1-4,1.2c0-.43,0-.89,0-1.34A17.47,17.47,0,0,1,243,240Z"/><path class="cls-4" d="M264.58,252.3c-.86-.39-1.38-.81-1.36-1.16,0-1-2.53-5.15-4.56-8.3a2.1,2.1,0,0,1-.34-1C263.84,244.92,264.76,249.36,264.58,252.3Z"/><path class="cls-2" d="M262.9,255.34c-.24-.16-12,2.46-17,0l-.1-.05c-3-1.54-4-5.24-3.78-8.92a17.58,17.58,0,0,1,1.66-6.45c2.3-4.64,7.74,1,7.74,1l4.87.35C266.64,246.14,263.14,255.5,262.9,255.34Z"/><path class="cls-4" d="M233.63,248.83c-.65,1.2-5.33,1.69-8.29,1.87l-1.48.08a9,9,0,0,1,0-1c.72-7.3,9.76-5.08,9.76-5.08l.43,0A7.53,7.53,0,0,1,233.63,248.83Z"/><path class="cls-4" d="M245.75,255.29c-3-1.54-4-5.24-3.78-8.92a7.29,7.29,0,0,1,2.17.86C246.2,248.67,246.53,253.33,245.75,255.29Z"/><path class="cls-2" d="M233.64,245.19s-9-2.22-9.76,5.07,9.92,7.3,10.24,7.3,9.75-.24,10.7-2,.7-6.83-1.47-8.33S233.64,245.19,233.64,245.19Z"/><path class="cls-4" d="M173.46,247.07c.41-1.7,1.56-3.85,2.48-6.81a4.07,4.07,0,0,1,.59-1.2A10.81,10.81,0,0,1,179,241.6C180.65,244.12,176.41,246.44,173.46,247.07Z"/><path class="cls-2" d="M190.5,254.07a3.14,3.14,0,0,1-1.24.3c-4,.33-13.43-2.67-14.85-4.5-1.59-2.06.55-4.76,2.06-9.61s8.88-2.16,8.88-2.16c1.66-.67,5.39,4.33,6.58,5.8a3.37,3.37,0,0,1,.53,1.32C193.05,247.85,192.7,252.91,190.5,254.07Z"/><path class="cls-2" d="M203.62,251.86a3.37,3.37,0,0,1-1.25.3c-4,.33-13.43-2.68-14.85-4.51-1.59-2.06.56-4.76,2.06-9.6s8.88-2.17,8.88-2.17c1.67-.67,5.4,4.33,6.58,5.8a3.37,3.37,0,0,1,.54,1.33C206.17,245.63,205.82,250.7,203.62,251.86Z"/><path class="cls-4" d="M190.5,254.07a3.14,3.14,0,0,1-1.24.3c-1.1-2.65,1.44-6.68,3.2-9.15C193.05,247.85,192.7,252.91,190.5,254.07Z"/><path class="cls-4" d="M225.34,250.7c-1.33.08-2.31.11-2.41.11-.32,0-10.94,0-10.23-7.3.35-3.62,2.76-4.9,5.09-5.27l.2.14s0,5.06.33,5.2l4.72,1.76a1.91,1.91,0,0,1,1,.81A10.14,10.14,0,0,1,225.34,250.7Z"/><path class="cls-2" d="M217.62,238.71s-4.91-4.07-16.09,2.67c0,0-5.71,0-7.62,2.52s-7.77,10.23-1.9,12.5,25.69,5.92,30.61.6a8.62,8.62,0,0,0,1-10.53,1.86,1.86,0,0,0-1-.81c-1.3-.49-4.46-1.65-4.72-1.76S217.62,238.71,217.62,238.71Z"/><path class="cls-5" d="M221.91,195.94c0,2.56-.09,5.08-.24,7.4a18.72,18.72,0,0,1-16,17.35,13.62,13.62,0,0,1-6.43-.52,10.57,10.57,0,0,1-2.49-1.25c-9.34-6.37-11.43-12.9-2.47-31.86s.63-27.28.63-27.28c7.37-.56,7.93,24.18,7.93,24.18,1.9-.4,3.49-7.21,3.49-7.21,1.73.55-1.07,11.65-1.07,11.65s4.79-.24,3.29-18.16,3.81-19.35,3.81-19.35c-4.36,10.47.15,18.32,6.26,27.6C221.16,182.4,221.9,189.28,221.91,195.94Z"/><path class="cls-4" d="M202,188s-7.14,6.49-7.06,15.3c0,0-1.34-2.85-1.73-2.53s1,9.83,5,9.59A27.63,27.63,0,0,1,202,188Z"/><path class="cls-4" d="M221.91,195.94c0,2.56-.09,5.08-.24,7.4a18.72,18.72,0,0,1-16,17.35,13.62,13.62,0,0,1-6.43-.52c0-2.21,1.44-5,5-8.59,15.13-15.06,9-26.82,9-26.82C217.94,186.59,220.52,191.39,221.91,195.94Z"/><path class="cls-5" d="M233.25,160.6s-12.61-1.66-8.89,21-.17,24.16-.17,24.16-.32-17.13-10.4-21c0,0,6.17,11.75-8.95,26.81s8.71,16.69,8.71,16.69,11.66,4.39,20.38-7.82l.26-.36A25,25,0,0,0,235.85,194c-3.71-7-6.38-15.71-6.49-17.67C229.12,172.08,226.9,161.47,233.25,160.6Z"/><path class="cls-4" d="M232.21,196a31.49,31.49,0,0,1-6.74,22.35s-1.42-5.07-1.82-4.76-.49,9.67-7.93,13.32c0,0,10.94,6.91,17.29-6S232.21,196,232.21,196Z"/><path class="cls-6" d="M216.07,278.93a10.83,10.83,0,0,0-6.12-2,17.66,17.66,0,0,1-3.9-.43c-2-.55-14.15-1.17-15.59-1.24a.17.17,0,0,0-.14,0l-2.16-1.61-.32.78c-.69-.35-1.42-.77-2.09-1.18l-3-5.83s-.3-6-2.25-22.47-15.11-12.22-15.11-12.22l-40.84,22.7-1.74.95,0-.52a13.14,13.14,0,0,0,2.33-1A35.39,35.39,0,0,0,140,239.71a20.77,20.77,0,0,0,1.3-2.89l3-15.66a18.27,18.27,0,0,0-1-6.13l.53-.66,1.3-1.63s4.11-6.66-1.42-12.52c-3.13-3.3-5.3.18-6.6,3.84a9.09,9.09,0,0,0-2.41-1.66l-8.27-2.6c.09-.26.16-.53.23-.8l0,.09c.17-.68.29-1.38.43-2.05a34.29,34.29,0,0,1,1.67-5.51l-.39,1.13c.71-2,1.54-3.93,2.23-5.91.1-.3.2-.59.29-.89l-.21.58c1.13-3.35,1.82-7,.8-10.36-.56-1.8-1.59-3.49-1.74-5.37a8.34,8.34,0,0,1,0-1c0-.29.05-.59.08-.89l.17,0a.83.83,0,0,0,.21-.06l.19-.06.23-.09.12-.06a2.53,2.53,0,0,0,.33-.16l.94-9.38h0l0-.57v-.08l-.07,0-.08-.41-.08,0c-.82-4-3.73-15.83-9.91-19.49a15.55,15.55,0,0,0,.31-19.66,7.26,7.26,0,0,0,3.29-3.82c.72-2.43-.9-5.2-3.18-7.33a2.08,2.08,0,0,0-.21-.21l-.06-.07-.43-.4h0a13.84,13.84,0,0,0-5.84-3.29c-3.68-.71-7.22,1.49-10.89,2.23a48.87,48.87,0,0,1-7.17.43,34.58,34.58,0,0,0-7.42,1.12c-1.9.51-3.92,1.3-4.92,3a7.74,7.74,0,0,0-.78,3.75c-.12,4,.15,7.93-.36,11.85a20.82,20.82,0,0,1-2.11,7,14.41,14.41,0,0,1-1.92,2.79c-.25.29-.52.56-.79.82a19.56,19.56,0,0,1-8.62,4.23c-2.91.76-6.38,1.63-7.25,4.41-.43,1.35-.1,2.84-.47,4.2-.84,3-4.7,4.33-6.07,7.17-1.13,2.35-.21,5.25,1.53,7.21l0,0h0c.25.27.51.52.77.77a19.06,19.06,0,0,0,5,3.39,73.69,73.69,0,0,0-8.69,18.62,57.86,57.86,0,0,0-2.5,11.77C52,212.32,33,236.67,53.23,242.6a22.11,22.11,0,0,0,3.6.74,27.88,27.88,0,0,0,.76,2.71,7.25,7.25,0,0,0,7.53,1.38c0,.95,0,1.83.07,2.6a19.07,19.07,0,0,0,2.2,8.46l1.3,2.47a9.48,9.48,0,0,1,1,3.11l.71,4.62A20.32,20.32,0,0,0,72,274.12l.81,1.78a20.36,20.36,0,0,1,1.26,3.64c1.14,4.63,6.84,19.19,34.39,24.07a4.56,4.56,0,0,0,4.2-1.47c.38-.43.8-.91,1.25-1.45a12.31,12.31,0,0,0,3.09-.16,17.87,17.87,0,0,0,2.72-.73l19.68,1.73a59.6,59.6,0,0,0,8.66.12,58.9,58.9,0,0,0,7.93-1,85.41,85.41,0,0,1,13.35-1.42h.76a27.09,27.09,0,0,0,8.54-1.57,24.65,24.65,0,0,0,2.84-1.24,22.23,22.23,0,0,0,2-1.15,13.57,13.57,0,0,0,4.25-4.08c5.37.62,21.14,1.9,27.8-3.79C220.09,283.46,218.41,280.65,216.07,278.93Zm-127.75-139,.17-.1a3,3,0,0,1,1.74-.1l7.33,1.11a22.41,22.41,0,0,1-2.3,2.27l-.32-.12c-1.54-.67-4.76.79-8.52,3.17a17.16,17.16,0,0,1,1-5v0A2.6,2.6,0,0,1,88.32,139.94Zm15.92,55.94.2-.51a13.09,13.09,0,0,1,1.19,2.25C105.2,197,104.74,196.46,104.24,195.88Zm1.06-3,.7-2.14h.31a3.87,3.87,0,0,0,.45,2.92l-1.55-.49Zm59.4,75.65.14.85a83.37,83.37,0,0,0-11.47-1.09h-1.15l7.66-9.5C159.28,263.46,164.7,268.54,164.7,268.54Z"/><path class="cls-7" d="M98.92,191.73l35.66,11.4s8.81,3.76,4.19,16.17-18.34,38-18.34,38l-23-11.7S120,196.93,98.92,191.73Z"/><path class="cls-4" d="M98.92,191.73l35.66,11.4s8.81,3.76,4.19,16.17-18.34,38-18.34,38l-23-11.7S120,196.93,98.92,191.73Z"/><path class="cls-7" d="M93.79,195.4l35.66,11.41s8.81,3.75,4.19,16.17-18.34,38-18.34,38l-23-11.7S114.87,200.6,93.79,195.4Z"/><path class="cls-8" d="M120.5,139.46c-2.31,1.23-4.08,3.68-5.39,6.39a44.33,44.33,0,0,0-3.47,11.8S80,153.54,90.2,148.78a24.82,24.82,0,0,0,8.85-6.71,16.83,16.83,0,0,0,3.28-5.86S127.43,135.78,120.5,139.46Z"/><path class="cls-9" d="M105.08,149.59c-2.11-1.3-3.82-3.29-6.22-4l-2.66-1.05c-1.68-.74-5.41,1.19-9.65,4.09a72.5,72.5,0,0,0-28.31,39,58.46,58.46,0,0,0-2.41,11.6c-1.08,13.65-19.37,37.69.12,43.52S91,223.92,91,223.92L99.4,209.2a82.59,82.59,0,0,0,6.8-15.47L112.56,174a22.34,22.34,0,0,0-4.79-22.09A14.05,14.05,0,0,0,105.08,149.59Z"/><path class="cls-4" d="M120.5,139.46c-2.31,1.23-4.08,3.68-5.39,6.39A15.65,15.65,0,0,1,99,142.07a16.83,16.83,0,0,0,3.28-5.86S127.43,135.78,120.5,139.46Z"/><circle class="cls-8" cx="110.09" cy="130.21" r="15.59"/><path class="cls-4" d="M125.63,116.93c-1.3,4.41-7.72,4.77-9,9.69-.61,2.31-.18,5.17-2,6.71-1.53,1.3-3.8.92-5.81,1s-4.48,1.3-4.18,3.27c.12.79.68,1.46.79,2.25a2.76,2.76,0,0,1-2.06,2.74,7.84,7.84,0,0,1-3.7,0l-8-1.22a2.73,2.73,0,0,0-1.67.09l-.17.1a2.61,2.61,0,0,0-.81,1.18v0c-1,2.37-1,5-1.25,7.56s-1,5.24-3,6.86c-3.28,2.66-9.09,1.73-11.13,5.43-.79,1.42-.72,3.15-1.11,4.72s-1.6,3.25-3.22,3.09a4.27,4.27,0,0,1-1.47-.54,20,20,0,0,1-6.32-4.29c-1.68-1.93-2.56-4.79-1.47-7.11,1.3-2.8,5-4.08,5.85-7.07.36-1.34,0-2.81.46-4.14.86-2.74,4.21-3.6,7-4.33a18.74,18.74,0,0,0,8.32-4.17c.27-.26.52-.53.77-.82a14.17,14.17,0,0,0,1.85-2.74,21.05,21.05,0,0,0,2-6.93c.49-3.87.22-7.8.34-11.7a7.65,7.65,0,0,1,.76-3.7c1-1.65,2.91-2.43,4.76-2.93a32.73,32.73,0,0,1,7.16-1.1,44.57,44.57,0,0,0,6.93-.44c3.54-.72,7-2.9,10.51-2.19C120.52,107,126.91,112.53,125.63,116.93Z"/><path class="cls-10" d="M125.2,116.5c-1.3,4.41-7.72,4.76-9,9.69-.61,2.31-.19,5.16-2,6.71-1.52,1.3-3.79.92-5.8,1s-4.48,1.3-4.18,3.27c.12.79.68,1.46.78,2.24a2.74,2.74,0,0,1-2.06,2.75,7.93,7.93,0,0,1-3.69,0l-8-1.22a2.62,2.62,0,0,0-1.66.09l-.18.1a2.62,2.62,0,0,0-.8,1.17v0c-1,2.38-1,5-1.26,7.57s-1,5.24-3,6.86c-3.28,2.66-9.1,1.73-11.14,5.42-.78,1.43-.71,3.15-1.1,4.73s-1.61,3.25-3.22,3.08a4.17,4.17,0,0,1-1.48-.53A20.1,20.1,0,0,1,61,165.15c-1.69-1.93-2.56-4.79-1.47-7.11,1.3-2.81,5-4.08,5.84-7.07.36-1.35,0-2.81.46-4.14.87-2.74,4.21-3.6,7-4.34a18.68,18.68,0,0,0,8.32-4.17,9.71,9.71,0,0,0,.76-.81,13.39,13.39,0,0,0,1.85-2.75,20.75,20.75,0,0,0,2-6.93c.5-3.87.23-7.79.34-11.69a7.81,7.81,0,0,1,.77-3.71c.95-1.65,2.9-2.42,4.76-2.92a33.36,33.36,0,0,1,7.16-1.11,43.44,43.44,0,0,0,6.93-.43c3.54-.72,7-2.9,10.51-2.19C120.09,106.57,126.48,112.09,125.2,116.5Z"/><path class="cls-7" d="M89.39,141.11a2.59,2.59,0,0,0-.8,1.18l-.81-.37a15.55,15.55,0,0,1-2.6-1.48,13.63,13.63,0,0,1-1.44-1.3c-.51-.5-1.3-1-1.79-1.64a13.41,13.41,0,0,0,1.84-2.74,1.08,1.08,0,0,1,.44,0c.74.19,1.16,1,1.54,1.63A23.87,23.87,0,0,0,89.39,141.11Z"/><path class="cls-4" d="M121.88,109c1.86,2,3.08,4.44,2.45,6.6-1.3,4.42-7.72,4.77-9,9.7-.61,2.3-.18,5.16-2,6.7-1.53,1.3-3.8.92-5.81,1s-4.48,1.3-4.18,3.27c.13.79.68,1.46.79,2.25a2.76,2.76,0,0,1-2.06,2.74,7.84,7.84,0,0,1-3.7,0l-8-1.22a2.73,2.73,0,0,0-1.67.09l-.17.1a2.61,2.61,0,0,0-.81,1.18v0c-1,2.37-1,5-1.25,7.56s-1,5.24-3,6.86c-3.28,2.66-9.09,1.73-11.13,5.43-.79,1.42-.72,3.15-1.11,4.72s-1.6,3.25-3.22,3.09a4.27,4.27,0,0,1-1.47-.54,24.11,24.11,0,0,1-5.41-3.38,20.1,20.1,0,0,0,6.27,4.25,4.17,4.17,0,0,0,1.48.53c1.61.17,2.84-1.5,3.22-3.08s.32-3.3,1.1-4.73c2-3.7,7.86-2.76,11.14-5.42,2-1.62,2.73-4.34,3-6.86s.29-5.2,1.26-7.57v0a2.62,2.62,0,0,1,.8-1.17l.18-.1a2.62,2.62,0,0,1,1.66-.09l8,1.23a8.25,8.25,0,0,0,3.7,0,2.78,2.78,0,0,0,2.06-2.75c-.11-.79-.67-1.46-.79-2.25-.3-2,2.17-3.22,4.18-3.27s4.28.34,5.81-1c1.82-1.54,1.39-4.4,2-6.7,1.3-5,7.73-5.28,9-9.7C125.92,114,124.21,111.17,121.88,109Z"/><path class="cls-11" d="M144.65,213.33l-1.27,1.61L141.76,217l-7.66-.43.64-2.85.74-3.28s2.45-15.24,7.79-9.46S144.65,213.33,144.65,213.33Z"/><path class="cls-12" d="M181.53,271.52s5.56,3.82,6.72,3.46-1.38,7.51-3.36,7.87a6.62,6.62,0,0,1-4.15-1.08Z"/><path class="cls-13" d="M186.15,273.39l2.1,1.59s13.13.65,15.16,1.23a17,17,0,0,0,3.76.43,10.23,10.23,0,0,1,5.91,2c2.26,1.69,3.9,4.46-.5,8.3-7.8,6.83-28.59,3.51-28.59,3.51L181.24,286Z"/><path class="cls-14" d="M119.16,268.7l30.75-.57s27.29-.87,35.23,12.56c4.57,7.73-.38,12.49-5.4,15.16a24.93,24.93,0,0,1-11,2.75A81,81,0,0,0,155.12,300a55.93,55.93,0,0,1-16,.87L110,298.28Z"/><path class="cls-15" d="M179.74,295.83a24.78,24.78,0,0,1-11,2.77A79.85,79.85,0,0,0,155.13,300a55.62,55.62,0,0,1-16,.86l-18.95-1.66-8.9-.8-1.18-.1.44-1.41,8.66-28.19,30.75-.58s1,0,2.67,0A77.24,77.24,0,0,1,164,269.26c7.11,1.26,15.16,3.9,19.72,9.34a15,15,0,0,1,1.47,2.08C189.72,288.42,184.77,293.18,179.74,295.83Z"/><path class="cls-4" d="M165.13,285.26a9.28,9.28,0,0,0-6.49-1.62c-2.28.16-4.51.77-6.78,1-1.9.23-3.82.21-5.73.43-3.32.38-6.54,1.43-9.87,1.73s-7-.27-9.33-2.67"/><path class="cls-4" d="M152.59,268.13l-9.89,12.56S131,295.35,120.15,299.21a16.23,16.23,0,0,1-2.63.71A11.35,11.35,0,0,1,114,300a3.9,3.9,0,0,1-2.78-1.63,5.61,5.61,0,0,1-.75-1.51l8.67-28.19,30.75-.58S150.91,268.09,152.59,268.13Z"/><path class="cls-4" d="M183.67,278.6l0,.31-19.53-8.83-.13-.82C171.06,270.52,179.14,273.15,183.67,278.6Z"/><path class="cls-14" d="M184,273.32l-.8,4.73-19.54-8.84-.13-.84s-5.23-5-4.65-9.63l-16.61,21.08S128.52,297,117.09,299.05a11.41,11.41,0,0,1-3.5.12c-11.9-1.59,6.44-41,6.44-41l4.79-2.72L164.21,233s12.71-4.19,14.58,12.05S181,267.26,181,267.26Z"/><path class="cls-4" d="M169.72,252.59a7.7,7.7,0,0,0-1.4,2.68,6.77,6.77,0,0,1-3.39,3,20.46,20.46,0,0,1-4.47,1.24"/><path class="cls-13" d="M72.88,195.43s-19.47,30.62-12.71,50.73c0,0,7,6.93,13.63-5.55S72.88,195.43,72.88,195.43Z"/><path class="cls-4" d="M72.88,195.43s-19.47,30.62-12.71,50.73c0,0,7,6.93,13.63-5.55S72.88,195.43,72.88,195.43Z"/><circle class="cls-11" cx="112.28" cy="164.1" r="17.82"/><path class="cls-11" d="M116.71,177.5c-2.73,1.13-8.17,5.58-12.16,9l-.12.1c-1.46,1.27-2.72,2.4-3.58,3.18l-.17.15-.24.22-.77.7-9.24-1.44s-10.1-3.76-4.91-7.52a20.68,20.68,0,0,0,3.68-3.74l.55-.69h0a114.65,114.65,0,0,0,8.48-13.39S121.33,175.58,116.71,177.5Z"/><path class="cls-4" d="M117.09,299.05a11.41,11.41,0,0,1-3.5.12c-11.9-1.59,6.44-41,6.44-41l4.79-2.72.14,1.73s-.6,11,0,22.52C125.3,287,120.6,294.49,117.09,299.05Z"/><path class="cls-13" d="M113.34,301.51a4.32,4.32,0,0,1-4,1.45c-26.58-4.82-32.09-19.17-33.18-23.75a21.27,21.27,0,0,0-1.22-3.58l-.78-1.73a20.15,20.15,0,0,1-1.55-5.37L71.9,264a9.77,9.77,0,0,0-1-3.07l-1.26-2.43a19.23,19.23,0,0,1-2.17-8.36c-.26-10.52-.79-36.84.12-47.24C68.7,190.33,87,177,89.49,177.37a.29.29,0,0,1,.24.14h0c1,1.77,4.71,3.72,4.71,3.72a5.07,5.07,0,0,1,2.63.75c.55.26,1.15.58,1.75.92,2.78,1.57,5.71,3.65,5.71,3.65l-.11.1-3.59,3.18-.17.15.63.94,3.85,5.75a31.66,31.66,0,0,1,7.13,17.91L117,225.9a75.4,75.4,0,0,1,5.56,23l.66,8.28s-.6,11,0,22.52C123.65,288.51,116.65,297.68,113.34,301.51Z"/><path class="cls-4" d="M92.36,244.39a5.52,5.52,0,0,0,2.08.5c1.53,0,7.22-4.18,5.46-4.93-.87-.36-2.48,1-3.07,1.46S93.25,244.77,92.36,244.39Z"/><path class="cls-4" d="M98.39,245.5c-.51.31-1.08.83-.87,1.37a1.58,1.58,0,0,0,.63.6,3.36,3.36,0,0,1,1.15,1.46,3.44,3.44,0,0,1,.15.55c.12.55.12,1.22.58,1.56a17.61,17.61,0,0,0,0-4.7C99.78,245.07,99.67,244.72,98.39,245.5Z"/><path class="cls-4" d="M104.37,251.53l-.2,3.87a10,10,0,0,1-.35,2.5,12.87,12.87,0,0,1-1.88,3.19,1.48,1.48,0,0,0-.33.78,1,1,0,0,0,.46.82,2,2,0,0,0,2.62-.53,6.16,6.16,0,0,0,1.1-2.7l.55-2.51a6.85,6.85,0,0,1,1.27-3.12c1-1.16,2.86-1.79,3-3.31s-1.21-2.41-2.41-3.11c-1.56-.92-2.25-1.71-3.17.22A10.84,10.84,0,0,0,104.37,251.53Z"/><path class="cls-4" d="M83.6,223.37s2.17,3.89,10.42,13,19.37,25.27,31.35,18.48S140.53,238,140.53,238l2.89-15.45s.29-15.3-10.4-6.35a23,23,0,0,0-4.33,9.53c-1.16,5.77-4.76,5-4.76,5s-2.89-5.81-6.21-7.51c0,0-2.21-7.36-5.87-7.79-1-.13-2.53-1.76-4.12-4-8.61-12.33-28-3.55-24.37,11C83.42,222.74,83.52,223.05,83.6,223.37Z"/><path class="cls-4" d="M143.38,214.94,141.76,217l-7.66-.43.64-2.85C139.94,209.79,142.33,212,143.38,214.94Z"/><path class="cls-13" d="M84,222.5s2.17,3.9,10.42,13S113.82,260.76,125.8,254,141,237.08,141,237.08l2.89-15.45s.29-15.3-10.4-6.35a23.28,23.28,0,0,0-4.33,9.53c-1.15,5.78-4.76,5.05-4.76,5.05s-2.89-5.81-6.21-7.5c0,0-2.21-7.37-5.87-7.8-1-.13-2.53-1.76-4.12-4-8.61-12.33-28-3.55-24.37,11C83.85,221.87,84,222.18,84,222.5Z"/><path class="cls-4" d="M110.07,289.22l-8.75,1a38.53,38.53,0,0,1-7.27.36,12.55,12.55,0,0,1-6.77-2.4"/><path class="cls-4" d="M109.33,291.49a20.2,20.2,0,0,1-12.42,1.85"/><path class="cls-4" d="M106.88,296l-6.76.32a7.43,7.43,0,0,1-4.06-.58"/><path class="cls-4" d="M91.21,172.33a5.11,5.11,0,0,1,2.25-2.23C92.73,170.85,92,171.6,91.21,172.33Z"/><path class="cls-4" d="M116.71,177.5c-2.73,1.13-8.17,5.58-12.16,9l-.12.1-3.58,3.18-.17.15.63.95a7.64,7.64,0,0,1-.87-.73,7,7,0,0,1-1.29-1.73,6.8,6.8,0,0,1-.28-5.58,5.9,5.9,0,0,1,1.39-2.16,7.85,7.85,0,0,1-3.15,1.22,10.56,10.56,0,0,1-2.51.14,25.45,25.45,0,0,1-6.79-1.71,6.66,6.66,0,0,0,1.42-2.2c.11-.27.21-.56.3-.84a.32.32,0,0,1,.24.14,112.29,112.29,0,0,0,8.48-13.39S121.33,175.58,116.71,177.5Z"/><path class="cls-16" d="M130.55,187.69c-1.15,3.39-2.7,6.66-3.36,10.17-.32,1.7-.54,3.62-1.93,4.67a5.83,5.83,0,0,1-4.25.6,7.19,7.19,0,0,1-2.9-.87,2.74,2.74,0,0,1-1.4-2.5,13,13,0,0,1-7.4-3.15c-1.43-1.27-2.62-3.15-2.13-5a8.33,8.33,0,0,1-8.06-4,6.72,6.72,0,0,1,1.11-7.72,9.09,9.09,0,0,1-5.66,1.36,25.53,25.53,0,0,1-6.79-1.7c1.44-1.42,1.88-3.51,2.42-5.44a12.32,12.32,0,0,1,1-2.6A34,34,0,0,1,86,175.76a15.3,15.3,0,0,1-9.46,2.67A13,13,0,0,0,81,175c1.71-2.37,1.65-5.69,3.5-7.95,1.6-1.94,4.23-2.66,6.5-3.81a10.39,10.39,0,0,0,1.39-.86,7.27,7.27,0,0,0,1.82-1.85c.59-.87.54-2.13,1.12-2.95,1.07-1.5,5.16-.32,6.78-.11,2.8.35,5.58.83,8.33,1.41a99.24,99.24,0,0,1,16,4.9,6,6,0,0,1,2.92,1.95c1,1.48.46,3.36.37,5.17a8,8,0,0,0,0,1c.12,1.85,1.12,3.52,1.66,5.3C132.44,180.61,131.7,184.31,130.55,187.69Z"/><g class="cls-17"><path d="M91.68,170.18a34.05,34.05,0,0,1-5.23,4.28,16.22,16.22,0,0,1-7.75,2.7c-.69.46-1.42.87-2.14,1.27A15.19,15.19,0,0,0,86,175.76a32.85,32.85,0,0,0,5-4A9.46,9.46,0,0,1,91.68,170.18Z"/><path d="M90.65,172.8l0-.12c-.18.47-.33.95-.47,1.42s-.3,1.13-.47,1.69C90.11,174.82,90.37,173.79,90.65,172.8Z"/><path d="M94.81,159a5.9,5.9,0,0,0,.39-1.14A4.52,4.52,0,0,0,94.81,159Z"/><path d="M82.55,171.55c.25-.68.46-1.39.67-2.08C83,170.13,82.78,170.85,82.55,171.55Z"/><path d="M128.43,193.52c.68-2,1.48-3.87,2.14-5.83.1-.29.19-.58.29-.86C130.07,189.08,129.14,191.28,128.43,193.52Z"/><path d="M100.74,178.54a9.11,9.11,0,0,1-5.71,1.4,23.52,23.52,0,0,1-6.34-1.55,5.48,5.48,0,0,1-.88,1.15,25.44,25.44,0,0,0,6.79,1.7,9.63,9.63,0,0,0,4.84-.91A6,6,0,0,1,100.74,178.54Z"/><path d="M125.71,201.24a5.74,5.74,0,0,1-4.25.6,7.17,7.17,0,0,1-2.9-.86,2.76,2.76,0,0,1-1.4-2.51,12.82,12.82,0,0,1-7.4-3.15c-1.43-1.26-2.63-3.14-2.13-5a8.33,8.33,0,0,1-8.06-4,6.65,6.65,0,0,1-.58-4.57,6.75,6.75,0,0,0,.15,5.87,8.35,8.35,0,0,0,8.06,4c-.5,1.84.69,3.71,2.13,5a12.82,12.82,0,0,0,7.4,3.15,2.77,2.77,0,0,0,1.4,2.51,7.17,7.17,0,0,0,2.9.86c1.45.21,3.08.28,4.25-.6a4.59,4.59,0,0,0,1.55-2.74A3.68,3.68,0,0,1,125.71,201.24Z"/></g><path class="cls-4" d="M129.76,170.91c-8.4,2-36.77-8-37.37-8.18v-.34a7.27,7.27,0,0,0,1.82-1.85c.59-.87.53-2.13,1.12-2.95,1.07-1.49,5.15-.31,6.78-.11,2.8.36,5.57.83,8.33,1.42a97.57,97.57,0,0,1,16,4.9,5.92,5.92,0,0,1,2.92,1.94C130.37,167.22,129.85,169.11,129.76,170.91Z"/><path class="cls-18" d="M131.9,160.29l-.86,9.26c-6.22,3.75-38-7.46-38.65-7.69a25.11,25.11,0,0,1,1.18-7.19c.09-.28.19-.56.29-.84,4.21-11.48,16-14.6,16-14.6H120.1c7.64,1.88,11,16.67,11.7,20.47C131.84,160,131.88,160.14,131.9,160.29Z"/><path class="cls-4" d="M131.9,159.85l-.86,9.27c-6.22,3.75-38-7.46-38.65-7.69a25.11,25.11,0,0,1,1.18-7.19c.09-.28.19-.56.29-.84.7.06,1.38.14,2,.16a26.4,26.4,0,0,1,5.67.55,38.85,38.85,0,0,1,4.06,1.39,28.59,28.59,0,0,0,8.07,1.83,17.67,17.67,0,0,1,3,.26,15,15,0,0,1,2.74,1c3.5,1.47,7.47,2.4,11.07,1.2.46-.15.91-.34,1.37-.52C131.84,159.51,131.88,159.71,131.9,159.85Z"/><path class="cls-18" d="M132,159.74l-.92,9.82c-6.28,3.79-38.66-7.69-38.66-7.69a25.83,25.83,0,0,1,1.19-8.05c.8.06,1.59.17,2.26.19a26.38,26.38,0,0,1,5.67.53,38.85,38.85,0,0,1,4.06,1.39,28.25,28.25,0,0,0,8.07,1.83,18.77,18.77,0,0,1,3,.26,15.77,15.77,0,0,1,2.74,1c3.5,1.48,7.47,2.41,11.07,1.2.51-.17,1-.38,1.51-.58Z"/><path class="cls-15" d="M132,159.74l-.92,9.82c-6.28,3.79-38.66-7.69-38.66-7.69a25.83,25.83,0,0,1,1.19-8.05c.8.06,1.59.17,2.26.19a26.38,26.38,0,0,1,5.67.53,38.85,38.85,0,0,1,4.06,1.39,28.25,28.25,0,0,0,8.07,1.83,18.77,18.77,0,0,1,3,.26,15.77,15.77,0,0,1,2.74,1c3.5,1.48,7.47,2.41,11.07,1.2.51-.17,1-.38,1.51-.58Z"/><path class="cls-4" d="M188.6,275.39a6,6,0,0,0-.49,3.14,3,3,0,0,1-1.3,2.77"/><ellipse class="cls-1" cx="280.53" cy="316.98" rx="11.66" ry="1.97"/><ellipse class="cls-1" cx="221.51" cy="335.68" rx="11.66" ry="1.97"/><ellipse class="cls-1" cx="346.08" cy="331.74" rx="11.66" ry="1.97"/><ellipse class="cls-1" cx="33.07" cy="310" rx="11.66" ry="1.97"/><ellipse class="cls-19" cx="246.8" cy="283.86" rx="17.42" ry="2.95"/><path class="cls-1" d="M205.13,61.81a12.22,12.22,0,0,0-3,7.21,12.22,12.22,0,0,0,7.17-3.09,12.15,12.15,0,0,0,3-7.21A12.15,12.15,0,0,0,205.13,61.81Z"/><path class="cls-19" d="M279.58,246.46a15.68,15.68,0,0,0,8.81.21A13.93,13.93,0,0,0,272.66,241,15.68,15.68,0,0,0,279.58,246.46Z"/><path class="cls-19" d="M257.78,251.64a15.44,15.44,0,0,0-7.67,4.33,13.88,13.88,0,0,0,16.4-3.19A15.63,15.63,0,0,0,257.78,251.64Z"/><path class="cls-19" d="M268.1,226.3a15.44,15.44,0,0,0-7.67,4.33,13.9,13.9,0,0,0,16.4-3.18A15.56,15.56,0,0,0,268.1,226.3Z"/><path class="cls-1" d="M170,124.4a12.13,12.13,0,0,0-3,7.21,10.38,10.38,0,0,0,10.15-10.3A12.11,12.11,0,0,0,170,124.4Z"/><path class="cls-1" d="M147.4,96.71a12.13,12.13,0,0,0-5.58,5.45,10.4,10.4,0,0,0,13.38-5.48A12.2,12.2,0,0,0,147.4,96.71Z"/><path class="cls-1" d="M343.82,132.19a9.69,9.69,0,0,0,3.7,5,8.29,8.29,0,0,0-2.87-11.2A9.69,9.69,0,0,0,343.82,132.19Z"/><path class="cls-1" d="M258,127.79a9.74,9.74,0,0,0,3.71,5,8.29,8.29,0,0,0-2.88-11.19A9.65,9.65,0,0,0,258,127.79Z"/><path class="cls-1" d="M290.24,46a8.43,8.43,0,0,0,3.19,4.33,8.4,8.4,0,0,0,.71-5.31A8.43,8.43,0,0,0,291,40.69,8.35,8.35,0,0,0,290.24,46Z"/><path class="cls-1" d="M299.05,117.29a8.43,8.43,0,0,0,3.19,4.33,7.17,7.17,0,0,0-2.48-9.64A8.4,8.4,0,0,0,299.05,117.29Z"/><path class="cls-1" d="M316.75,141.28a9.73,9.73,0,0,0-.32,6.23A8.29,8.29,0,0,0,321.32,137,9.7,9.7,0,0,0,316.75,141.28Z"/><path class="cls-1" d="M282.32,83.27a8.3,8.3,0,0,0-.28,5.35A8.34,8.34,0,0,0,286,85a8.34,8.34,0,0,0,.27-5.35A8.34,8.34,0,0,0,282.32,83.27Z"/><path class="cls-1" d="M212.41,99.18a12.24,12.24,0,0,0,2.33,7.45,12.2,12.2,0,0,0,3.52-7,12.17,12.17,0,0,0-2.33-7.45A12.2,12.2,0,0,0,212.41,99.18Z"/><path class="cls-1" d="M136.4,65.64a12.15,12.15,0,0,0,6.71,4,12.17,12.17,0,0,0-2-7.53,12.15,12.15,0,0,0-6.71-4A12.17,12.17,0,0,0,136.4,65.64Z"/><path class="cls-19" d="M254,279.05a5,5,0,0,0,1.66-2.51A2.23,2.23,0,0,0,254.5,274c-1.06-.41-2.2.33-3.06,1.08s-1.86,1.59-3,1.43a4.52,4.52,0,0,0,1.41-4.25,1.87,1.87,0,0,0-.39-.86c-.6-.63-1.67-.36-2.38.14-2.25,1.58-2.88,4.64-2.89,7.39a13.34,13.34,0,0,1,0-3A3.12,3.12,0,0,0,243,273.2a3.41,3.41,0,0,0-1.74-.41,3.6,3.6,0,0,0-2.83.8,2.8,2.8,0,0,0,.11,3.47,11.61,11.61,0,0,0,2.93,2.35,6.44,6.44,0,0,1,2.1,2,2.28,2.28,0,0,1,.15.36h6.35A18,18,0,0,0,254,279.05Z"/><path class="cls-20" d="M399.37,77.2A36.55,36.55,0,0,0,398,4.12h-.61a36.53,36.53,0,0,0-35.14.78,36.55,36.55,0,0,0-47.4,53.74A36.56,36.56,0,0,0,359,111.49c7.2,9,15.42,20.23,13.79,24.23-2,5-.82,55.75-.25,76.11a7.46,7.46,0,0,0,.1,1c-13.49.73-23.24,2.87-23.24,5.4,0,3.13,15,5.67,33.54,5.67s33.54-2.54,33.54-5.67c0-1.19-2.16-2.29-5.83-3.2a17.1,17.1,0,0,0,2.74-2,5.15,5.15,0,0,0,1.66-2.51,2.23,2.23,0,0,0-1.16-2.55c-1.07-.41-2.21.33-3.07,1.08s-1.85,1.59-3,1.43a4.52,4.52,0,0,0,1.4-4.25,1.7,1.7,0,0,0-.39-.86c-.59-.63-1.66-.36-2.37.14-2.25,1.58-2.88,4.64-2.89,7.39a13.34,13.34,0,0,1,0-3,3.14,3.14,0,0,0-1.15-2.7,4.68,4.68,0,0,0-4.56.4A2.77,2.77,0,0,0,398,211a11,11,0,0,0,2.93,2.35l.16.11c-3.4-.37-7.21-.64-11.29-.78,0-.32.06-.65.07-1,.35-19.72,1.34-67.44,2.63-73.11,1.63-7.17,0-50.81,0-50.81s-.17-4.85.06-11A36.21,36.21,0,0,0,399.37,77.2ZM368.89,106a36.71,36.71,0,0,0,2.89-2.54l1.05,6.91Z"/><path class="cls-21" d="M24.15,264s-6.07-20.66,1.14-35.87a32.66,32.66,0,0,0,2.64-20.48A55.69,55.69,0,0,0,25,198"/><path class="cls-19" d="M29.53,188.42c0,2.53-4.59,9.88-4.59,9.88s-4.59-7.35-4.59-9.88a4.59,4.59,0,0,1,9.18,0Z"/><path class="cls-19" d="M37.11,202.45c-1.38,2.12-9.22,5.8-9.22,5.8s.14-8.66,1.52-10.78a4.59,4.59,0,1,1,7.7,5Z"/><path class="cls-19" d="M36.77,226.44c-2.26,1.14-10.88.36-10.88.36s4.49-7.41,6.76-8.55a4.58,4.58,0,0,1,4.12,8.19Z"/><path class="cls-19" d="M32.44,244.5c-2,1.51-10.67,2.17-10.67,2.17s3.18-8.06,5.2-9.56a4.59,4.59,0,1,1,5.82,7.09c-.12.1-.24.18-.37.27Z"/><path class="cls-19" d="M18.26,208.74c1.82,1.76,10.28,3.59,10.28,3.59s-2.07-8.41-3.9-10.17a4.59,4.59,0,1,0-6.56,6.42l.17.16Z"/><path class="cls-19" d="M13.46,230c2.26,1.14,10.88.35,10.88.35s-4.49-7.4-6.76-8.54A4.59,4.59,0,1,0,13.45,230h0Z"/><path class="cls-19" d="M11.62,251.2c2,1.51,10.67,2.19,10.67,2.19s-3.18-8.06-5.2-9.56a4.59,4.59,0,0,0-5.81,7.1l.36.27Z"/><path class="cls-22" d="M9.78,262.69s7.42-1.47,9.39-3.43S30,253.86,31,256.33,44.35,267.12,36,268.59s-19.76,2-22.24,1S9.78,262.69,9.78,262.69Z"/><path class="cls-23" d="M36,267.67c-8.4,1.47-19.76,2-22.24,1-1.88-.75-3.18-4.34-3.7-6l-.25.05s1.48,5.89,4,6.87,13.84.49,22.24-1c2.43-.44,3.12-1.42,2.85-2.69C38.6,266.72,37.75,267.35,36,267.67Z"/><path class="cls-19" d="M358.35,244s2.38,3.12-1.1,7.8-6.34,8.66-5.19,11.59c0,0,5.24-8.72,9.52-8.85S363.05,249.27,358.35,244Z"/><path class="cls-4" d="M358.35,244a3.91,3.91,0,0,1,.49,1c4.16,4.9,6.39,9.47,2.38,9.58-3.73.11-8.23,6.78-9.28,8.46,0,.13.08.26.13.39s5.24-8.73,9.53-8.85S363.05,249.27,358.35,244Z"/><path class="cls-24" d="M362.79,248c0,1.1-.12,2-.27,2s-.28-.88-.28-2,.16-.58.31-.58S362.79,246.89,362.79,248Z"/><path class="cls-24" d="M364.29,249.3c-1,.52-1.8.84-1.87.7s.65-.66,1.61-1.18.58-.15.66,0S365.25,248.77,364.29,249.3Z"/><path class="cls-19" d="M345.78,244s-2.37,3.12,1.1,7.8,6.35,8.66,5.2,11.59c0,0-5.25-8.72-9.53-8.85S341.08,249.27,345.78,244Z"/><path class="cls-4" d="M345.78,244a3.88,3.88,0,0,0-.48,1c-4.17,4.9-6.39,9.47-2.38,9.58,3.73.11,8.2,6.78,9.27,8.46a2.91,2.91,0,0,1-.12.39s-5.25-8.73-9.53-8.85S341.08,249.27,345.78,244Z"/><path class="cls-24" d="M341.36,248c0,1.1.12,2,.27,2s.28-.88.28-2-.15-.58-.31-.58S341.36,246.89,341.36,248Z"/><path class="cls-24" d="M339.84,249.3c1,.52,1.8.84,1.87.7s-.65-.66-1.61-1.18-.58-.15-.65,0S338.88,248.77,339.84,249.3Z"/><path class="cls-22" d="M342.12,263s6.65-.21,8.66-1.63,10.23-3.13,10.73-.85,10,11.39,2.49,11.45-17.45-1.17-19.46-2.39S342.12,263,342.12,263Z"/><path class="cls-23" d="M364.13,271.19c-7.51.06-17.45-1.17-19.46-2.38-1.52-.93-2.13-4.26-2.33-5.8h-.22s.43,5.36,2.42,6.58S356.48,272,364,272c2.17,0,2.92-.79,2.88-1.93C366.57,270.75,365.74,271.18,364.13,271.19Z"/></g></g></svg>